<svg id="Camada_1" data-name="Camada 1" xmlns="http://www.w3.org/2000/svg" viewBox="0 0 367 812.64"><path d="M416,601.23A22,22,0,0,1,387,596.34c-5.52-7-8.23-15.19-9.61-23.8A106.89,106.89,0,0,1,384.33,514c2.49-6.09,4.2-12.28,2.19-18.94a16.73,16.73,0,0,0-5.45-8.6,6.66,6.66,0,0,0-6.67-1.39c-2.59.91-3.3,3.27-3.49,5.73a17.82,17.82,0,0,0,.71,7.06,17.89,17.89,0,0,1,.87,4.46,4.07,4.07,0,0,1-3.18,4.34c-2.2.68-3.77-.48-4.87-2.19-3.32-5.15-2.92-17.43.64-22.53,3.76-5.37,10.57-6.79,17.42-3.62,8.42,3.91,13.51,13.58,12.39,23.76A50,50,0,0,1,390.72,517a113.76,113.76,0,0,0-9.51,52.5,50.1,50.1,0,0,0,2.35,12.72c3.84,12,10.48,17.42,22.95,18.52C409.28,601,412.08,601,416,601.23Z" transform="translate(-114.46 -13.67)"/><path d="M193.18,601.47c5.34-.9,9.85-.66,14.3-1.5,7-1.32,11.77-5.14,15.12-11.09s4.75-12.52,5.13-19.27a113.29,113.29,0,0,0-9.43-52.51c-3.37-7.69-5.5-15.47-3.54-23.92s8.44-14.94,16.55-16.25c6.77-1.09,12.59,2.46,14.5,9,1.69,5.81.92,11.57-.78,17.26-.78,2.63-2.52,4.19-5.29,3.49s-3.63-2.78-3.14-5.54c.52-3,1.71-5.82,1.54-8.93-.15-2.9-.4-5.86-3.49-7.07s-6,.18-8.12,2.56c-4.2,4.63-5.52,10.19-4.76,16.27.54,4.32,2.19,8.33,3.74,12.37,7.72,20.11,9.66,40.72,4.83,61.81a45.25,45.25,0,0,1-8.35,18.1A22.07,22.07,0,0,1,193.18,601.47Z" transform="translate(-114.46 -13.67)"/><path d="M480.63,328.28c-2.47-10.53-8.47-18.86-16.14-26.12-12.13-11.48-26.57-19.14-42-25.08-29.67-11.42-60.48-15.67-92.13-14.56-2.6.09-5.19.22-7.79.29-1.54,0-2.3-.63-2.31-2.31s.38-2.95,2.45-2.86c1.3.05,2.6,0,3.9,0A148.64,148.64,0,0,0,360.8,255c18.58-3.78,36.13-10,51.76-21a66.52,66.52,0,0,0,16.67-16.25c9.41-13.49,9.72-28.08.86-41.92a65.86,65.86,0,0,0-12-13.63c-10.94-9.72-23.55-16.76-36.71-22.92-4.26-2-8.57-3.88-12.75-5.76,2.13-10.82,4.82-21,9.82-30.51,4.89-9.25,12.06-15.66,22.29-18.43,2.28-.62,4.47-1.58,6.72-2.3,6.43-2,9.89-6.67,11.36-13a59.53,59.53,0,0,0,.9-21.32c-2.29-17.62-11.73-27.86-29-32.33-10.72-2.77-21.49-2.36-32.18-.47-30,5.31-56.32,18.79-80,37.56-17.85,14.13-32.8,30.81-43.37,51.14-13.48,25.92-16.81,53-8.55,81.13,9.67,32.9,29.94,56,63.13,66.79a100.82,100.82,0,0,0,15,3.75c2.6.42,4.18,1.25,4,4.55-.14,2.95-3.87,4.35-3.87,4.35s-2.95.66-4.45.88A210.67,210.67,0,0,0,224,291.86c-43.54,25.38-72.46,62.91-89.83,109.71C115.88,450.8,112.54,502,115.32,553.8a640.84,640.84,0,0,0,9.77,80.51c4.58,25.1,9.67,50.08,18.15,74.23,9.45,26.93,21.71,52.36,40.28,74.29,28.23,33.33,63.38,49.45,107.45,41.46,22.17-4,41.94-12.92,59.54-27.92,26-22.16,45-47.07,59.87-77.88,2.15-4.46,11.29-26.42,8.91-26.33-43.11,74.26-74.2,96.48-74.2,96.48s-20.2,14.65-32.32,18.51c-21.17,6.72-42.51,9.51-64.39,3.69-23-6.11-41.17-19.49-56.14-37.57-16-19.25-26.89-41.27-34.58-64.86-14-42.87-23.63-86.68-27.72-131.67-3.39-37.31-2.52-74.38,5.46-111.09Q160.5,350.21,268,301.1c12.8-5.86,26.36-9.07,40.51-10.86.85,2.27.6,4.43.63,6.53.17,9.52.32,19.05.4,28.58.41,52,4.22,155.82,4.22,155.82l2.3,10.38s.92-10.79,1.12-16.2c1.52-39.39,2.91-78.79,3-118.23q.07-31.51.25-63c0-5.16.06-5.27,5.37-5.26,10.17,0,20.3-.06,30.49,1a246.31,246.31,0,0,1,56.15,12c12.08,4.17,23.79,9.21,34,17,6.78,5.19,12.68,10.91,12.85,20.62a10.82,10.82,0,0,0,11,10.57c5.56,0,10.28-4.52,11-10.75A32.46,32.46,0,0,0,480.63,328.28ZM320.15,234.9c.07-1.08,0-2.16,0-3.25L318.79,155a24.94,24.94,0,0,0-.11-3.24c-.47-3-3-5.69-5.46-5.51-2.88.2-4.66,2-5.59,4.7-.59,1.71-.23,3.43-.18,5.15.78,24.69.87,49.38,1,74.08,0,1.5,0,3,0,4.91-34.92-8.29-57.57-34-61.36-68.65-2.65-24.17.28-47.69,9.92-69.9,15.46-35.61,43.5-56.68,80.52-66.38,16.07-4.21,32.36-5.53,48.71-1.31a42.17,42.17,0,0,1,15.21,7c7.65,5.8,10.16,13.81,7.38,23-1.92,6.36-5.6,11.67-9.86,16.61a115.09,115.09,0,0,1-15.07,14.29c-6.43,5.16-12.76,10.43-17.71,17.1-2.76,3.72-4.45,7.31-2.35,12.51,1.52,3.78.59,8.53.81,12.84.11,2-1.38,2.46-2.72,3.13-4.5,2.22-7.06,5.76-6.66,10.86.42,5.4,4,8.25,8.77,10.14,11.08,4.36,21.71,9.61,31.31,16.76a53.07,53.07,0,0,1,12,11.79c6.74,9.57,6.85,18.88-.33,28.16a61.52,61.52,0,0,1-32.66,22.26,124.82,124.82,0,0,1-51.44,3C320.54,237.9,320,236.91,320.15,234.9Z" transform="translate(-114.46 -13.67)"/><path d="M322.45,133.85a30.83,30.83,0,0,0-2.26-4.62c-1.22-2.38-.62-4.12,1.82-5.22,1.93-.87,4-1.43,6-3.47-3.13-2.27-6.32-2.5-9.53-2.42a7.29,7.29,0,0,0-7.06,4.79c-1.95,5.06-1.38,10.23.57,15.14,1.12,2.8,4.26,3.69,7.12,2.6A5.29,5.29,0,0,0,322.45,133.85Z" transform="translate(-114.46 -13.67)"/><path d="M302.09,173.17a9.22,9.22,0,0,0-4.49.16c-6.55,2-13.13,4-19.32,8.29l9.07,2.42c5,1.33,9.9.33,14.8-.45,2.72-.44,3.89-2.52,3.88-5.21S304.72,173.75,302.09,173.17Z" transform="translate(-114.46 -13.67)"/><path d="M325.31,159.3a5.56,5.56,0,0,0,6.66,4.64c6.28-1.33,12.24-3.59,17.52-8.18A36,36,0,0,0,330.38,153,5.49,5.49,0,0,0,325.31,159.3Z" transform="translate(-114.46 -13.67)"/><path d="M324.18,171.71a5.85,5.85,0,0,0,2.09,7.37c4.65,2.81,9.75,2.28,15.17-1.93-3.19-2.62-6.12-5.43-9.45-7.62A5.61,5.61,0,0,0,324.18,171.71Z" transform="translate(-114.46 -13.67)"/><path d="M293.57,167.07a21.34,21.34,0,0,0,3,.77c1.39-.29,2.67-.47,3.9-.83,3.67-1.1,5.25-4.07,4-7.36s-4.58-4.36-8-2.69a36.16,36.16,0,0,0-3.85,2.33c-1.6,1-3.92,1.94-3.77,4C289,165.73,291.63,166.27,293.57,167.07Z" transform="translate(-114.46 -13.67)"/></svg>