<svg id="Camada_1" data-name="Camada 1" xmlns="http://www.w3.org/2000/svg" viewBox="0 0 773.67 403.85"><path d="M441.23,139.6v45.15h-4.37V139.6Z" transform="translate(-21.02 -11.01)"/><path d="M448.87,184.75V139.6h4.77l10.85,22.84a141.58,141.58,0,0,1,6.08,14.68l.1-.07c-.4-6-.5-11.53-.5-18.56V139.6h4.12v45.15h-4.42l-10.75-22.91a159.77,159.77,0,0,1-6.33-15.08l-.16.07c.26,5.7.36,11.12.36,18.63v19.29Z" transform="translate(-21.02 -11.01)"/><path d="M481.33,177.65a12.78,12.78,0,0,0,7.84,2.95c4.47,0,7.08-3.15,7.08-7.71,0-4.22-1.81-6.63-6.38-9-5.53-2.62-8.94-6.44-8.94-12.8,0-7,4.37-12.26,10.95-12.26a12.38,12.38,0,0,1,7.49,2.21l-1.21,4.76a11,11,0,0,0-6.43-2.15c-4.62,0-6.38,3.69-6.38,6.77,0,4.22,2.06,6.3,6.73,8.71,5.73,3,8.64,6.63,8.64,13.27,0,7-3.87,13-11.86,13a14.23,14.23,0,0,1-8.64-2.88Z" transform="translate(-21.02 -11.01)"/><path d="M513.13,144.55H502.84v-5h25.07v5H517.56v40.2h-4.43Z" transform="translate(-21.02 -11.01)"/><path d="M536.05,139.6v45.15h-4.37V139.6Z" transform="translate(-21.02 -11.01)"/><path d="M550.12,144.55h-10.3v-5h25.07v5H554.54v40.2h-4.42Z" transform="translate(-21.02 -11.01)"/><path d="M573,139.6v26.73c0,10.12,3.37,14.4,7.89,14.4,5,0,8.24-4.42,8.24-14.4V139.6h4.42v26.33c0,13.87-5.47,19.56-12.81,19.56-6.93,0-12.16-5.29-12.16-19.3V139.6Z" transform="translate(-21.02 -11.01)"/><path d="M607.6,144.55H597.3v-5h25.08v5H612v40.2H607.6Z" transform="translate(-21.02 -11.01)"/><path d="M653.73,161.71c0,15.54-7.08,23.78-15.73,23.78-8.94,0-15.22-9.24-15.22-22.91,0-14.34,6.68-23.72,15.73-23.72C647.75,138.86,653.73,148.31,653.73,161.71Zm-26.28.73c0,9.65,3.92,18.29,10.81,18.29s10.85-8.5,10.85-18.76c0-9-3.52-18.35-10.81-18.35S627.45,152.53,627.45,162.44Z" transform="translate(-21.02 -11.01)"/><path d="M514.49,251.49V203c0-2.91-.18-2.63,2.54-2.63h15.83c2.08,0,2.1,0,2.1,2.1q0,17.75,0,35.5c0,3-.25,2.57,2.52,2.58,5.2,0,10.4,0,15.59,0,2,0,2,0,2-2.12q0-17.62,0-35.26c0-.64,0-1.28,0-1.92a.79.79,0,0,1,.88-.88h.72c5.68,0,11.36,0,17,0,1.18,0,1.83.25,1.67,1.57a11.52,11.52,0,0,0,0,1.44v96.18a11.52,11.52,0,0,0,0,1.44c.19,1.31-.43,1.58-1.63,1.57-5.59,0-11.19,0-16.79,0-2.1,0-1.9.06-1.9-2q0-18.94,0-37.9c0-.48,0-1,0-1.44,0-1.87.09-1.86-1.81-1.86-4.87,0-9.75,0-14.63,0-1.18,0-3-.1-3.35.38a9.71,9.71,0,0,0-.36,3.35q0,18.22,0,36.46c0,.32,0,.64,0,1,0,2,0,2-2.13,2h-1.2c-4.72,0-9.44,0-14.16,0-3.43,0-3,.46-3-2.85Q514.47,275.59,514.49,251.49Z" transform="translate(-21.02 -11.01)"/><path d="M260.05,240.87V203.21c0-.64,0-1.28,0-1.92a.8.8,0,0,1,.89-.88h17.28c1.95,0,2,0,2,2q0,14.76,0,29.51c0,11.11,0,22.23,0,33.34,0,3.69.31,7.34.57,11a12.89,12.89,0,0,0,1.62,5.22,7.6,7.6,0,0,0,7.15,4.35,14.28,14.28,0,0,0,3.58-.19c4.6-1.19,6.2-3.73,6.74-9a68.9,68.9,0,0,0,.22-7.19q0-32.74,0-65.49v-1.2c0-2.33,0-2.34,2.35-2.34h15.83c2.24,0,2.25,0,2.26,2.17,0,4.72,0,9.43,0,14.15v57.81a60.49,60.49,0,0,1-.83,9.77c-1.61,9.84-7.38,15.91-16.83,18.4A45.24,45.24,0,0,1,276,302c-9.08-3.16-14.07-9.78-15.5-19.22a47.87,47.87,0,0,1-.45-7.17Z" transform="translate(-21.02 -11.01)"/><path d="M329.23,302.5l33.67-82.64a4,4,0,0,0-2.26-.29H335.45c-1.91,0-1.92,0-1.93-2q0-7.67,0-15.35c0-1.76,0-1.81,1.64-1.81h57.34a1.23,1.23,0,0,1,1.12.46L358.86,283.3c.87.05,1.54.11,2.22.11H388c.56,0,1.12,0,1.68,0,.9-.06,1.34.3,1.31,1.24s0,1.59,0,2.39c0,4.56,0,9.12,0,13.68,0,1.81,0,1.84-1.83,1.84q-12,0-24,0H330.56C330.24,302.57,329.92,302.53,329.23,302.5Z" transform="translate(-21.02 -11.01)"/><path d="M669.59,280a4.48,4.48,0,0,1,2,1.11A24.19,24.19,0,0,0,684,285.16c8.4.4,14.24-6.34,11.69-15.09a10.41,10.41,0,0,0-3.66-4.94c-2.29-1.87-4.63-3.67-7.07-5.33a79.08,79.08,0,0,1-10.1-8.05,28.29,28.29,0,0,1-9-17.53C665,227,665.64,220,669,213.46c3.6-7.1,9-12.15,17-13.8s15.82-.13,23.07,3.81a1.7,1.7,0,0,1,1.12,1.64c0,6,0,12-.07,18,0,0-.12.08-.24.17-.76,0-1.15-.69-1.69-1.1a25.51,25.51,0,0,0-10.09-4.69c-8.71-1.79-14.49,4.77-12.09,13.28a14.69,14.69,0,0,0,4.52,6.65,103.28,103.28,0,0,0,8.53,7c3.62,2.76,7.29,5.41,10.25,9a27.44,27.44,0,0,1,6.8,17.48A39.25,39.25,0,0,1,713,288.1a25.7,25.7,0,0,1-17.73,15.12,32.86,32.86,0,0,1-23.86-2.9,3.35,3.35,0,0,1-2.1-3.52c.13-4.87,0-9.75.06-14.63A4.5,4.5,0,0,1,669.59,280Z" transform="translate(-21.02 -11.01)"/><path d="M207.68,281.43c.79.13,1.11.84,1.6,1.31a12.77,12.77,0,0,0,8.05,3.8c4.45.33,6.8-1.49,8.1-5.22a20.76,20.76,0,0,0,1-6.12q.15-3.48.15-6.95,0-32,0-64V203c0-2.89-.14-2.6,2.57-2.6,5.36,0,10.72,0,16.07,0,1.8,0,1.83,0,1.83,1.88,0,23.42,0,46.84-.07,70.27,0,5-.26,10.05-1.8,14.92-1.78,5.67-4.61,10.47-9.87,13.63a22.6,22.6,0,0,1-11.14,3.12A35.22,35.22,0,0,1,209.39,302c-2-.81-2-.82-2-2.93q0-7.92,0-15.83C207.42,282.66,207.17,282,207.68,281.43Z" transform="translate(-21.02 -11.01)"/><path d="M402.63,251.46V203c0-2.86-.23-2.61,2.55-2.61,5.36,0,10.71,0,16.07,0,1.81,0,1.84,0,1.85,1.87q0,14,0,28.05,0,34.78,0,69.55c0,3,.33,2.67-2.68,2.67-5.2,0-10.39,0-15.59,0-2.43,0-2.2.1-2.2-2.19Z" transform="translate(-21.02 -11.01)"/><path d="M497.17,366.35V321.27c0-.47,0-.72,0-1.43,0-1.55,0-1.56,1.48-1.55h3.84c7.75,0,15.51,0,23.26,0,1.94,0,2,0,2,2,0,1.43,0,2.87,0,4.31,0,1.75,0,1.78-1.88,1.78-5.12,0-10.24,0-15.35,0-1.41,0-2.9-.27-3.74.74-.68.81-.61,2.21-.61,3.56q0,13.66,0,27.33c0,2.95,0,2.95,3.08,2.95h16.06c1.94,0,2,0,2,2q0,2.16,0,4.32c0,1.75,0,1.77-1.89,1.77H509.52c-3.4,0-3.4,0-3.4,3.36v32.85s.41,1.19,1.28,1.18c3.12,0,6.24,0,9.36,0,3.35,0,6.71,0,10.07,0,1,0,1.43.3,1.39,1.36-.07,1.68,0,3.36,0,5s0,1.82-1.84,1.82q-12.6,0-25.18,0c-1.26,0-2.42.2-3.29-.65s-.69-2.06-.69-3.31Q497.15,388.54,497.17,366.35Z" transform="translate(-21.02 -11.01)"/><path d="M486.37,402.78c0,2.49,0,5.1,0,7.71a1.51,1.51,0,0,1-1,1.47,25.86,25.86,0,0,1-13.63,2.82c-8.89-.71-14.64-5.66-18.27-13.47a55.8,55.8,0,0,1-4.34-15.88,142.78,142.78,0,0,1-.87-28.71c.47-7.91,1.66-15.72,4.65-23.14a31.06,31.06,0,0,1,5.94-9.77,20.34,20.34,0,0,1,15.06-6.73,26.46,26.46,0,0,1,11.38,2.25,1.81,1.81,0,0,1,1.3,2c-.07,2.55,0,5.1,0,7.66-1,.27-1.58-.46-2.21-.85a16.83,16.83,0,0,0-11.26-2.32,13.39,13.39,0,0,0-9.66,6.38c-2.65,4-3.89,8.56-4.68,13.22-1.69,10-1.72,20-1.21,30.12a82.71,82.71,0,0,0,2.16,16.36,26.24,26.24,0,0,0,3.5,8.35c3.3,4.88,8,6.55,13.71,5.93A17.29,17.29,0,0,0,485.1,403C485.39,402.82,485.67,402.44,486.37,402.78Z" transform="translate(-21.02 -11.01)"/><path d="M500.47,202.54c0-2.11,0-2.12-2.05-2.13q-8.28,0-16.54,0c-1.8,0-1.84,0-1.84,1.88,0,5.27,0,15.81,0,15.81v40.74l-15.56-39s-4.82-11.82-7.24-17.71c-.35-.84-.5-1.81-1.87-1.8-5.67.07-11.35,0-17,0-1,0-1.27.41-1.22,1.3,0,.56,0,1.12,0,1.68v96.18a11.37,11.37,0,0,1,0,1.43c-.18,1.28.38,1.62,1.61,1.6,5.68,0,11.35,0,17,0,1.73,0,1.78,0,1.75-1.89-.3-18.54,0-58.65,0-58.65s11,29.14,16.62,42.94c2.19,5.39,4.42,10.76,6.56,16.17a1.9,1.9,0,0,0,2.07,1.47c5.35-.07,10.7,0,16.06,0,1.62,0,1.63,0,1.66-1.75,0-.48,0-1,0-1.44V202.54Z" transform="translate(-21.02 -11.01)"/><path d="M656.38,234.65a55.11,55.11,0,0,0-6.69-18.83c-4.17-7.08-9.6-12.73-17.76-15.17a33.34,33.34,0,0,0-14.39-1.33A30.4,30.4,0,0,0,597.83,210a40.36,40.36,0,0,0-6.7,11,71.06,71.06,0,0,0-4.9,22.34,100.35,100.35,0,0,0,1.64,28.37c1.4,6.51,3.54,12.77,7.51,18.24,7.42,10.19,17.19,15.49,30,14.1a30,30,0,0,0,20.17-10.73A46.53,46.53,0,0,0,654,277.81c2.94-8.49,3.55-17.32,3.71-26.43A116.81,116.81,0,0,0,656.38,234.65Zm-23,38.46a25.49,25.49,0,0,1-4.71,9.06c-3.26,4.16-9.93,4.15-13.4.61a20.24,20.24,0,0,1-4.86-8.68,72.44,72.44,0,0,1-2.56-14.35,104.28,104.28,0,0,1,.58-22,40.79,40.79,0,0,1,3.28-12.2,15.7,15.7,0,0,1,4-5.58,9.13,9.13,0,0,1,12.9.72,19.68,19.68,0,0,1,3.82,6.31c1.57,3.89,2.13,8,2.78,12.1a116.7,116.7,0,0,1,.8,11.9C636,258.82,635.35,266.05,633.41,273.11Z" transform="translate(-21.02 -11.01)"/><path d="M204.61,301,186,223.56q-2.56-10.69-5.15-21.39c-.23-1-.35-1.8-1.72-1.79-6.23.06-12.47.05-18.7,0a1.42,1.42,0,0,0-1.63,1.31c-.6,2.8-1.27,5.6-1.92,8.39q-9.51,41.26-19,82.51c-.75,3.25-2.22,10-2.22,10h18.39c1.47,0,1.86-.52,2.11-1.83.86-4.54,1.83-9.07,2.78-13.59.4-1.88.42-1.89,2.26-1.89h16.54c1.79,0,1.8,0,2.18,1.72,1,4.52,1.92,9.05,3,13.55.56,2.34.07,2,2.41,2,4,0,8,0,12,0,2.47,0,7.65,0,7.65,0Zm-41.83-31.76c1-6.33,2-12.56,3-18.78.9-5.84,1.76-11.69,2.64-17.53.17-1.11.36-2.21.54-3.31.15-.25.32-.25.52,0,.85,3.58,6.57,36.64,7.15,39.67Z" transform="translate(-21.02 -11.01)"/><path d="M794.54,357.89a105.43,105.43,0,0,0-2.31-19.71c-1.15-5-2.74-9.84-5.76-14.07-5-7-12-8.9-20-7.6-5.94,1-10,4.6-12.94,9.68A42.55,42.55,0,0,0,749,338.52c-1.9,8.87-2.33,17.87-2.38,26.91a142.17,142.17,0,0,0,1.47,22.21c.88,5.78,2.23,11.43,5.07,16.62,3.27,6,8,9.79,15,10.47,7.39.71,13.51-1.51,18.06-7.55a28,28,0,0,0,3.56-6.48,63,63,0,0,0,3.82-16A169,169,0,0,0,794.54,357.89Zm-10.95,32a38.32,38.32,0,0,1-2.83,9.36,17.54,17.54,0,0,1-2.61,4c-3.71,4.25-11.16,4.53-15-.15a21,21,0,0,1-3.52-6.49,60,60,0,0,1-2.84-14.28,200.45,200.45,0,0,1-.42-28.26,73.85,73.85,0,0,1,2.76-18.43,26.22,26.22,0,0,1,3.18-6.93A10.11,10.11,0,0,1,779,328.5a28.15,28.15,0,0,1,4.15,10.11A81.78,81.78,0,0,1,785,354c.13,3.83,0,7.67,0,11.5C785.17,373.69,785.09,381.84,783.59,389.89Z" transform="translate(-21.02 -11.01)"/><path d="M736.06,349.09a55.2,55.2,0,0,0-3.81-16.74c-3.6-8.4-10.2-12.49-19.06-13.51-4.87-.56-9.74-.33-14.62-.39-2.08,0-2.08,0-2.11,2.1v91.39a15.69,15.69,0,0,1,0,1.68c-.09,1,.4,1.24,1.28,1.22,5.5-.19,11,.4,16.51-.5,7.18-1.18,12.84-4.6,16.48-11a32,32,0,0,0,2.51-5.68,72.49,72.49,0,0,0,3.29-20A199.65,199.65,0,0,0,736.06,349.09Zm-8.69,30.53a54.8,54.8,0,0,1-2.3,14.37,25.38,25.38,0,0,1-2,4.61A15,15,0,0,1,712,406.15a36,36,0,0,1-4.52.45c-2.12.1-2.12.06-2.14-2,0-1.44,0-2.88,0-4.32V329.37c0-.56,0-1.12,0-1.68,0-.78.2-1.14,1.07-1.16a24.56,24.56,0,0,1,9.84,1.56,13.84,13.84,0,0,1,7.32,7.23c2.1,4.39,2.88,9.11,3.34,13.88A222.22,222.22,0,0,1,727.37,379.62Z" transform="translate(-21.02 -11.01)"/><path d="M614,368l1-.17c7.83-1,13.13-5.2,15.2-12.9a43.17,43.17,0,0,0-.21-23.43,15.75,15.75,0,0,0-8.92-10.37,29.36,29.36,0,0,0-8.75-2.23,125.74,125.74,0,0,0-14.13-.38c-3.11,0-2.77-.36-2.77,2.85v90.92c0,.48,0,1,0,1.43,0,.76.15,1.2,1,1.18q3.36,0,6.72,0c.84,0,1.13-.35,1.08-1.14,0-.56,0-1.12,0-1.68V366.71c1,.57,1,1.36,1.29,2q7.22,16.69,14.38,33.4c1.64,3.82,3.25,7.64,4.92,11.44.23.52.28,1.3,1.17,1.3h8.75Zm-7.71-6.41c-2,0-2,.14-2-1.92,0-5.19,0-10.39,0-15.58,0-5,0-9.91,0-14.86,0-3-.36-2.53,2.72-2.63a22.79,22.79,0,0,1,6.18.57,10.29,10.29,0,0,1,7.72,7.14,32.75,32.75,0,0,1,1.25,13.49A23.51,23.51,0,0,1,621,353.6a10.79,10.79,0,0,1-9.24,7.59A38.83,38.83,0,0,1,606.27,361.54Z" transform="translate(-21.02 -11.01)"/><path d="M562.31,368l1.05-.17c7.82-1,13.13-5.2,15.2-12.9a43.17,43.17,0,0,0-.21-23.43,15.74,15.74,0,0,0-8.93-10.37,29.22,29.22,0,0,0-8.74-2.23,125.92,125.92,0,0,0-14.14-.38c-3.1,0-2.76-.36-2.76,2.85v90.92c0,.48,0,1,0,1.43,0,.76.15,1.2,1,1.18q3.36,0,6.72,0c.84,0,1.13-.35,1.07-1.14,0-.56,0-1.12,0-1.68V366.71c1,.57,1,1.36,1.29,2q7.22,16.69,14.38,33.4c1.64,3.82,3.25,7.64,4.92,11.44.23.52.27,1.3,1.16,1.3h8.76Zm-7.71-6.41c-2,0-2,.14-2-1.92,0-5.19,0-10.39,0-15.58,0-5,0-9.91,0-14.86,0-3-.36-2.53,2.72-2.63a22.79,22.79,0,0,1,6.18.57,10.29,10.29,0,0,1,7.72,7.14,32.75,32.75,0,0,1,1.25,13.49,23.51,23.51,0,0,1-1.15,5.85,10.79,10.79,0,0,1-9.24,7.59A38.83,38.83,0,0,1,554.6,361.54Z" transform="translate(-21.02 -11.01)"/><path d="M686.12,413.37q-2.73-13.5-5.47-27l-10.29-50.91c-1-5.09-2-10.18-3.05-15.26-.36-1.75-.4-1.76-2.17-1.78s-3.36,0-5,0-1.79,0-2.14,1.81q-2.94,14.67-5.84,29.34l-9.36,47c-1.21,6-2.4,12-3.64,18.28,2.69,0,5.24-.07,7.78,0,1.38.06,1.71-.51,1.9-1.75.87-5.44,1.9-10.86,2.77-16.29.17-1,.56-1.31,1.53-1.31q9.46,0,18.95,0c1.05,0,1.5.28,1.71,1.42,1,5.57,2.2,11.11,3.26,16.68.16.85.43,1.25,1.35,1.24,2.55,0,5.1,0,7.89,0C686.2,414.16,686.2,413.75,686.12,413.37Zm-23.88-77.73.45-2.59,9.17,54.36h-18.7" transform="translate(-21.02 -11.01)"/><path d="M408.28,352.38c-14.91.45-30.67,13.3-30.42,31.36.1,17.7,13.84,31.16,31.67,31.12a31.24,31.24,0,0,0,31.2-31.4C440.69,366.6,425.57,351.86,408.28,352.38ZM416,406.73a23.73,23.73,0,0,1-30.38-23.48c.16-10.12,6-19,15-22.14,15.28-5.33,29.33,3.56,32,18.11C434.86,391.24,427.5,403.42,416,406.73Z" transform="translate(-21.02 -11.01)"/><path d="M374.62,380a24.68,24.68,0,0,0-7.69-15.82c-5.78-5.35-12.75-8-20.49-8.76-5.17-.5-10.38-.27-15.57-.28-2.07,0-2.09,0-2.09,2.11q0,13.91,0,27.81t0,27.57c0,2.42-.34,2.26,2.34,2.26h12a36.43,36.43,0,0,0,13.31-2.49c8.39-3.27,14.56-8.78,17.19-17.68A36.79,36.79,0,0,0,374.62,380Zm-8.22,12c-2,7.61-7.21,12-14.44,14.24-4.53,1.43-9.21,1.7-13.92,1.85-1.29,0-1.61-.45-1.61-1.66.05-7.19,0-14.37,0-21.56q0-10.41,0-20.84c0-1.9,0-1.91,2-1.92a39.85,39.85,0,0,1,17.42,3.35c7.15,3.34,10.57,9.16,11.22,16.8A28.78,28.78,0,0,1,366.4,392Z" transform="translate(-21.02 -11.01)"/><path d="M132.29,227.86a8.1,8.1,0,0,1-10.67-1.8,18.62,18.62,0,0,1-3.55-8.79,39.46,39.46,0,0,1,2.55-21.6c.92-2.24,1.55-4.53.81-7a6.16,6.16,0,0,0-2-3.18A2.46,2.46,0,0,0,117,185a2.13,2.13,0,0,0-1.29,2.11,6.61,6.61,0,0,0,.26,2.61,6.62,6.62,0,0,1,.32,1.64,1.5,1.5,0,0,1-1.17,1.61,1.52,1.52,0,0,1-1.8-.81c-1.22-1.9-1.08-6.43.24-8.32s3.9-2.5,6.42-1.33a8.54,8.54,0,0,1,4.58,8.76,18.62,18.62,0,0,1-1.54,5.51,42,42,0,0,0-3.51,19.37,18.31,18.31,0,0,0,.87,4.7c1.41,4.44,3.86,6.43,8.47,6.83C129.83,227.78,130.86,227.79,132.29,227.86Z" transform="translate(-21.02 -11.01)"/><path d="M50.08,228c2-.33,3.63-.24,5.27-.55a7.77,7.77,0,0,0,5.58-4.1,16.08,16.08,0,0,0,1.9-7.11,41.89,41.89,0,0,0-3.48-19.38C58.1,194,57.32,191.1,58,188a7.62,7.62,0,0,1,6.11-6,4.57,4.57,0,0,1,5.35,3.32,11.07,11.07,0,0,1-.29,6.37c-.29,1-.93,1.55-1.95,1.29a1.58,1.58,0,0,1-1.16-2.05,14.53,14.53,0,0,0,.57-3.29c-.06-1.07-.15-2.17-1.29-2.61a2.63,2.63,0,0,0-3,.95,7.17,7.17,0,0,0-1.75,6A19.1,19.1,0,0,0,62,196.54a38.44,38.44,0,0,1,1.78,22.81A16.85,16.85,0,0,1,60.71,226,8.16,8.16,0,0,1,50.08,228Z" transform="translate(-21.02 -11.01)"/><path d="M156.16,127.12a19.32,19.32,0,0,0-5.95-9.64,46.18,46.18,0,0,0-15.51-9.25,85.15,85.15,0,0,0-34-5.38l-2.88.11c-.57,0-.84-.23-.85-.85s.14-1.09.91-1.06c.48,0,1,0,1.44,0a54.54,54.54,0,0,0,12.62-1A50,50,0,0,0,131,92.33a24.32,24.32,0,0,0,6.15-6,13.09,13.09,0,0,0,.32-15.47,24.08,24.08,0,0,0-4.42-5,54.84,54.84,0,0,0-13.55-8.46c-1.57-.74-3.16-1.43-4.7-2.13A40.78,40.78,0,0,1,118.46,44a12.85,12.85,0,0,1,8.23-6.8c.84-.23,1.65-.58,2.48-.85a6,6,0,0,0,4.19-4.8,21.94,21.94,0,0,0,.34-7.87c-.85-6.5-4.33-10.28-10.71-11.93a27.69,27.69,0,0,0-11.88-.17c-11.08,2-20.79,6.93-29.54,13.86a58.5,58.5,0,0,0-16,18.88c-5,9.56-6.2,19.55-3.15,29.94,3.57,12.14,11,20.67,23.3,24.65a36.31,36.31,0,0,0,5.55,1.38c1,.16,1.54.46,1.48,1.68s-1.42,1.61-1.42,1.61-1.09.24-1.64.32a77.79,77.79,0,0,0-28.23,9.79c-16.08,9.37-26.75,23.22-33.16,40.49-6.75,18.17-8,37.05-6.95,56.19A233.71,233.71,0,0,0,25,240.07c1.68,9.26,3.56,18.48,6.69,27.4,3.49,9.93,8,19.32,14.87,27.41,10.42,12.31,23.39,18.26,39.66,15.3a45.53,45.53,0,0,0,22-10.3,85.06,85.06,0,0,0,22.1-28.74c.79-1.65,4.16-9.75,3.28-9.72C117.62,288.83,106.14,297,106.14,297s-7.46,5.41-11.93,6.83c-7.81,2.48-15.69,3.51-23.76,1.36C62,303,55.25,298,49.73,291.36A72,72,0,0,1,37,267.42a220.28,220.28,0,0,1-10.22-48.6c-1.26-13.77-.94-27.45,2-41q9.26-42.6,48.94-60.73a50.89,50.89,0,0,1,15-4,6.75,6.75,0,0,1,.24,2.41Q93,120.77,93,126c.15,19.18,1.56,57.51,1.56,57.51l.85,3.83s.34-4,.41-6c.56-14.54,1.08-29.08,1.11-43.63q0-11.64.1-23.27c0-1.9,0-1.94,2-1.93,3.75,0,7.49,0,11.25.35A90.89,90.89,0,0,1,131,117.34a43.61,43.61,0,0,1,12.55,6.29c2.5,1.91,4.68,4,4.74,7.61a4,4,0,0,0,4.06,3.9,4.24,4.24,0,0,0,4-4A11.78,11.78,0,0,0,156.16,127.12ZM96.94,92.66c0-.4,0-.8,0-1.2q-.24-14.14-.5-28.3a9.4,9.4,0,0,0,0-1.19c-.17-1.12-1.1-2.1-2-2a2.31,2.31,0,0,0-2.07,1.74,5.28,5.28,0,0,0-.06,1.9c.28,9.11.32,18.23.36,27.34v1.81C79.72,89.66,71.36,80.18,70,67.38a50.17,50.17,0,0,1,3.67-25.79c5.7-13.14,16.05-20.92,29.71-24.5a35.13,35.13,0,0,1,18-.48,15.47,15.47,0,0,1,5.61,2.56,7.31,7.31,0,0,1,2.73,8.49A17,17,0,0,1,126,33.79a42.06,42.06,0,0,1-5.57,5.27,35.49,35.49,0,0,0-6.53,6.31c-1,1.38-1.64,2.7-.87,4.62.56,1.4.22,3.15.3,4.74,0,.74-.51.91-1,1.15a3.91,3.91,0,0,0-2.46,4c.16,2,1.47,3,3.24,3.75a49.4,49.4,0,0,1,11.55,6.18,19.67,19.67,0,0,1,4.43,4.35c2.49,3.54,2.53,7-.12,10.4a22.74,22.74,0,0,1-12.05,8.21,46.08,46.08,0,0,1-19,1.11C97.08,93.77,96.89,93.4,96.94,92.66Z" transform="translate(-21.02 -11.01)"/><path d="M97.79,55.36a12.77,12.77,0,0,0-.84-1.7,1.24,1.24,0,0,1,.67-1.93,6,6,0,0,0,2.23-1.28,5.3,5.3,0,0,0-3.52-.89,2.69,2.69,0,0,0-2.6,1.77,7.48,7.48,0,0,0,.21,5.58,2.09,2.09,0,0,0,3.85-1.55Z" transform="translate(-21.02 -11.01)"/><path d="M90.27,69.88a3.34,3.34,0,0,0-1.66.06A24.64,24.64,0,0,0,81.48,73l3.35.89a12.89,12.89,0,0,0,5.46-.17,1.71,1.71,0,0,0,1.44-1.92A1.79,1.79,0,0,0,90.27,69.88Z" transform="translate(-21.02 -11.01)"/><path d="M98.84,64.76a2,2,0,0,0,2.46,1.71,13.76,13.76,0,0,0,6.46-3,13.28,13.28,0,0,0-7.05-1A2,2,0,0,0,98.84,64.76Z" transform="translate(-21.02 -11.01)"/><path d="M98.42,69.34a2.17,2.17,0,0,0,.77,2.72c1.72,1,3.6.84,5.6-.71a44.76,44.76,0,0,0-3.48-2.82A2.08,2.08,0,0,0,98.42,69.34Z" transform="translate(-21.02 -11.01)"/><path d="M87.12,67.63a7.85,7.85,0,0,0,1.11.28c.52-.11,1-.17,1.44-.31a2,2,0,0,0,1.48-2.71,2,2,0,0,0-3-1,12.77,12.77,0,0,0-1.42.86c-.59.39-1.45.72-1.39,1.49S86.41,67.33,87.12,67.63Z" transform="translate(-21.02 -11.01)"/></svg>