<svg id="Camada_1" data-name="Camada 1" xmlns="http://www.w3.org/2000/svg" viewBox="0 0 811.31 330"><defs><style>.cls-1{fill:#3b7f3c;}</style></defs><path class="cls-1" d="M226.25,232.34l-.91,2h-6.15V213.11H185.47V336h33.72V279.1c0-16.3,7.13-25.64,13.09-30.62,8-6.67,18.88-9.67,30.28-8.45V211.31a45.52,45.52,0,0,0-7.74-.45C242.48,210.82,232.34,218.45,226.25,232.34Z" transform="translate(-9.4 -10.08)"/><path class="cls-1" d="M499.2,209.06c-18.25,0-31.58,7.08-39.6,21.06l-1,1.74h-5.9V213.11H418.93V336h33.71V264.41c0-19.16,9.59-29.29,27.77-29.29,16.38,0,23.68,9.13,23.68,29.54V336h33.77V251.74C537.86,225,523.34,209.06,499.2,209.06Z" transform="translate(-9.4 -10.08)"/><path class="cls-1" d="M620.82,316.45c-18.77,0-29.53-15.29-29.53-41.91,0-12.89,2.49-23,7.37-30.29a25.64,25.64,0,0,1,22.16-11.64c13.91,0,23.26,8,26,22h33c-4.76-28.24-27.31-45.59-59.7-45.59-37.36,0-62.48,26.31-62.48,65.48,0,39.78,24.92,65.48,63.48,65.48,32.59,0,55.31-18,58.85-46.1h-33C644.27,308.49,635.12,316.45,620.82,316.45Z" transform="translate(-9.4 -10.08)"/><path class="cls-1" d="M255.92,142.85c0,13.42-9,26.94-29.26,26.94-12.5,0-19.64-6.76-19.64-18.62,0-10.91,7.83-18,24-21.56,9.17-2,15.4-3.73,20.26-5.66l4.68-1.88Zm33.71,28.09V111.38c0-36.12-15.94-51.54-53.36-51.54-31.92,0-52.2,12.59-56.91,34.9-.24,1.15-.46,2.32-.61,3.54v.14l1.37.45A52.82,52.82,0,0,0,195.69,101q7.09,0,11.15-2.12a9.76,9.76,0,0,0,4.42-4.47,7.75,7.75,0,0,1,.44-1.07A18.58,18.58,0,0,1,216.19,87a8.22,8.22,0,0,1,.85-.73c4.42-3.61,10.72-5.37,19-5.37,17.93,0,19.91,10.91,19.91,15.6,0,13.08-16.08,16.21-33.09,19.5l-2.88.56C187.66,123,173.28,135.45,173.28,157c0,20.84,15,33.8,39.15,33.8,17.6,0,31.59-8.9,38.25-16.54l1-1.18h5.49v3.44c0,9.62,6.51,14.31,19.92,14.31a61.94,61.94,0,0,0,20.13-3.05v-4.2C293.26,182.55,289.63,179.31,289.63,170.94Z" transform="translate(-9.4 -10.08)"/><path class="cls-1" d="M629.56,142.85c0,13.42-9.08,26.94-29.29,26.94-12.47,0-19.64-6.76-19.64-18.62,0-10.91,7.83-18,24-21.56,9.18-2,15.45-3.73,20.26-5.66l4.71-1.88Zm33.68,28.09V111.38c0-36.12-15.94-51.54-53.35-51.54-31.9,0-52.21,12.59-56.92,34.9-.24,1.15-.44,2.32-.61,3.54v.14l1.39.45A52.6,52.6,0,0,0,569.3,101q7.14,0,11.15-2.12a9.62,9.62,0,0,0,4.44-4.47c.13-.39.27-.73.42-1.07A19,19,0,0,1,589.82,87a5.1,5.1,0,0,1,.86-.73c4.39-3.61,10.69-5.37,18.94-5.37,18,0,19.92,10.91,19.92,15.6,0,13.08-16.09,16.21-33.08,19.5l-2.9.56C561.29,123,546.89,135.45,546.89,157c0,20.84,15,33.8,39.15,33.8,17.62,0,31.61-8.9,38.25-16.54l1-1.18h5.49v3.44c0,9.62,6.5,14.31,19.89,14.31a62,62,0,0,0,20.14-3.05v-4.2C666.9,182.55,663.24,179.31,663.24,170.94Z" transform="translate(-9.4 -10.08)"/><path class="cls-1" d="M779.39,292c0,13.44-9.06,27-29.29,27-12.49,0-19.65-6.76-19.65-18.62,0-10.9,7.84-18,24-21.54,9.18-2,15.4-3.74,20.26-5.67l4.71-1.88Zm33.68,28.16V260.6c0-36.14-15.94-51.54-53.35-51.54-31.9,0-52.21,12.57-56.9,34.87a29.21,29.21,0,0,0-.6,3.57v.12l1.34.44a52.21,52.21,0,0,0,15.57,2.12c4.73,0,8.47-.71,11.15-2.12a9.56,9.56,0,0,0,4.42-4.46,7.88,7.88,0,0,1,.44-1.08,18.55,18.55,0,0,1,4.57-6.35,4.66,4.66,0,0,1,.85-.73q6.59-5.37,18.94-5.35c18,0,19.91,10.92,19.91,15.58,0,13.08-16.08,16.2-33.09,19.5l-2.88.59c-32.29,6.44-46.67,18.91-46.67,40.46,0,20.87,15,33.83,39.15,33.83,17.62,0,31.61-8.91,38.24-16.57l1-1.18h5.46v3.44c0,9.62,6.52,14.33,19.92,14.33A62,62,0,0,0,820.7,337v-4.2C816.71,331.75,813.07,328.52,813.07,320.13Z" transform="translate(-9.4 -10.08)"/><path class="cls-1" d="M355.3,292c0,13.42-9.05,27-29.25,27-12.5,0-19.65-6.76-19.65-18.62,0-10.9,7.83-18,24-21.54,9.18-2,15.45-3.74,20.26-5.67l4.68-1.88ZM389,320.13V260.6c0-36.14-15.94-51.54-53.35-51.54-31.93,0-52.21,12.57-56.92,34.87-.24,1.15-.46,2.35-.6,3.57v.12l1.36.44a52.21,52.21,0,0,0,15.57,2.12q7.1,0,11.16-2.12a9.58,9.58,0,0,0,4.41-4.46c.12-.37.3-.74.44-1.08a18.54,18.54,0,0,1,4.49-6.37,9.42,9.42,0,0,1,.85-.73c4.42-3.59,10.72-5.34,19-5.34,17.94,0,19.89,10.9,19.89,15.57,0,13.08-16.06,16.2-33.07,19.5l-2.91.58c-32.26,6.44-46.66,18.92-46.66,40.46,0,20.85,15,33.83,39.17,33.83,17.6,0,31.59-8.93,38.22-16.57l1-1.17h5.49v3.44c0,9.61,6.51,14.33,19.89,14.33A61.92,61.92,0,0,0,396.6,337v-4.2C392.65,331.75,389,328.52,389,320.13Z" transform="translate(-9.4 -10.08)"/><path class="cls-1" d="M438.43,186.75V102.53c0-26.73-14.45-42.69-38.66-42.69-18.23,0-31.55,7.1-39.61,21.08l-1,1.72h-5.9V63.89H319.57V186.75h33.71V115.19c0-19.13,9.59-29.26,27.75-29.26,16.4,0,23.7,9.1,23.7,29.51v71.31Z" transform="translate(-9.4 -10.08)"/><path class="cls-1" d="M472.4,147.63c0,30.19,9.4,41.41,34.61,41.41a99.44,99.44,0,0,0,21.68-2.16v-24.2c-14.6-.09-22.58-1.26-22.58-18.1V87.46h22.58V63.89H506.11V27.67H472.4V63.89h-18V87.46h18Z" transform="translate(-9.4 -10.08)"/><path class="cls-1" d="M131.16,246.35l-2.83-.49V240l2.32-.78c17.1-5.78,25.77-17.67,25.77-35.19a47.57,47.57,0,0,0-3-17.72A32.33,32.33,0,0,0,146.9,176c-.47-.51-1-1-1.46-1.49s-1-.87-1.49-1.34a45.73,45.73,0,0,0,10.93-19.86,59.06,59.06,0,0,0,1.81-14.75c0-34.77-30.29-45.93-66.9-55.88-11.52-3.23-21-5.87-27.41-9.67-5.93-3.49-9.27-7.93-9.27-14.7,0-11.17,10.4-17.83,27.72-17.83,15.35,0,26.63,5.88,31.78,16,.27.51.51,1,.74,1.54a11.46,11.46,0,0,0,4,4.21c3.44,2.28,8.52,3.4,15.26,3.4a72.66,72.66,0,0,0,11.22-.81,59.45,59.45,0,0,0,10-2.39v-.68c-.12-1.32-.34-2.61-.54-3.88C148.1,28.94,120,10.08,80.76,10.08c-24.82,0-66.46,6.68-66.46,51.49a46.5,46.5,0,0,0,1.95,13.82C23,97.23,45.91,107,70.37,114.19c3.43,1,6.68,2,9.88,2.83,15.91,4.52,29.26,8.35,34.85,16.43a15.75,15.75,0,0,1,2.81,9.32c0,5.06-2.3,10.3-8,14a30.25,30.25,0,0,1-11.67,4.29,53.81,53.81,0,0,1-8.76.85h-2c-11-.12-20-2.29-26.53-6.17a26.25,26.25,0,0,1-9.1-8.83A24.57,24.57,0,0,1,49.13,140c-.1-.52-.25-1-.36-1.54a11.89,11.89,0,0,0-1.5-2.95,9.85,9.85,0,0,0-2.37-2.49,14.87,14.87,0,0,0-4.9-2.54,35.57,35.57,0,0,0-10.47-1.37,62.83,62.83,0,0,0-20.13,3v3.46A54,54,0,0,0,16,158.83c.37.59.69,1.17,1.07,1.78s.61.91.93,1.34c7,10.87,18.19,19.23,32.71,24.34a101.6,101.6,0,0,0,21,4.88,126.4,126.4,0,0,0,16.82,1.05h3c11.25,0,26.21,2.22,26.21,21.38a18.85,18.85,0,0,1-.15,3C116.1,233,102.14,235,91.5,235H56.67V231.1a20.75,20.75,0,0,0-12.23-18.94c-10.32-4.69-20.15-8.3-26.5-18.28V336h87c39.44,0,58.62-16.37,58.62-50,0-29.6-20.25-37.53-32.36-39.63ZM92.77,305.59H56.69V256H92.77c16.62,0,32,3,32,24.67C124.79,302.56,109.39,305.59,92.77,305.59Z" transform="translate(-9.4 -10.08)"/></svg>