<svg id="Camada_1" data-name="Camada 1" xmlns="http://www.w3.org/2000/svg" viewBox="0 0 817.34 300"><defs><style>.cls-1{fill:#e8aa40;}.cls-2{fill:#3b7f3c;}</style></defs><path class="cls-1" d="M174.31,244.86l.69.24a5,5,0,0,0,5.65-2.83c.71-1.9,1.43-3.79,1-5.45A152.39,152.39,0,0,0,174.78,214a7.84,7.84,0,0,0-3.3-3.55,4.74,4.74,0,0,0-6.11.94c-1.18,1.43-2.12,2.83-1.87,4,2.12,8.49,4.93,16.74,8.45,26.89,0,1.16.94,2.12,2.36,2.59" transform="translate(-5.08 -7.12)"/><path class="cls-1" d="M73.2,54.79A4.63,4.63,0,0,0,80,51.49c.22-2.11.47-3.77-.24-5A198.71,198.71,0,0,0,64.26,23.2c-1.15-1.65-6.1-2.6-7.26-1.9-3.31,2.14-3.53,6.38-2.59,8A253.28,253.28,0,0,0,71.55,53.61c.47.25,1,.72,1.65,1.18" transform="translate(-5.08 -7.12)"/><path class="cls-1" d="M39.36,133.09a5,5,0,0,0-3.77-1.9c-9.64.25-17.64,0-25.38,1.19-1.65.24-3.06,2.83-4.48,5.19a3.75,3.75,0,0,0,.93,5.17c1.9,1.18,4,2.37,5.89,2.37a105.28,105.28,0,0,0,21.38-3.55c2.6-.69,5-3.52,6.14-5.88.69-.72,0-1.9-.71-2.59" transform="translate(-5.08 -7.12)"/><path class="cls-1" d="M194.29,199.58a5.7,5.7,0,0,0-1.18-.71,5.45,5.45,0,0,0-7,5.89,4.38,4.38,0,0,0,.46,1.89,212.71,212.71,0,0,0,16.22,22.17,3.84,3.84,0,0,0,1.65.94,5.75,5.75,0,0,0,7.53-4.71,2.3,2.3,0,0,0-.24-2.12c-2.34-4.48-13.87-20.29-17.4-23.35" transform="translate(-5.08 -7.12)"/><path class="cls-1" d="M245.54,122.69c4.24.25,13.18-.46,13.18-6.13.22-6.6-5.18-5.42-9.41-5.42-6.11,0-12.47-.69-18.58-.22a21,21,0,0,0-9.87,3.06c-.94.46-.69,5.9.24,6.37,3.06,1.41,6.82,1.65,10.1,2.34a94.25,94.25,0,0,1,14.34,0" transform="translate(-5.08 -7.12)"/><path class="cls-1" d="M70.15,195.57a6,6,0,0,0-6.82-.24,13.19,13.19,0,0,0-1.87,1.42c-4.94,4.48-10.11,8.72-14.59,13.45-1.87,2.12-2.59,5.42-3,8.25,0,.94,3,3.52,4,3.06,2.58-.72,4.95-2.59,7.06-4.48A182.8,182.8,0,0,0,68.5,203.82,11,11,0,0,0,71.33,197c.22-.47-.24-.94-1.18-1.41" transform="translate(-5.08 -7.12)"/><path class="cls-1" d="M56.28,70.11a4.14,4.14,0,0,0,5.89-3.3c.22-2.12.22-4-.71-4.7A198.52,198.52,0,0,0,38.18,43.46c-.94-.69-3.06,0-5.18.71a4.18,4.18,0,0,0-2.59,5.21,8.22,8.22,0,0,0,2.36,4.23C39.58,59,46.87,64,54.16,68.93a8.35,8.35,0,0,0,2.12,1.18" transform="translate(-5.08 -7.12)"/><path class="cls-1" d="M73.2,234c-1.65,3.3.25,7.77,4,8.26h.71c2.34-.25,5.89-2.14,6.83-4a213.87,213.87,0,0,0,8.91-23.1A7.86,7.86,0,0,0,92,208.77c-1-.94-5.18-.47-5.64.47-4.24,7.32-8.23,15.1-13.19,24.77" transform="translate(-5.08 -7.12)"/><path class="cls-1" d="M106.59,218.45a188.56,188.56,0,0,0-3.52,23.11,6.07,6.07,0,0,0,.71,2.58,4.8,4.8,0,0,0,6.33,1.65c1.43-.93,2.83-1.87,3.06-3a145.09,145.09,0,0,0,4.71-24.53,3.49,3.49,0,0,0-.47-2.12,4.94,4.94,0,0,0-8-1.65,11.42,11.42,0,0,0-2.83,4" transform="translate(-5.08 -7.12)"/><path class="cls-1" d="M247.44,83.09c.46-2.12-1-3.3-3.3-3.3a43.66,43.66,0,0,0-5.89.47,100.69,100.69,0,0,0-16.21,4,32.71,32.71,0,0,0-6.83,3.53c-1.87,1.18-2.81,3.3-1.65,4.25,1.43,1.19,2.59,2.37,4.48,2.12a124.94,124.94,0,0,0,19.74-2.83c2.59-.71,6.11-3,8.47-5.19a5.93,5.93,0,0,0,1.19-3.06" transform="translate(-5.08 -7.12)"/><path class="cls-1" d="M185.6,22.48c2.81-6.36-6.58-11.31-10.6-5.42-.46.71-.93,1.65-1.62,2.59-2.59,5-4.49,10.14-7.54,14.87-2.34,3.77-5.39,7.29-.47,10.12,1.65,1,6.58-1.87,8.7-4.23,4.24-5.2,7.54-11.08,11.06-17a1.32,1.32,0,0,0,.47-1" transform="translate(-5.08 -7.12)"/><path class="cls-1" d="M25.71,190.62c0,5.42,5.17,8,10.12,5.17a196.44,196.44,0,0,0,17.86-11.08c1.65-1.16,2.83-4.46,2.59-6.82-.24-1.19-4.24-3.3-5.64-2.84-7.76,3.55-15.52,7.54-23,11.8-1.18.7-1.4,2.84-1.89,3.77" transform="translate(-5.08 -7.12)"/><path class="cls-1" d="M211.69,35.46a3.88,3.88,0,0,0-6.11-.72c-5.89,4.95-11.76,9.68-17.17,14.86-1.65,1.43-2.34,4.26-2.34,6.38,0,1.18,2.81,3.29,4,3.29A10.69,10.69,0,0,0,195.94,56c4-3.77,7.77-8,11.51-12.27a24.83,24.83,0,0,0,4.48-6.36,2.81,2.81,0,0,0-.24-1.89" transform="translate(-5.08 -7.12)"/><path class="cls-1" d="M126.1,12.35a5.32,5.32,0,0,0-8-4.48c-1.88,1.41-2.59,4-2.59,9.66a100,100,0,0,0,1.41,13.91c.47,3.55,2.36,9.21,4.46,9.68,5.88.69,5.42-4.73,5.17-8.74,0-6.6-.22-13.2-.47-20" transform="translate(-5.08 -7.12)"/><path class="cls-1" d="M145.61,217a3.79,3.79,0,0,0-4.45-3.3c-5.65.93-5.65,2.11-4.71,10.61.47,4.23,0,9.67.71,14.38.7,3.55,2.81,9.19,4.71,9.43,5.86.47,5.17-4.94,4.93-9-.23-7.32-.69-14.61-1.19-22.16" transform="translate(-5.08 -7.12)"/><path class="cls-1" d="M86.61,12.11A5.1,5.1,0,0,0,83.8,19c3,7.54,6.11,15.08,9.39,22.39.46,1,1.64,1.43,3,1.65a4.08,4.08,0,0,0,5-2.58c.7-1.65,1.16-3.06.7-4.24-2.35-7.09-5.41-13.91-8.46-21.23a5.19,5.19,0,0,0-6.82-2.83" transform="translate(-5.08 -7.12)"/><path class="cls-1" d="M33.47,114.69a9.17,9.17,0,0,0,3.3-2.83,4.19,4.19,0,0,0-1.65-6.13,8.82,8.82,0,0,0-3.28-.94c-4.48-.47-8.94.22-13.4.71-3.31.23-6.6.47-9.41,1.65-.94.47-1.41,5.18-.47,5.64,2.58,1.9,5.86,2.84,8.92,3.77,1.18.49,12.46-.47,16-1.87" transform="translate(-5.08 -7.12)"/><path class="cls-1" d="M143,35c-.69,2.83,1.65,5.66,4.48,4.95,1.87-.47,4.24-1.9,4.93-3.3A200.58,200.58,0,0,0,158.55,14c.25-1.65-1.65-4.48-3.53-5.44-1.4-.69-5.64.25-7,5.44-1.87,7.55-2.59,10.85-4.95,21" transform="translate(-5.08 -7.12)"/><path class="cls-1" d="M19.6,82.62c4.7,1.65,9.16,3.3,14.11,4.71a18,18,0,0,0,8,.47c1-.23,2.58-4,2.12-4.46a19.12,19.12,0,0,0-6.34-5.2A89.58,89.58,0,0,0,21,71.76c-1.9-.47-5.18,1.65-7.08,3.55-.22.24-.22.47-.47.47-1.64,2.58.47,6.13,3.53,6.6a3.65,3.65,0,0,1,2.59.24" transform="translate(-5.08 -7.12)"/><path class="cls-1" d="M225.09,207.83c2.12.94,4.71-.71,5.17-3.07.47-2.12-.93-6.36-1.65-7.29-5.39-6.63-9.63-10.15-16-15.57-1.65-1.18-7.51.22-8,1.88-.93,2.83-.24,8,1.65,9.9,5.64,5.19,12,9.43,18.33,13.91.23,0,.23.24.47.24" transform="translate(-5.08 -7.12)"/><path class="cls-1" d="M205.33,66.12a4.58,4.58,0,0,0,2.59,7.07c1.43.22,2.36.47,3.05,0a113.15,113.15,0,0,0,18.58-13c.94-.69.94-2.83.71-4.7a3.12,3.12,0,0,0-3-3.08,8.06,8.06,0,0,0-4.24.71,157.06,157.06,0,0,0-15.05,10.37,9.26,9.26,0,0,0-2.59,2.61" transform="translate(-5.08 -7.12)"/><path class="cls-1" d="M17.48,161.61a4.32,4.32,0,0,0,.47,7.31c1.18.72,2.12,1.18,2.83.94A143.39,143.39,0,0,0,42.41,163c1.18-.49,1.65-2.37,2.12-4.26A3,3,0,0,0,42.41,155a9.15,9.15,0,0,0-4.23-.72,148.64,148.64,0,0,0-17.4,5.45,12.24,12.24,0,0,0-3.3,1.87" transform="translate(-5.08 -7.12)"/><path class="cls-1" d="M219.45,170.57c4.24,2.59,14.34,5.89,22.35,8.72a3.75,3.75,0,0,0,4.68-2.34c2.11-5.44-13.88-12-21.39-14.87-5.17-1.87-10.82,5.19-5.64,8.49" transform="translate(-5.08 -7.12)"/><path class="cls-1" d="M246.25,150.3a7.49,7.49,0,0,0,5.64-2.61,4.21,4.21,0,0,0,1.19-2.58c0-1.65-2.37-4-4-4.24a120.23,120.23,0,0,0-20.67-2.14c-2.36,0-6.13,3.08-7.07,5.19-.46,1.43,2.59,5.42,4.49,5.67,6.57.93,13.15.71,20.44.71" transform="translate(-5.08 -7.12)"/><path class="cls-2" d="M349.46,128.6V143c31-.94,43.5-14.63,43.5-47.17,0-23.35-8-38.66-22.09-38.66-25.4,0-21.41,41.25-21.41,71.44m-46.79-78h68.2c27.49,0,59.94,8.25,59.94,46.44S392,149.59,367.1,149.59H349.7c.23,23.57,2.12,45.51,9.63,50.46,3.31,1.88,3.31,6.6,0,6.6H302.67c-3.28,0-2.81-5,0-6.6,9.41-5.66,8.94-41.27,8.94-71.45S313,63,302.67,57.16c-2.81-1.9-3.28-6.6,0-6.6" transform="translate(-5.08 -7.12)"/><path class="cls-2" d="M468,179.07c0,5.42,3.52,20.05,17.39,20.05,19.52,0,23.29-23.82,23.29-39.16,0-7.79.24-15.32.24-22.39-5.65,5.17-14.12,8.72-22.34,12.24-10.82,5-18.58,12.27-18.58,29.26m11.53-33.72c14.09-5.66,28.21-7.31,29.15-20.29-.72-16.26-4-27.59-16.22-27.59-12,0-15.52,14.63-19.29,23.57-3.52,8.5-10.1,11.8-16.46,11.8-8.47,0-16.7-6.36-17.17-15.79C438.34,93.46,476,90.63,491.93,90.63,518,90.63,546.48,102,546.48,146c0,19.12-1.16,47.41,9.41,53.54,2.83,1.88,3.3,6.83-8.7,6.83-24.21,0-33.38-8.25-36.68-19.33-5.4,11.55-15.5,19.33-32.92,19.33-29.86,0-47.25-12.49-47.25-28.52-.22-20,33.38-26.18,49.15-32.54" transform="translate(-5.08 -7.12)"/><path class="cls-2" d="M570,94.89l40.68-3.55a5.94,5.94,0,0,1,6.58,6.13V118c7-17.22,23.5-27.12,41.85-27.12,35.73,0,30.56,37.26,7,37.26-16.7,0-15.74-21.69-27.74-21.69-14.59,0-21.16,31.82-21.41,34v5.89c0,19.09-1.16,47.63,9.41,53.76,2.84,1.88,3.3,6.6,0,6.6H569.76c-3.28,0-2.81-5,0-6.6,9.16-5.66,9.41-25.46,9.41-36.79V132.84c0-11.55-.72-26.18-9.41-31.35-2.59-1.65-3.06-6.38.24-6.6" transform="translate(-5.08 -7.12)"/><path class="cls-2" d="M688,52l40.92-5.19c3.76-.48,6.1,1.89,6.1,5.66v73.81c9.88-18.62,23.29-35.37,46.1-35.37,27.74,0,27.74,31.36,4.46,31.36-12.47,0-17.39-12-24.93-12-9.63,0-20.7,20-24.22,28.05,8,3.08,20.23,2.61,28,2.36a5.7,5.7,0,0,1,3.53,1.9c1.87,2.34,5.42,6.6,11.53,15.32,15.74,20.76,31,38.67,40.2,42.44,4,1.89,3.28,6.59,0,6.59H763c-3.3,0-4-5.41,0-6.59,8.23-3.06-5.89-19.56-18.82-38.2-3.28-4.48-6.58-9-9.17-13v6.6c0,10.15-1.18,38.42,9.41,44.8,2.82,1.9,3.29,6.6,0,6.6H687.79c-3.3,0-2.83-5,0-6.6,9.17-5.66,9.41-21,9.41-33.25v-75c0-13.42-1.43-28.77-9.41-33.47-2.83-1.9-3.3-6.38.23-6.85" transform="translate(-5.08 -7.12)"/><path class="cls-2" d="M570.7,295.32H559.19V279.51H570.7c5.41,0,10.34,1,10.34,7.78-.22,7.09-5.17,8-10.34,8m-11.76-38.45H570c4.46.25,8.45,2.61,8.45,8.73s-4.7,6.84-8.22,6.84h-11ZM583.16,276l-.69-.25v-1.65l.69-.22c5.64-1.9,8.47-5.91,8.47-11.8,0-4.48-1.42-7.78-4-10.15,0,0-2.36-4.7-17.17-5.17s-24.46,0-24.46,0l.25,58.47h28.45c12.93,0,19.27-5.42,19.27-16.5-.23-9.44-6.83-12-10.82-12.73" transform="translate(-5.08 -7.12)"/><path class="cls-2" d="M623.36,264.43c-4,0-7.51,2.59-9.4,7.07l-.23.47h-1.65v-6.84H600.8v40.56h11.28V287.07a12.54,12.54,0,0,1,4.24-9.9,13.63,13.63,0,0,1,9.64-2.83h.24v-9.69H626a12.42,12.42,0,0,0-2.6-.22" transform="translate(-5.08 -7.12)"/><path class="cls-2" d="M702.6,263.72c-6.11,0-10.35,2.36-12.93,7.07l-.23.47h-1.65v-6.13H676.51v40.56h11.28V282.12c0-6.13,3.06-9.43,8.94-9.43,5.15,0,7.52,2.83,7.52,9.43v23.35h11.28V277.86c0-8.72-4.92-14.14-12.93-14.14" transform="translate(-5.08 -7.12)"/><path class="cls-2" d="M750.57,291.77c-.94,4.73-3.77,7.32-8.24,7.32-5.88,0-9.4-4.95-9.4-13.45,0-4.24.71-7.54,2.36-9.65a8.22,8.22,0,0,1,7-3.77c4.47,0,7.3,2.58,8.24,7.06v.23h11v-.23c-1.62-9.2-9.16-15.09-19.51-15.09-12.22,0-20.45,8.72-20.45,21.45,0,13.2,8.23,21.48,20.92,21.48,10.59,0,18.11-5.91,19.29-15.1v-.25Z" transform="translate(-5.08 -7.12)"/><path class="cls-2" d="M363.58,288.94c0-11.55-9.89-15.07-21.88-18.37-7.05-1.9-11.76-3.3-11.76-7.79,0-3.54,3.3-5.66,8.94-5.66,5.87,0,9.64,2.58,10.82,6.82v.25h13.16v-.25a17,17,0,0,0-7.29-12.49c-4.22-3-10.1-4.7-16.69-4.7-8.22,0-21.87,2.12-21.87,17,0,10.62,8.94,14.63,18.35,17.44a23,23,0,0,0,3.28,1c4.95,1.4,9.41,2.58,11.29,5.17a7,7,0,0,1,.95,2.83c0,2.84-2.36,5.2-6.13,5.67a11.09,11.09,0,0,1-2.81.24h-.71a17.22,17.22,0,0,1-8.45-1.89,8.21,8.21,0,0,1-2.84-2.84,8.73,8.73,0,0,1-.93-2.12v-.46c-.22-.47-.22-.72-.47-1-.94-1.41-2.83-2.12-5.89-2.12a19,19,0,0,0-6.58,1h-.22v1.65a16,16,0,0,0,2.59,8l.22.24a.23.23,0,0,0,.24.23,21.23,21.23,0,0,0,10.82,8,46.43,46.43,0,0,0,6.8,1.65c1.65.22,3.3.22,5.18.47h1.18s11.28.47,17.4-6.6c3.52-4.24,3.3-11.33,3.3-11.33" transform="translate(-5.08 -7.12)"/><path class="cls-2" d="M386.14,299.56c-4,0-6.11-2.12-6.11-5.89,0-3.55,2.59-5.67,7.52-6.85a42.41,42.41,0,0,0,6.6-1.87l1.15-.49v6.62c0,4.24-2.8,8.48-9.16,8.48m8,1.89.22-.24h1.4v1c0,3.3,2.12,4.95,6.61,4.95a19.19,19.19,0,0,0,6.57-1h.23v-1.65H409c-1.65-.47-2.36-1.65-2.36-4v-19.8c0-12-5.17-17-17.62-17-11.06,0-17.88,4.71-19,13v.24H380.5v-.24c.71-3.77,3.52-5.64,8.23-5.64,5.64,0,6.35,3.3,6.35,4.95,0,4-5.17,5.17-10.59,6.13l-.93.22c-10.58,2.12-15.28,6.38-15.28,13.45,0,6.84,4.93,11.33,12.93,11.33a19.63,19.63,0,0,0,12.94-5.67" transform="translate(-5.08 -7.12)"/><path class="cls-2" d="M455,305.47V277.86c0-8.94-4.7-14.14-12.68-14.14-6.11,0-10.35,2.36-13.18,7.07l-.23.47h-1.64v-6.13H416v40.56h11.29V282.12c0-6.13,3-9.43,8.94-9.43,5.17,0,7.51,2.83,7.51,9.43v23.35Z" transform="translate(-5.08 -7.12)"/><path class="cls-2" d="M465.84,292.48c0,9.91,3.06,13.68,11.53,13.68a27.75,27.75,0,0,0,7.05-.69h.24v-8.28h-.24c-4.47,0-7.05-.22-7.05-5.64v-18.4h7.29v-8h-7.29V253.35H465.84v11.78H460v8h5.87Z" transform="translate(-5.08 -7.12)"/><path class="cls-2" d="M507.45,299.56c-4,0-6.11-2.12-6.11-5.89,0-3.55,2.59-5.67,7.54-6.85a42,42,0,0,0,6.58-1.87l1.16-.49v6.62c.24,4.24-2.57,8.48-9.17,8.48m8,1.89.22-.24h1.43v1c0,3.3,2.09,4.95,6.58,4.95a19.24,19.24,0,0,0,6.58-1h.24v-1.65h-.24c-1.65-.47-2.35-1.65-2.35-4v-19.8c0-12-5.17-17-17.64-17-11.06,0-17.86,4.71-19,13v.24h10.57v-.24c.71-3.77,3.53-5.64,8.23-5.64,5.64,0,6.35,3.3,6.35,4.95,0,4-5.17,5.17-10.56,6.13l-1,.22c-10.58,2.12-15.28,6.38-15.28,13.45,0,6.84,4.93,11.33,12.93,11.33a19,19,0,0,0,12.94-5.67" transform="translate(-5.08 -7.12)"/><path class="cls-2" d="M646.4,299.56c-4,0-6.11-2.12-6.11-5.89,0-3.55,2.59-5.67,7.54-6.85a41.71,41.71,0,0,0,6.58-1.87l1.16-.49v6.62c.24,4.24-2.81,8.48-9.17,8.48m8,1.89.22-.24h1.43v1c0,3.3,2.09,4.95,6.57,4.95a20.23,20.23,0,0,0,6.59-1h.24v-1.65h-.24c-1.65-.47-2.34-1.65-2.34-4v-19.8c0-12-5.18-17-17.64-17-11.07,0-17.87,4.71-18.83,13v.24H641v-.24c.69-3.77,3.53-5.64,8.24-5.64,5.64,0,6.33,3.3,6.33,4.95,0,4-5.15,5.17-10.57,6.13l-.94.22c-10.59,2.12-15.27,6.38-15.27,13.45,0,6.84,4.92,11.33,12.9,11.33a19.48,19.48,0,0,0,12.72-5.67" transform="translate(-5.08 -7.12)"/><path class="cls-2" d="M784.19,299.56c-4,0-6.13-2.12-6.13-5.89,0-3.55,2.59-5.67,7.54-6.85a41.71,41.71,0,0,0,6.58-1.87l1.18-.49v6.62c.22,4.24-2.59,8.48-9.17,8.48m8,1.89.24-.24h1.41v1c0,3.3,2.12,4.95,6.57,4.95a20.27,20.27,0,0,0,6.59-1h.24v-1.65H807c-1.66-.47-2.35-1.65-2.35-4v-19.8c0-12-5.17-17-17.63-17-11,0-17.87,4.71-18.8,13v.24h10.56v-.24c.72-3.77,3.53-5.64,8.24-5.64,5.64,0,6.35,3.3,6.35,4.95,0,4-5.17,5.17-10.6,6.13l-.93.22c-10.57,2.12-15.28,6.38-15.28,13.45,0,6.84,4.93,11.33,12.94,11.33a18.93,18.93,0,0,0,12.69-5.67" transform="translate(-5.08 -7.12)"/></svg>