<svg id="Camada_1" data-name="Camada 1" xmlns="http://www.w3.org/2000/svg" viewBox="0 0 452.37 809.22"><defs><style>.cls-1{stroke:#000;stroke-miterlimit:22.93;stroke-width:0.22px;}</style></defs><path d="M524.08,613.66c0,15.83-8.27,24.1-24.44,24.1H394V373.08H499.28c15.46,0,23.36,7.92,23.36,24.1v68.33c0,9-2.87,16.17-8.62,20.85q-1.08,1.08-20.5,12.95c13.31,8.28,20.5,12.94,21.22,13.67,6.11,5.38,9.34,12.59,9.34,21.93Zm-39.9-9.35V528.8l-19.41-12.59h-30.9v88.1Zm-1.07-133.77V406.17H433.87v77.68h30.18Z" transform="translate(-71.81 -15.89)"/><path d="M362.7,613.66c0,15.82-8.27,24.1-24.45,24.1h-83c-15.81,0-23.35-8.28-23.35-24.1V397.18c0-16.19,7.9-24.1,23.72-24.1h82.66c16.18,0,24.45,7.91,24.45,24.1v56.46H322.8V406.89H271.4v196.7h51.4V529.51H293.33V496.07H362.7Z" transform="translate(-71.81 -15.89)"/><path d="M207.43,637.76H166.09l-43.49-123V491h38.82V406.89H111.81V637.76H71.92V373.08H177.23c15.82,0,23.73,7.92,23.73,24.1v96.38c0,11.15-4,18.34-11.51,21.57-3.95,1.8-12.58,2.52-25.51,2.52Z" transform="translate(-71.81 -15.89)"/><path d="M126.91,825.11H82.7V691h43.5V701.4H94.56v50h29.11v10.79H94.56v52.5h32.35Zm70.8-9.35a9.41,9.41,0,0,1-2.51,6.83,9,9,0,0,1-6.83,2.52H154.59a9,9,0,0,1-6.83-2.52,9.83,9.83,0,0,1-2.87-6.83V781.6h11.85v33.08h29.11v-32l-37-44.95a15.39,15.39,0,0,1-4-10.06V700.32a9.2,9.2,0,0,1,2.87-6.82,8.89,8.89,0,0,1,6.83-2.52h33.78a8.68,8.68,0,0,1,9.34,9.34v31.29H185.85V701.4H156.74v28.42l37.39,44.58a15.8,15.8,0,0,1,3.58,10.07ZM264.93,701.4H244.45V825.11H232.23V701.4H211.38V691h53.55Zm69.74,114.36a9.47,9.47,0,0,1-2.53,6.83,9.8,9.8,0,0,1-7.18,2.52H288.65a9,9,0,0,1-6.82-2.52,9.79,9.79,0,0,1-2.88-6.83V691h11.86v123.7h32V691h11.87Zm-9.35-152.12-20.85,19.78h-7.91v-.35l12.58-19.78h16.18ZM411.58,801a23.67,23.67,0,0,1-7.19,17.27c-4.68,4.67-10.42,6.83-17.61,6.83H356.23V691h30.55c7.19,0,12.93,2.15,17.61,6.83a23.05,23.05,0,0,1,7.19,17.26Zm-12.22-1.44V716.15c0-4.31-1.08-7.91-3.95-10.79a15.93,15.93,0,0,0-10.79-4H368.09V814.68H383.9a16.21,16.21,0,0,0,11.15-4A14.91,14.91,0,0,0,399.36,799.57ZM445,825.11H433.14V691H445Zm79.07-9.35a9.75,9.75,0,0,1-2.88,6.83,9,9,0,0,1-6.83,2.52H476.64a8.68,8.68,0,0,1-9.35-9.35V700.32a9,9,0,0,1,2.51-6.82,9.46,9.46,0,0,1,6.84-2.52h37.73a8.89,8.89,0,0,1,6.83,2.52,9.14,9.14,0,0,1,2.88,6.82ZM512.22,701.4H479.15V814.67h33.07Z" transform="translate(-71.81 -15.89)"/><path class="cls-1" d="M426,16h65.41a32.84,32.84,0,0,1,32.71,32.73V245.07a32.83,32.83,0,0,1-32.71,32.72H426a32.83,32.83,0,0,1-32.71-32.72V48.73A32.84,32.84,0,0,1,426,16Z" transform="translate(-71.81 -15.89)"/><path class="cls-1" d="M265.29,16h65.42a32.83,32.83,0,0,1,32.7,32.73V245.07a32.83,32.83,0,0,1-32.7,32.72H265.29a32.83,32.83,0,0,1-32.7-32.72V48.73A32.83,32.83,0,0,1,265.29,16Z" transform="translate(-71.81 -15.89)"/><path class="cls-1" d="M104.63,16H170a32.61,32.61,0,0,1,32.71,32.73V245.07A32.6,32.6,0,0,1,170,277.79H104.63a32.83,32.83,0,0,1-32.71-32.72V48.73A32.84,32.84,0,0,1,104.63,16Z" transform="translate(-71.81 -15.89)"/></svg>