<svg id="Camada_1" data-name="Camada 1" xmlns="http://www.w3.org/2000/svg" viewBox="0 0 408.91 169.87"><defs><style>.cls-1,.cls-2{fill:#d80f17;}.cls-2{fill-rule:evenodd;}.cls-3{fill:#f59c00;}</style></defs><path class="cls-1" d="M39.16,166a9.94,9.94,0,0,0,5.18,1.47c3,0,4.72-1.54,4.72-3.85,0-2.07-1.2-3.3-4.25-4.43-3.68-1.34-6-3.28-6-6.42,0-3.51,2.91-6.12,7.29-6.12a10.16,10.16,0,0,1,4.94,1.1l-.8,2.38A8.28,8.28,0,0,0,46.05,149c-3.08,0-4.25,1.84-4.25,3.37,0,2.11,1.38,3.14,4.48,4.34C50.09,158.24,52,160,52,163.35c0,3.48-2.54,6.52-7.86,6.52a11.55,11.55,0,0,1-5.75-1.48Z"/><polygon class="cls-1" points="63.26 147.35 63.26 156.77 74.15 156.77 74.15 147.35 77.09 147.35 77.09 169.87 74.15 169.87 74.15 159.31 63.26 159.31 63.26 169.87 60.31 169.87 60.31 147.35 63.26 147.35"/><path class="cls-1" d="M95.4,167.5c4.61,0,7.22-4.25,7.22-9.36,0-4.47-2.34-9.15-7.19-9.15s-7.25,4.51-7.25,9.39,2.61,9.12,7.19,9.12Zm-.14,2.37c-6,0-10.12-4.61-10.12-11.43,0-7.15,4.41-11.83,10.43-11.83,6.17,0,10.15,4.72,10.15,11.4,0,7.72-4.71,11.86-10.42,11.86Z"/><path class="cls-1" d="M116.75,158.47a9.71,9.71,0,0,0,2.4.24c3.54,0,5.65-1.74,5.65-4.78s-2.11-4.44-5.31-4.44a14.74,14.74,0,0,0-2.74.23Zm-2.91-10.82a29.66,29.66,0,0,1,5.58-.47c2.87,0,5,.67,6.32,1.87a6.11,6.11,0,0,1,2,4.71,6.51,6.51,0,0,1-1.78,4.81,9.32,9.32,0,0,1-6.89,2.47,9.82,9.82,0,0,1-2.33-.2v9h-2.91Z"/><path class="cls-1" d="M138.86,158.47a9.85,9.85,0,0,0,2.41.24c3.54,0,5.64-1.74,5.64-4.78s-2.1-4.44-5.31-4.44a14.83,14.83,0,0,0-2.74.23ZM136,147.65a29.94,29.94,0,0,1,5.59-.47c2.87,0,5,.67,6.31,1.87a6.07,6.07,0,0,1,2,4.71,6.51,6.51,0,0,1-1.78,4.81A9.28,9.28,0,0,1,141.2,161a10,10,0,0,1-2.34-.2v9H136Z"/><rect class="cls-1" x="158.04" y="147.35" width="2.94" height="22.52"/><path class="cls-1" d="M170.41,169.87V147.35h3.2l7.19,11.39a59.18,59.18,0,0,1,4,7.32l.1,0c-.26-3-.33-5.74-.33-9.21v-9.46h2.74v22.52h-2.94l-7.15-11.43a65.41,65.41,0,0,1-4.18-7.51l-.1,0c.17,2.84.21,5.54.21,9.28v9.63Z"/><path class="cls-1" d="M213.91,168.63a20.48,20.48,0,0,1-7,1.24,10.58,10.58,0,0,1-11.55-11.36c0-6.72,4.64-11.63,12.19-11.63a14.11,14.11,0,0,1,5.65,1l-.74,2.37a11.14,11.14,0,0,0-5-1c-5.48,0-9.06,3.41-9.06,9.05s3.4,9.09,8.69,9.09a9.55,9.55,0,0,0,3.87-.6v-6.71h-4.54v-2.34h7.42Z"/><path class="cls-1" d="M249.79,168.8a14.24,14.24,0,0,1-5.95,1.07c-6.34,0-11.09-4-11.09-11.42,0-7.09,4.78-11.84,11.76-11.84a12.16,12.16,0,0,1,5.34,1l-.73,2.37a10.21,10.21,0,0,0-4.51-.93c-5.27,0-8.79,3.37-8.79,9.28,0,5.55,3.17,9.06,8.62,9.06a11.73,11.73,0,0,0,4.79-.94Z"/><polygon class="cls-1" points="269.43 159.31 260.71 159.31 260.71 167.43 270.47 167.43 270.47 169.87 257.77 169.87 257.77 147.35 269.97 147.35 269.97 149.79 260.71 149.79 260.71 156.9 269.43 156.9 269.43 159.31"/><path class="cls-1" d="M278.59,169.87V147.35h3.21L289,158.74a60.7,60.7,0,0,1,4,7.32l.1,0c-.27-3-.33-5.74-.33-9.21v-9.46h2.73v22.52h-2.93l-7.15-11.43a65.41,65.41,0,0,1-4.18-7.51l-.1,0c.16,2.84.2,5.54.2,9.28v9.63Z"/><polygon class="cls-1" points="309.19 149.82 302.35 149.82 302.35 147.34 319.02 147.34 319.02 149.82 312.13 149.82 312.13 169.87 309.19 169.87 309.19 149.82"/><polygon class="cls-1" points="337.49 159.31 328.76 159.31 328.76 167.43 338.52 167.43 338.52 169.87 325.83 169.87 325.83 147.35 338.02 147.35 338.02 149.79 328.76 149.79 328.76 156.9 337.49 156.9 337.49 159.31"/><path class="cls-1" d="M349.55,157.91h3c3.11,0,5.08-1.7,5.08-4.28,0-2.9-2.1-4.18-5.17-4.18a12.36,12.36,0,0,0-2.88.27Zm-2.91-10.23a30.49,30.49,0,0,1,5.58-.5c3.11,0,5.14.6,6.55,1.87a5.64,5.64,0,0,1,1.77,4.28A5.93,5.93,0,0,1,356.3,159v.1c1.7.61,2.74,2.21,3.3,4.55a41.62,41.62,0,0,0,1.71,6.18h-3a28.49,28.49,0,0,1-1.46-5.38c-.67-3.11-1.91-4.28-4.55-4.38h-2.74v9.76h-2.91Z"/><path class="cls-1" d="M368.59,166a10,10,0,0,0,5.19,1.47c3,0,4.71-1.54,4.71-3.85,0-2.07-1.21-3.3-4.25-4.43-3.68-1.34-5.94-3.28-5.94-6.42,0-3.51,2.91-6.12,7.28-6.12a10.24,10.24,0,0,1,4.95,1.1l-.81,2.38a8.25,8.25,0,0,0-4.24-1.07c-3.08,0-4.25,1.84-4.25,3.37,0,2.11,1.37,3.14,4.49,4.34,3.8,1.51,5.71,3.31,5.71,6.62,0,3.48-2.55,6.52-7.86,6.52a11.58,11.58,0,0,1-5.75-1.48Z"/><polygon class="cls-2" points="283.13 58.13 301.2 58.13 327.53 122.85 308.79 122.85 300.54 97.28 292.82 73.38 285.25 97.28 295.06 97.28 298.68 109.17 281.49 109.17 277.14 122.85 258.39 122.85 283.13 58.13"/><polygon class="cls-2" points="57.49 58.38 8 58.38 0 72.53 39.29 72.53 39.29 122.85 57.49 122.85 57.49 58.38"/><polygon class="cls-2" points="123.76 122.85 115.54 108.64 92.3 108.64 92.3 95.8 111.61 95.8 111.61 83.19 92.16 83.19 92.16 72.31 115.54 72.31 123.76 58.38 74.35 58.38 74.35 122.85 123.76 122.85"/><polygon class="cls-2" points="332.32 122.85 381.81 122.85 389.81 108.69 350.53 108.69 350.53 58.38 332.32 58.38 332.32 122.85"/><polygon class="cls-3" points="392.15 16.74 332.32 16.74 349.05 0 408.91 0 408.91 59.86 392.15 76.58 392.15 16.74"/><path class="cls-2" d="M172.37,122.85h18.81c-1.86-2.88-10.51-19.65-14.53-25.71,6.45-2.85,10.92-9,10.92-18a21.09,21.09,0,0,0-6.95-15.37c-4.65-4.21-12.63-5.4-19.82-5.4H133.12l-.52,64.47h16.75V70.26H156c7.42,0,12.51,3.15,12.51,8.32s-4,9.21-11,9.21h-5.49s17.31,30.54,20.31,35.06"/><path class="cls-2" d="M238.64,122.85h18.81C255.6,120,247,103.2,242.92,97.14c6.46-2.85,10.93-9,10.93-18a21.08,21.08,0,0,0-6.94-15.37c-4.66-4.21-12.63-5.4-19.82-5.4H199.41l-.52,64.47h16.74V70.26h6.68c7.41,0,12.49,3.15,12.49,8.32s-4,9.21-11,9.21h-5.49s17.31,30.54,20.3,35.06"/></svg>