<svg id="Camada_1" data-name="Camada 1" xmlns="http://www.w3.org/2000/svg" viewBox="0 0 595.28 841.89"><defs><style>.cls-1{fill:#e95b0c;}.cls-2{fill:#ea5e11;}.cls-3{fill:#ea5d10;}.cls-4{fill:#ea5d0f;}.cls-5{fill:#ea5c0e;}</style></defs><path class="cls-1" d="M297.68,149.29c147.9,0,266.75,119.79,266.73,268.85,0,146-120.41,265.2-267.69,265.12-146.3-.08-266.21-120-266.14-266.07C30.65,268.8,149.8,149.29,297.68,149.29Zm-64,399.5c32.47-.2,54.34-.1,86.8-.1,32.67,0,65.33-.09,98,.1,4.35,0,5.47-1.14,5.46-5.48q-.24-90.45-.07-180.88a9.38,9.38,0,0,0-3.31-7.5q-32.46-30.63-64.68-61.51a12.62,12.62,0,0,0-9.63-3.94c-35.56.15-71.13.21-106.68-.05-5.21,0-6.31,1.35-6.3,6.38.19,59.9-.49,119.82.42,179.71M205.87,406.2c0-29.17-.08-58.35.08-87.53,0-3.89-.74-5.47-5-5.25-6.94.37-13.92.31-20.86,0-3.68-.16-4.55,1.1-4.48,4.59.22,10.43.08,20.87.08,31.3,0,47.92.05,95.84-.09,143.76,0,4.32.76,6.24,5.6,5.9a130.93,130.93,0,0,1,19.1,0c4.79.34,5.69-1.4,5.66-5.8C205.78,464.17,205.87,435.18,205.87,406.2Zm0-132.8c0-4.62-.12-9.25,0-13.87.1-2.79-.92-3.64-3.68-3.58q-11.27.24-22.54,0c-2.89-.06-4.14.61-4.08,3.8.18,8.86.16,17.73,0,26.59,0,2.84,1,3.64,3.69,3.59,7.12-.13,14.27-.35,21.38.07,4.61.27,5.62-1.49,5.24-5.6C205.61,280.75,205.87,277.07,205.87,273.4ZM191.6,546.19c4.16-10.85,8.08-21.3,12.2-31.68,1.09-2.73.3-3.4-2.33-3.37-6.95.09-13.9.17-20.84,0-3.3-.08-3.46,1.16-2.41,3.74,3.2,7.85,6.24,15.77,9.48,23.61C188.73,541,189.11,543.9,191.6,546.19Z"/><path class="cls-2" d="M415.28,362.28c-22.45,0-43.4,0-64.34,0-2.56,0-3.33-1-3.32-3.41.06-20.18,0-40.36,0-62Z"/><path class="cls-3" d="M327.18,399.55c-18.55,0-37.11-.16-55.66.12-4.5.07-5.43-1.33-5.36-5.54.2-11.95,0-12,12.11-12,35,0,70,.1,105-.11,4.65,0,5.85,1.25,5.75,5.79-.25,11.7,0,11.7-11.92,11.7Z"/><path class="cls-3" d="M327.09,415.9c18.75,0,37.5.12,56.25-.1,4.13,0,5.73.67,5.65,5.28-.22,12.2,0,12.2-12,12.2-34.8,0-69.6-.09-104.39.11-4.79,0-6.75-.68-6.51-6.15.48-11.33.12-11.34,11.68-11.34Z"/><path class="cls-4" d="M327.66,465.62c-18.75,0-37.5-.1-56.24.09-3.91,0-5.31-.8-5.27-5,.13-12.44-.07-12.45,12.24-12.45,34.79,0,69.57.09,104.36-.1,4.59,0,6.39.84,6.24,5.9-.34,11.57-.06,11.58-11.47,11.58Z"/><path class="cls-5" d="M327,499.34c-18.33,0-36.66-.12-55,.09-4.3.06-6-.74-5.87-5.56.32-11.91.05-11.92,12.13-11.92,34.73,0,69.46.1,104.19-.11,4.81,0,6.77.71,6.55,6.17-.46,11.32-.11,11.33-11.66,11.33Z"/><path class="cls-3" d="M299.84,348.44c9.64,0,19.28.12,28.92-.07,3.27-.06,4.24,1,4.35,4.26.48,13.25.59,13.24-12.67,13.24-16.39,0-32.78-.13-49.17.1-4.11.06-5.15-1.15-5.11-5.17.13-12.36-.05-12.36,12.28-12.36Z"/></svg>