<svg id="Camada_1" data-name="Camada 1" xmlns="http://www.w3.org/2000/svg" viewBox="0 0 616.54 333.97"><defs><style>.cls-1{fill:#010101;}.cls-2{fill:#020202;}.cls-3{fill:#070707;}.cls-4{fill:#5e5e5e;}.cls-5{fill:#575757;}.cls-6{fill:#fefefe;}.cls-7{fill:#fcfcfc;}.cls-8{fill:#fdfdfd;}.cls-9{fill:#f6f6f6;}</style></defs><path d="M423.77,64.14c2,45.26,5.34,90.46,4.55,135.81-.07,4-.8,5.29-5.07,5.19-13.49-.32-27-.21-40.49,0-2.94,0-3.92-.51-3.92-3.75q.17-98.7,0-197.4c0-2.92.51-3.95,3.75-3.92q28.74.26,57.48,0c3.23,0,4.11,1.25,5,4q21.33,66.86,42.85,133.65c.43,1.34.91,2.68,1.67,4.9,5-15.52,9.65-30.2,14.35-44.87,10-31.13,20-62.23,29.84-93.4C534.77,1.06,536,0,539.5,0,558.32.22,577.15.17,596,0c3.08,0,4.2.54,4.2,4q-.18,98.45,0,196.9c0,3.76-1.29,4.21-4.53,4.16-13.49-.17-27-.24-40.48,0-3.89.08-4.5-1.09-4.56-4.68-.7-41,1.86-81.91,3.95-122.83.21-4.16.36-8.32.54-12.48.26-1,1.1-2.36-1.12-2q-23.54,69.42-47,138.85c-.73,2.17-1.63,3.15-4.15,3.09-8.65-.19-17.31-.26-26,0-3.25.11-4.11-1.31-5-4-9.25-27.48-18.64-54.91-28-82.36q-9.58-28.23-19.1-56.49C422.53,61.87,423.74,63.33,423.77,64.14Z"/><path d="M364.07,205c-17,0-33.67-.09-50.32.08-3,0-3.07-2-3.61-3.69-3.2-10.12-6.36-20.26-9.37-30.44-.85-2.88-2-4.23-5.4-4.2-20,.21-40,.18-60,0-3.11,0-4.27,1.07-5.09,3.9-3,10.36-6.26,20.64-9.41,30.95-.58,1.92-1,3.49-3.81,3.46-16.49-.17-33-.08-50.06-.08,4.39-11.94,8.65-23.55,12.91-35.16Q210.36,87,240.71,4c1.09-3,2.31-4.06,5.52-4,12.82.19,25.65.16,38.48,0,2.88,0,4.28.74,5.32,3.58q36.71,99.67,73.59,199.29A19.62,19.62,0,0,1,364.07,205Z"/><path d="M20,102.31c0-32.47.06-64.94-.09-97.42,0-3.81.83-4.92,4.81-4.89,25.31.2,50.63.05,76,.12C121.45.18,141,4.41,157.5,18c19.27,15.88,26,37,23.05,61.08-3,24.78-17.75,40.8-40.53,49.91-13.05,5.21-26.74,6.5-40.61,6.56-8.5,0-17,.22-25.48-.06-3.72-.12-4.78.86-4.74,4.68.2,20.14,0,40.3.21,60.44,0,3.9-1.13,4.59-4.71,4.53q-20.22-.33-40.47,0c-3.56.07-4.32-.93-4.31-4.38C20.05,167.93,20,135.12,20,102.31Z"/><path class="cls-1" d="M224.07,308.07c-2.48,7.37-5.06,14.71-7.36,22.13-.75,2.42-2.08,2.82-4.31,2.85s-3.61-.44-4.36-2.84c-2.25-7.09-4.74-14.11-7.14-21.16a1.53,1.53,0,0,1-.32-.36c-.19-.43-.59-.55-.68-.2a15.76,15.76,0,0,0-.05,7.63c.06,4.66-.09,9.33.24,14,.27,3.78-2.32,3.22-4.15,2.76-2-.5-5.87,2.52-5.88-2.56,0-11.81.05-23.62,0-35.43,0-2.06.42-2.81,2.7-2.94,10.21-.62,10.19-.71,13.3,8.95,2,6.13,4,12.26,6.36,19.54,2.83-8.84,5.49-16.52,7.69-24.33.94-3.36,2.49-4.28,5.88-4.19,8.75.24,8.76.06,8.76,8.93,0,9.31-.28,18.64.12,27.94.18,4.37-1.91,4.4-5,4.25-2.75-.13-5.63.75-5.16-4,.56-5.62.38-11.3.52-16.95a6.94,6.94,0,0,0,.1-4.18c0-.11.36-1.3-.6-.53A7.38,7.38,0,0,0,224.07,308.07Z"/><path class="cls-1" d="M407.8,316.12c.06,4.66-.08,9.33.25,14,.27,3.78-2.33,3.22-4.15,2.76-2-.5-5.87,2.52-5.88-2.56,0-11.82,0-23.63,0-35.44,0-2.05.43-2.8,2.71-2.93,10.21-.61,10.19-.71,13.29,8.95,2,6.13,4,12.26,6.36,19.54,2.83-8.84,5.5-16.52,7.69-24.33,1-3.36,2.49-4.28,5.89-4.19,8.75.24,8.75.06,8.75,8.93,0,9.31-.27,18.64.12,27.94.19,4.37-1.9,4.4-5,4.25-2.76-.13-5.64.75-5.16-4,.56-5.62.38-11.3.52-16.95a6.94,6.94,0,0,0,.1-4.18c0-.11.36-1.3-.6-.53a7.43,7.43,0,0,0-.61.72c-2.47,7.37-5,14.71-7.35,22.13-.75,2.42-2.09,2.82-4.31,2.85s-3.61-.44-4.37-2.84c-2.25-7.09-4.74-14.11-7.14-21.16a1.53,1.53,0,0,1-.32-.36c-.18-.43-.58-.55-.67-.2A15.76,15.76,0,0,0,407.8,316.12Z"/><path class="cls-1" d="M391.8,259.15c.07,4.66-.06,9.33.26,14,.25,3.77-2.35,3.21-4.18,2.75-2-.5-5.87,2.54-5.87-2.58,0-11.82.06-23.63,0-35.45,0-2.12.52-3.17,2.76-2.83a2.78,2.78,0,0,0,.5,0c9.79-.39,9.78-.38,12.76,8.94,2,6.14,4,12.26,6.35,19.46,2.86-8.94,5.54-16.8,7.85-24.77.85-2.94,2.25-3.74,5.2-3.71,9.27.11,9.28,0,9.27,9.42s-.27,18.65.12,28c.19,4.6-2.54,3.72-5,3.65-2.33-.06-5.5,1.28-5.11-3.44.46-5.46.34-11,.48-16.46a10.15,10.15,0,0,0,.09-5.33c0-.27.24-.95-.32-.78-.32.1-.54.77-.89,1.11-2.46,7.38-5,14.73-7.32,22.15-.74,2.37-2.06,2.85-4.31,2.86s-3.6-.39-4.37-2.82c-2.23-7.11-4.75-14.12-7.15-21.17a1.53,1.53,0,0,1-.32-.36c-.19-.44-.58-.56-.67-.2A15.88,15.88,0,0,0,391.8,259.15Z"/><path class="cls-1" d="M219.17,275.3c-8.55,3.1-12.4-1.05-15-7.95-.87-2.29-1-5.85-5.17-5.64-1.9.1-3.17.17-3,2.63.21,2.65-.27,5.37.11,8,.57,4-1.76,4-4.4,3.63-2.26-.35-5.86,1.95-5.73-3.37.29-11.48.15-23,0-34.47,0-2.31.51-3.25,3-3.15,5.16.2,10.34-.16,15.48.2,5.73.39,11,2.2,12.81,8.46,1.67,5.74.6,11-4.77,14.45-1.88,1.22-1.24,2.25-.5,3.64C214.44,266.21,216.78,270.75,219.17,275.3Z"/><path class="cls-1" d="M337.14,275.31c-8.35,3-12.34-.9-15-7.86-.91-2.44-1.25-6.14-5.62-5.76-1.83.16-2.72.51-2.58,2.53s-.23,4.37.08,6.48c.64,4.32-.81,5.61-5.28,5.47-3.92-.11-4.94-1.09-4.84-5,.28-10.82.24-21.65,0-32.46-.07-3.22.94-4,3.93-3.79,5,.26,10-.19,15,.23,5.5.48,10.6,2.26,12.39,8.34,1.69,5.77.66,10.94-4.63,14.49-1.73,1.17-1.48,2.09-.65,3.6C332.41,266.1,334.72,270.66,337.14,275.31Z"/><path class="cls-1" d="M297.91,263.14c0,9.75-1,11.07-10.12,13.14-10.27,2.33-18.66-.71-22.16-8.67a28.85,28.85,0,0,1,.5-25.08c3.12-6.41,9.8-9.31,17.72-8.4,7,.81,11.48,4.38,13.23,10.35.76,2.58.72,4-2.65,3.74-3.16-.26-6,.52-7.8-3.83s-9.24-3.61-11.36,1.11a24.31,24.31,0,0,0-.09,19.87c1.57,3.74,7.91,5.14,11.33,3.08,2.52-1.52,1.26-3.89,1.38-5.87.15-2.58-2.1-1.76-3.27-1.6-3.38.44-3.62-1.23-3.75-4-.14-3.17,1.52-3.07,3.64-3,1.5.07,3,0,4.5,0C297.92,254,297.92,254,297.91,263.14Z"/><path class="cls-1" d="M314,312.24c0-5.83,0-11.65,0-17.47,0-1.26-.41-2.88,1.76-2.77,5.62.28,11.31-.75,16.88.75,10,2.69,14.95,11.35,13.53,23.46-1.14,9.75-8.19,16.46-17.93,16.69-4.6.11-10.53,2-13.45-.75-2.7-2.51-.59-8.49-.78-12.93C314,316.9,314,314.57,314,312.24Z"/><path class="cls-1" d="M128.79,332.93c-8.71,0-8.71,0-8.71-8.77,0-9.48.15-19-.09-28.44-.08-3.17.87-4,3.89-3.79,3.64.27,7.33-.07,11,.13,10.8.62,17.83,8.93,17.68,20.73-.16,11.63-7.11,19.53-17.76,20.13C132.79,333,130.79,332.93,128.79,332.93Z"/><path class="cls-1" d="M223,255.51c0-13.57,7.26-21.9,18.75-21.44a18.75,18.75,0,0,1,4.87.88c10.45,3.28,15.54,17,11.17,29.92-3.26,9.66-13.15,14.46-22.9,11.11C227.2,273.34,223,266,223,255.51Z"/><path class="cls-1" d="M503.73,334c-8.27,0-14.88-4.2-16.54-10.31-.7-2.6-.4-4.12,2.89-3.79s6.54-1,7.93,4c.87,3.18,4.88,2.74,7.89,2.28a3.52,3.52,0,0,0,3.28-3.73c.1-3.12-2.15-4.31-4.51-5.25-3.68-1.49-7.55-2.54-10.9-4.77-3.86-2.57-6.25-6-5.7-10.84s3.77-7.63,8-9.28c8.28-3.18,18-.74,21.44,5.46,1,1.85,3.07,5.14.55,5.83s-7,2.54-9.06-1.59c-1.6-3.13-4-3.64-7-3.24a4.27,4.27,0,0,0-4,3.21c-.52,2.14.77,3.57,2.51,4.38,3.44,1.6,7,2.88,10.48,4.5,4.42,2.08,7.74,5.12,8.08,10.43C519.62,329.3,513.91,334,503.73,334Z"/><path d="M448.93,307.63c0-3.83.43-7.72-.1-11.48-.73-5.21,2.67-3.92,5.46-4.21,3.49-.37,5,.39,4.76,4.44-.41,7.47-.12,15-.12,22.47,0,4.15,1.25,7.22,6.11,7.36s6.33-2.91,6.37-7c.08-8,.26-16,0-24-.14-4,2.3-3.46,4.43-3.11s5.72-2.16,5.6,2.92c-.19,8.15.11,16.32-.16,24.47-.31,9.58-6.32,14.68-16.51,14.48-10-.18-15.67-5.71-15.8-15.33C448.89,315,448.93,311.29,448.93,307.63Z"/><path class="cls-1" d="M77,333c4.84-13.21,9.61-26.06,14.23-39,1-2.77,3.12-2.15,4.91-1.94,2,.23,4.75-1.53,6,1.77,4.75,12.87,9.55,25.72,14.53,39.13-2.91,0-5.2-.15-7.47,0s-3.86-.5-4.16-3c-.44-3.8-2.75-4.72-6.2-4.33a43.92,43.92,0,0,1-6.49,0c-1.5-.05-2.88.31-3,1.89-.46,6-4.63,5.67-8.85,5.37C79.46,332.91,78.47,333,77,333Z"/><path class="cls-1" d="M616.54,333c-2.89,0-5.06-.14-7.2,0-2.5.2-4.2-.36-4.51-3.2-.38-3.54-2.49-4.55-5.85-4.13a49.26,49.26,0,0,1-7,0c-1.29,0-2.62.24-2.69,1.61-.37,6.9-5.31,5.72-9.67,5.63-.79,0-1.57-.1-2.69-.18,4.77-13,9.5-25.71,14-38.49,1-2.66,2.84-2.61,4.72-2.23,2.14.43,5-1.76,6.35,1.95C606.69,306.76,611.5,319.45,616.54,333Z"/><path class="cls-1" d="M256.93,333c4.85-13.21,9.61-25.74,14-38.4,1.25-3.58,3.79-2.46,6-2.54s4.32-.7,5.46,2.61c4.05,11.74,8.4,23.39,12.94,35,1.38,3.49-.11,3.33-2.68,3.43-4.16.17-8.09.38-8.56-5.27-.15-1.77-1.32-2.05-2.8-2-3,0-6,.08-9,0-1.76-.06-3.08.47-3.23,2.28-.42,5-3.66,5.47-7.63,5A42.22,42.22,0,0,0,256.93,333Z"/><path class="cls-1" d="M0,333c4.87-13.3,9.61-26,14.16-38.79,1.08-3,3.36-2.28,5.31-2.11s4.53-1.42,5.78,2.06c4.35,12.17,9,24.23,13.51,36.33.52,1.39.8,2.62-1.43,2.52-4.16-.2-9.36,1.7-10.1-5.15-.19-1.69-1.22-2.14-2.76-2.11a49.25,49.25,0,0,1-7,0c-3.34-.38-5.46.53-5.89,4.16-.31,2.64-1.89,3.46-4.47,3.18A68.9,68.9,0,0,0,0,333Z"/><path class="cls-1" d="M378.57,276c-2.9,0-5.19-.15-7.44,0s-3.88-.48-4.18-3c-.46-3.77-2.72-4.75-6.2-4.34a45.19,45.19,0,0,1-6.48,0c-1.49-.06-2.91.3-3,1.87-.4,6.09-4.61,5.65-8.81,5.39-1-.06-2,0-3.5,0,4.83-13.18,9.58-26,14.2-38.9.86-2.4,2.63-2.36,4.37-2,2.19.44,5.2-1.69,6.49,1.76C368.81,249.68,373.57,262.55,378.57,276Z"/><path class="cls-1" d="M470.56,276c-2.93,0-5.1-.14-7.24,0-2.54.22-4.18-.47-4.47-3.25-.39-3.62-2.61-4.47-5.9-4.07a46.84,46.84,0,0,1-6.49,0c-1.4,0-3,0-3.13,1.68-.36,7.05-5.46,5.5-9.71,5.57h-2.71l3.94-10.68c3.33-9,6.87-18,9.87-27.08,1.08-3.29,3-3.38,5.58-3.23s5-.76,6.25,3C460.87,250.49,465.66,262.84,470.56,276Z"/><path class="cls-1" d="M158.07,312.43c0-5.65.08-11.31,0-17-.05-2.32.17-3.63,3.1-3.54,7.48.21,15,.21,22.46,0,3-.08,3.19,1.36,3.08,3.63s.43,4.44-3.09,4.24c-3.82-.21-7.68.27-11.47-.13s-4,1.47-4.2,4.56c-.24,3.8,1.6,4,4.4,3.79,2.49-.15,5,.12,7.49-.07,2.78-.21,4.17.28,4.12,3.65s-1.23,4-4.12,3.75c-2.15-.2-4.37.24-6.48-.1-4.54-.72-5.56,1.13-5.44,5.44.1,3.63.8,5.09,4.66,4.64,3.11-.36,6.32.12,9.47-.12s4.57.52,4.7,4.23c.15,4.23-2.26,3.55-4.71,3.54-6.82,0-13.64-.14-20.46.07-2.9.09-3.63-.89-3.53-3.64C158.21,323.75,158.07,318.09,158.07,312.43Z"/><path class="cls-1" d="M352,312.14c0-5.49.11-11,0-16.46-.08-2.59.3-3.87,3.4-3.77,7.31.24,14.64.25,21.95,0,3.27-.11,3.34,1.48,3.33,3.92s-.13,4.2-3.38,4c-3.48-.24-7,.1-10.48-.1-3.21-.18-4.94.05-5,4.29-.07,4.68,2.44,4,5.24,4,2.49,0,5,.17,7.48-.06,2.76-.25,3.37.92,3.3,3.43s0,4.33-3.33,4a54.18,54.18,0,0,0-6,0c-6.64,0-7.77,1.55-6.57,8.15.38,2.05,1.55,1.78,2.83,1.79,4.16,0,8.33.22,12.47-.05,3.35-.21,3.24,1.67,3.33,4,.09,2.53-.23,3.94-3.39,3.83-7.31-.23-14.64-.2-22,0-2.77.07-3.31-.93-3.24-3.43C352.14,323.79,352,318,352,312.14Z"/><path class="cls-1" d="M159,235c4,.13,8-.35,11.88.94,6.3,2.07,10,7.19,9.67,13.5-.36,6.09-4.37,10.33-11.08,11.62a35.9,35.9,0,0,1-4.94.64c-6.48.36-6.49.34-6.49,7.1,0,1.66-.1,3.33,0,5,.14,1.82-.72,2.09-2.33,2.25-7.67.73-7.66.79-7.66-6.95,0-9.83.16-19.66-.09-29.48-.09-3.57.59-5.26,4.53-4.67A43.88,43.88,0,0,0,159,235Z"/><path class="cls-1" d="M41,313.26c0-12.5,4.48-19.66,13.3-21.81,9-2.2,18.2,2.53,20.5,10.54.74,2.58.88,4.47-2.89,4.08-3.16-.32-6.47.79-7.33-4.17-.46-2.63-3.58-3-6.23-3-2.83,0-5,1.16-5.87,3.76a31.85,31.85,0,0,0-.15,19.6c.85,2.86,3.29,4,6.28,3.89s5.18-.85,6.41-3.74c1.13-2.65,6.93-4.57,9.33-3,1.93,1.23.72,3.05.29,4.45-1.77,5.8-7.56,9.73-14.6,10.15-8,.48-14.08-2.91-17-9.56A24.73,24.73,0,0,1,41,313.26Z"/><path class="cls-1" d="M551,312.76a29.32,29.32,0,0,0,.73,7.91c.85,3.27,2.59,5.31,6.16,5.4s6.19-.65,7.25-4.53c.56-2,6.89-3.71,9-2.23,2.36,1.67.69,3.91-.12,5.7-3,6.6-8.66,8.79-15.39,8.93-7.14.15-12.75-2.78-15.54-9.46a29.55,29.55,0,0,1,.22-24.22c3.05-6.73,8.87-9.66,16.23-9.2,6.79.42,12.16,3.14,14.73,9.89.61,1.59,1.83,4.31.15,4.69-2.77.63-7.44,2-8.55-.88-1.91-5-4.79-6.77-9.4-5.62-5.13,1.28-4.9,6.06-5.4,10.13A27.08,27.08,0,0,0,551,312.76Z"/><path class="cls-2" d="M251.78,312.2c0,5.81-.24,11.63.08,17.42.27,4.86-3.07,3.19-5.31,3.3s-4.9,1.12-4.79-3.25q.44-17.16,0-34.33c-.1-4.26,2.45-3.48,4.74-3.3s5.61-1.64,5.35,3.25C251.56,300.91,251.78,306.56,251.78,312.2Z"/><path class="cls-2" d="M524.8,312c0-5.64.24-11.29-.07-16.92-.23-4.09,2.47-3.2,4.5-3s5.62-2,5.55,3q-.25,17.42,0,34.84c.07,5-3.49,2.69-5.58,3s-4.68,1-4.47-3C525,323.92,524.8,317.93,524.8,312Z"/><path class="cls-3" d="M476.35,280.14c-4.7,4.5-6.92,11.32-14.71,8.23C464.08,280.46,465.24,279.74,476.35,280.14Z"/><path class="cls-4" d="M554,63.15c-.34-1.37.5-2,1.56-2.69a5,5,0,0,1-.44,4.68C554.61,64.54,555.18,63.34,554,63.15Z"/><path class="cls-5" d="M423.77,64.14c-.8-1.16-1.45-2.49,0-3.47.46-.31,1.2.74,1.06,1.65Z"/><path class="cls-6" d="M265.42,57.73c7.27,23.25,14.24,45.56,21.24,67.85.65,2,.45,3-2.07,3q-19-.12-37.95,0c-2.14,0-3.17-.39-2.41-2.8C251.2,103.47,258.13,81.16,265.42,57.73Z"/><path class="cls-6" d="M90.45,97.23c-6.66,0-12.16-.09-17.65,0-2.4,0-3.6-.37-3.58-3.22.12-17.49.08-35,0-52.47,0-2.14.32-3.41,2.95-3.37,10.5.15,21-.38,31.48.28C121,39.59,131,51.26,131.08,69.58c.07,14.82-6.48,23.21-20.9,26.73C103.28,98,96.25,96.85,90.45,97.23Z"/><path class="cls-7" d="M196.08,248.88c-.08-3.62-1-6.7,4.12-6.23,5.79.53,8,1.7,7.78,6-.25,5.12-3.89,5.07-7.78,5.5C194.47,254.77,196.36,250.85,196.08,248.88Z"/><path class="cls-7" d="M314,248.4c.26-2.61-1.45-6.14,3.92-5.74,5.94.45,8.05,1.51,8.05,5.7S323.9,254,318.41,254C314,254,314,254,314,248.4Z"/><path class="cls-8" d="M324,312.71c0-2.66,0-5.32,0-8,0-5.14,1.55-6.25,6.45-4.57a7.43,7.43,0,0,1,3.86,3c2.62,3.94,2.59,14.8,0,18.73-2.17,3.25-5.43,3.45-8.84,3.35-1.88-.06-1.41-1.5-1.42-2.56C324,319.36,324,316,324,312.71Z"/><path class="cls-8" d="M130.05,312.59c0-2.66,0-5.32,0-8,0-5.05,1.19-5.93,6.11-4.55,5.13,1.43,7.36,8,5.86,17.33-.85,5.27-4,7.87-9.15,7.91-2.09,0-3-.48-2.87-2.74C130.18,319.24,130.05,315.91,130.05,312.59Z"/><path class="cls-8" d="M248.94,255.44a20.08,20.08,0,0,1-1.73,9.68,6.5,6.5,0,0,1-6.31,4,6.26,6.26,0,0,1-6.2-4.13,25.81,25.81,0,0,1-.1-18.92,6.21,6.21,0,0,1,6.17-4.18,6.56,6.56,0,0,1,6.39,3.88A19.75,19.75,0,0,1,248.94,255.44Z"/><path class="cls-9" d="M96.66,303.45c1.73,5.51,3,9.73,4.47,14.28H92.5C93.78,313.36,95,309.05,96.66,303.45Z"/><path class="cls-9" d="M601.29,317.83h-9l4-13.48C598.91,308.59,599.14,313.21,601.29,317.83Z"/><path class="cls-9" d="M276.63,303.52c1.7,5.4,3,9.6,4.47,14.17h-8.67Z"/><path class="cls-9" d="M19.68,303.44c1.74,5.58,3.05,9.79,4.47,14.31H15.52Z"/><path class="cls-9" d="M363.2,260.85h-8.82c1.32-4.48,2.57-8.71,4-13.48C360.91,251.66,361.32,256.2,363.2,260.85Z"/><path class="cls-9" d="M450.58,246.51c1.72,5.46,3,9.65,4.48,14.2H446.4Z"/><path class="cls-7" d="M162,254c-5,1.34-4-2.54-4-5.52s-1.19-6.35,4.27-5.82c5.62.54,8,1.71,8.09,5.73S168.4,254,162,254Z"/></svg>