<svg id="Camada_1" data-name="Camada 1" xmlns="http://www.w3.org/2000/svg" viewBox="0 0 14570.86 3349.92"><defs><style>.cls-1{fill:#f2c5b1;}.cls-2{fill:#afcaca;}.cls-3{fill:#b2cccc;}.cls-4{fill:#b4cece;}.cls-5{fill:#aecaca;}.cls-6{fill:#f2c3ae;}.cls-7{fill:#adc9c9;}.cls-8{fill:#b3cdcd;}</style></defs><path class="cls-1" d="M1087.85,1155.55c-125.1,2-239.18,39-349,90.76-51.49,24.28-101.62,51.7-151,80.06-16.09,9.24-24.23,12.91-36-5.07-12.28-18.71-9.45-28.8,9.24-39.93,68.23-40.65,139.24-75.81,212-107.26,110.75-47.85,227.15-70.19,347.49-76,33.76-1.62,67.13-11.45,100.29-21.6-51.18.17-101.58,8.5-152.64-3.07-55.27-12.53-106.78-30.86-148.31-70.48-72-68.68-64.52-171.78,16.45-229.52,97.17-69.3,204.64-69,315.46-45.86,46.36,9.67,92.15,22,134.38,43.12,31.45,15.75,32.69,2,34.81-24.09C1431,623,1467.23,510.42,1564.22,425c55.37-48.75,119.77-73.06,192.25-56.9,77.88,17.37,127.71,112.89,112.4,198.24-12.1,67.44-40.5,126.19-83.79,178.53-5.16,6.23-12.83,11.18-11.24,32,28.91-18,47.53-39.41,64.87-62,46.49-60.5,91.59-121.65,145.6-176.47,93.19-94.58,206.24-159,320.23-222.89,20-11.24,31.23-8.53,42.54,12.7,12.55,23.55-2.38,28-17.75,35.9-123.14,63-238.82,136.71-333.65,238.82A421.54,421.54,0,0,0,1926.85,703c57.54-31.56,115-63.34,172.64-94.61,50-27.1,97.61-58.72,151.62-78.32,57.16-20.74,85.76-10.52,116.63,41.65,53,89.56,105.61,179.39,160.79,267.61,20.58,32.89,18.26,56.65-8.9,84.11-61.28,61.94-142.3,91.22-215.66,132.58-248.1,139.91-497.65,277.25-747,414.93q-262.79,145.1-526.58,288.34A337.25,337.25,0,0,1,973,1783.64c-51.16,16.54-72.82,8.41-100.48-37.51-56.57-93.91-112.15-188.4-169-282.13-16.2-26.71-13.11-47.93,7.5-71.11,49.69-55.88,119.35-80.4,181-117.24,59.59-35.63,121.64-67.16,182.6-100.51C1080.48,1171.92,1087.67,1169.86,1087.85,1155.55Zm877.92,24.84c3.77-2.37,9.33-6.28,15.25-9.51q150-82,300.09-163.9c51.19-28,102.75-55.43,153-85,44.41-26.1,46.47-39.71,20.56-82.35q-65.91-108.52-130.9-217.6c-29.58-49.55-39.81-51.77-92.1-22.89q-219,121-438.68,240.57c-22.22,12-32.19,20.93-16.27,46.5,57.2,91.86,112.6,184.85,168.54,277.5C1949.66,1170.93,1953.18,1178.52,1965.77,1180.39Zm-498.21,261.54c-4.93-9.47-10.12-20.89-16.53-31.58-49.21-82-100.16-163.1-147.29-246.31-19.49-34.41-38.1-33.77-68.86-16.22-101.28,57.81-204.47,112.29-305.62,170.33-50.45,28.95-103.76,53-150.82,88.19-21,15.71-20.35,28.66-8.14,48.31,51.22,82.43,103.48,164.31,151.39,248.64,17.71,31.19,34.21,34.21,62.49,18.51q233.08-129.37,466.58-258C1458.59,1459.47,1470.38,1457.42,1467.56,1441.93Zm75.59-35c3.95-1.32,12.34-2.9,19.55-6.7,61.26-32.3,122.57-64.54,183.35-97.74,40.13-21.92,80.2-44.14,118.77-68.63,21.88-13.89,35-29,14.41-60.16-52.74-79.58-102.25-161.52-148.58-245-17-30.52-34.23-31.41-59.26-18.62q-59.27,30.3-117.5,62.63c-60.56,33.74-121.16,67.47-180.62,103.07-22.21,13.3-36.86,28.55-16.28,60.2,53.55,82.4,102.56,167.74,152.9,252.19C1516.86,1399.87,1524.27,1408.46,1543.15,1406.93ZM1813.4,567.51c.74-136.81-72.42-181.88-171-132.1-105.58,53.32-195.8,257.86-166.48,377.44,12.67,51.67,40.21,65.78,88.63,42.75C1639.89,819.75,1700,765.32,1751,699.89,1787.72,652.82,1812.29,601.54,1813.4,567.51Zm-673.13,457.71c98.11-7.61,193.44-20.63,273.53-89,38.88-33.18,44-56,2.43-86.64-44.34-32.73-95.48-51-147.78-64.89-94.32-25.1-188.85-35.08-277.83,18.35-34.91,21-67.18,46.42-64.4,94,2.6,44.54,27.43,72.88,65.76,93.62C1038.51,1015.92,1087.11,1028.33,1140.27,1025.22Zm609.91-231.81c-.75-1-1.82-2.86-2.21-2.73a41.93,41.93,0,0,0-6,2.92c.76.94,1.83,2.82,2.25,2.69A40.25,40.25,0,0,0,1750.18,793.41Z" transform="translate(-544.36 -308.98)"/><path class="cls-2" d="M2732.83,993.92c-.45-111.6,107.89-172,202.3-117.39,23.44,13.56,38.17,12.5,59.57-.45,51.59-31.22,116.52-24.67,158.52,13.15q72.08,64.89,30.58,158c-41.67,93.15-121.14,149.16-201.73,204-13.38,9.09-26.82,4.5-39.1-3.17-74.75-46.68-141.37-102.18-188.55-177.82C2738.73,1045,2730.83,1017,2732.83,993.92Z" transform="translate(-544.36 -308.98)"/><path class="cls-2" d="M2365,1420.14c-.45-101.62,95.89-164.45,186.18-122.08,31.94,15,54.76,22.63,89,.52,44.76-28.94,112.18-15.35,150.06,22,42.83,42.2,54,94.31,29.92,148.49-43.55,97.92-127.59,158-213.2,215.61-10.34,6.95-19.35.18-26.89-4.75-75.85-49.57-147.67-103.65-194-184.12C2372,1471.44,2363.64,1445.13,2365,1420.14Z" transform="translate(-544.36 -308.98)"/><path class="cls-3" d="M10993.48,2568.62c41.51-39,78.86-77.72,119.08-113.16,46.48-41,97.94-73.18,164-71.12,36.72,1.15,59.11,21,72.75,52.88,11,25.79-6.32,40.75-24.82,50.08-20.47,10.33-25.31-6.46-28.56-23.09-3.82-19.56-17.18-12.8-29.27-9.14-57.8,17.49-104.72,53-143.38,96.74-79.63,90.05-138.25,190.57-138.88,316.28-.17,32.89-15.34,39.52-42.5,22-21.7-14-30.12-34.67-30.94-60.15-4-125.08,5.49-249.5,17.21-373.84,2.55-27,17.67-25.63,34.13-14.1,20.25,14.18,32.13,34,31.35,60.15C10993,2524.27,10993.48,2546.45,10993.48,2568.62Z" transform="translate(-544.36 -308.98)"/><path class="cls-4" d="M6120,1915.05c-2.27,32.57-12.37,62.66-22.68,92.65-6,17.57-17.92,31.78-37,22-18-9.25-46.61-15.73-38.77-45.76,9.38-36,22.8-70.69,25-108.48.73-12.59,12.8-18.42,25-16.15,19.57,3.65,37.65,11.46,45.54,31.66C6119.94,1898.39,6119.13,1907.27,6120,1915.05Z" transform="translate(-544.36 -308.98)"/><path class="cls-4" d="M9681.15,2666.67c.09-1.8.12-3.61.09-5.4l9.63,2.17Z" transform="translate(-544.36 -308.98)"/><path class="cls-3" d="M7607.69,2441.93l8.19-8.17Q7611.77,2437.84,7607.69,2441.93Z" transform="translate(-544.36 -308.98)"/><path class="cls-5" d="M8664.43,2272.56c-11.26-11.21-24.77,0-33.46,7.15-65.28,53.5-144,84.85-213.6,129.9-63.49,41.08-133.24,66.77-199.64,98.48-113.8,54.33-233.67,97-360.17,117.15-153.27,24.45-253.31-57.62-249.87-183.31l8.19-8.17c79.21,17.06,160.57-66.75,174.46-145.2,5.71-32.25,7.44-67.42-23.8-92-57.8-45.5-153.89-21.65-182.72,46.17-15.06,35.45-26.46,73.64-44.53,106.43-34.82,63.15-79.68,120.78-120.38,180.69-45.33,66.75-93.6,131.25-154.48,184.85-80.92,71.24-113.51,44.1-139.15-41.79-1.58-5.28-2.27-10.83-3.3-16.27-18.9-99.83-20.87-201.22-23.22-302.11-2.32-99.73-2.33-199.56,5.06-299.59,8.71-117.8,6.85-236.35,11.18-354.52.89-24.46,17.65-51.05,11.79-72.5-14.58-53.37,7.27-103.81,9.18-155,1.62-43.55-2.32-91.63,15.8-137.25,13.71-34.51,10.08-76.42,11.37-115.13,1-29-20.05-49-44.64-52-26.69-3.28-18.36,25.57-21.79,41.29-22.16,101.57-30.26,205.27-39.55,308.3-15.05,166.87-24.8,334.32-32.09,501.73-4.84,111-1.39,222.46-1.92,333.7-.06,13.62,3.19,28-6.37,40.26-81.92,104.84-169,201.83-306.65,235.81-76.44,18.87-136.88,1.27-180.41-61.29-35.69-51.29-35.69-54.43,23.65-74.63,59.05-20.1,99-57.47,120.51-115.85,25.24-68.41-12.06-144.09-76.17-152.56-51.24-6.78-98.1,24.43-126.47,83.52-10.08,21-13.75,44.79-32.3,62.1-48.69,45.45-91.71,97.17-146.59,135.73-51.78,36.38-104.74,71.59-166.11,90.16-51.6,15.63-90.9-13.68-91.43-65.79-1-99.24.13-198.51,27.06-294.91,10-35.92-21.49-32.12-35.87-44.16-20.11-16.82-28.48,5.41-34.05,16.1-16.09,30.84-21.76,65.33-22.92,99.83-2.11,62.74-13.39,120.65-70.76,158.52-2.27,1.49-3.84,4-5.87,5.92-77.69,73.44-166,127.89-271.69,151.18-26.84,5.91-51.78,1.64-75.63-13.52-53.48-34-75.37-81-70.21-144.47,6.18-76,30.58-141.17,94.66-186.69,20.28-14.4,46.76-20.55,66.64-6.87,18,12.4-1.61,32.88-5,49.44-2.26,11-8.31,21.2,1.92,30.52,13.16,12,24.33.25,33.25-6.05,28-19.75,46.06-44.13,29.44-81.08s-83.62-79-114.38-68.75c-76,25.37-127.19,75.38-147.91,154.13-4.53,17.2-4.86,38.17-15.24,50.74-59.41,72-127.35,133.11-217.87,166-65.83,23.88-107.1-3.37-126.83-70.67-15.23-51.93-5.47-104.87-7.41-157.3-1.16-31.13-20.22-47.51-45.39-51-22-3.09-17,23.36-22.44,36.88-35.52,88.76-69.07,178.47-141.25,246.21-18.33,17.21-39.73,28-64.39,18.33-25.14-9.85-44.7-33.95-42.14-57.37,7.92-72.2-17.14-149.87,34.87-215.7,23.8-30.13,4.44-52.22-22.7-66.29-30.59-15.87-44.13,10.16-52.34,30.17-44.91,109.48-44.94,219.52,29.23,314.61,57.32,73.49,112.7,91.39,196.12,14.34,26.69-24.65,44.06-56.8,61.5-88.24,11.66-21,20.43-26.57,30.65.47,3.88,10.26,8.52,20.62,14.82,29.52,42.28,59.64,101.48,110.34,189.38,85.43,60-17,106.6-51.16,144.42-97.83,34.28-42.29,42.5-43.21,63,8,19.42,48.46,54.24,85.41,93.84,114.35,48.92,35.74,104,32.06,165,17.94,100-23.14,174.78-78.74,242.95-148.89,7.44-7.64,10.18-21.68,24.37-17.62,11.41,3.26,9.25,15.27,11.86,24.44,30.3,106.34,122.22,166.87,238.07,107.43,75-38.49,137-92.53,190.11-157.49,6.52-8,13.76-21,26.6-15.65,11,4.6,12,17.7,12.86,28.91,5.43,72.18,51.77,121,105.95,156.14,107.18,69.48,283.11,43.67,373.9-46.76,35.78-35.64,73.39-69.56,100.16-114.29,7.94,30.28,10.81,57.56,15,84.65,9.21,59.2,23,116.58,59.71,166.34,48.24,65.46,116.68,89.34,176.86,55.28,28.48-16.12,55.91-37.66,77-62.5,66.24-78,125.51-160.71,156.61-260.33,3.82-12.25,9.76-28,27-33.88,3.28,12.48,6.24,23,8.83,33.7,27.49,112.92,102.47,180.42,217.16,198.59,62.45,9.9,124,9,186.3-1.28,104.7-17.28,203-54.42,300.95-92.77,69.45-27.2,135.91-61.28,199.34-100.33,77.39-47.65,153.9-97.2,208.63-172.32C8666.43,2299.38,8676.79,2284.85,8664.43,2272.56ZM7717,2250.18c28.54-5.33,33.19,8.9,19.7,33.91-21.89,40.56-48.88,76.18-93.76,94.51-17.62,7.2-31,5.61-33.86-14.76C7602.46,2316.21,7663.46,2250.68,7717,2250.18Zm-1147.53,49.21c11.53-13.19,32.44-12.13,46.37-2.54,15.4,10.61,14.07,26.88,5.87,44.41-19.37,41.47-52.71,69.8-87.26,97.09-6.81,5.38-17.3,13.84-25.9,6.26-4.84-4.28-3.59-15.43-4.81-22C6509.77,2371.76,6538.68,2334.57,6569.46,2299.39Z" transform="translate(-544.36 -308.98)"/><path class="cls-3" d="M5113.5,3027.1c-207-32.22-415.59-50-624.22-64.76-182.84-12.92-366-25.42-549.45-26.34-31.9-.16-36.91-7.91-28-37.73,30.85-103.59,54-209,57.36-317.5.73-23.37,15.12-30.88,31.9-38.25a490.78,490.78,0,0,0,132.51-85.62c229.67-207.62,325.44-477.44,353-775.75,10.72-115.82,4.15-233-24-347.2-31.48-127.83-72.86-250.26-176.61-341.66-74.72-65.82-193.06-72.39-267.05-8-37.32,32.46-58.46,77-74,123.54-42.65,128-49.12,260.64-49.06,394,.07,141.84-4.52,283.94,2.66,425.44,9,177.91,2.15,355.64,5.54,533.41.37,19.73-8.71,31.78-26.85,37-141.23,40.35-276.17,32.7-383.65-77.16-155.27-158.7-181-351.36-128-559.86,5.3-20.87,17.33-41.41,4.15-68.64-30.37,20.08-42.72,47.86-49.62,77.46-32.38,138.77-33.62,276,15.6,412.5,73.56,204,278.13,351.17,514.89,307.44,33.11-6.11,39.36.91,37.09,30.6-7.61,99.58-28.48,196.8-49.29,294.17-5.34,25-21.53,21.12-37.56,21.17-73.83.23-147.68-.83-221.49.48-42.53.75-82.71,9.68-111,46.76-49.3,64.68-45.63,162.77,9.08,222.38,61.7,67.23,159.15,82.68,231.08,36,69.17-44.86,111.89-111.15,144.29-184.37,13-29.31,29-42,62.73-40.18q76.92,4.14,153.92,7.83c106.93,5.25,214.24,4.12,321,11.65,56.93,4,113.91,3.82,170.68,8.18,131.38,10.09,262.85,19.45,394,32.32,80.36,7.9,161.67,11.35,240,34.46C5201,3059.1,5178.24,3037.18,5113.5,3027.1ZM3970.25,1374.54c3.26-93.88,12.84-186.68,51.31-275.84,47-108.79,182.12-105,248.23-41.24,72.42,69.82,104.28,159.25,125,253.56,17.52,79.86,26.92,161.1,28.82,249.58-11.92,278.29-90.1,539.17-277.5,760.31-39.62,46.77-88.07,84.32-139.68,117.84-21.71,14.1-29.81,10.7-28.42-14.83,2.41-44.29,7-88.55,7.13-132.84C3986.13,1985.46,3959.64,1680.24,3970.25,1374.54ZM3779.58,3038.07c-40,62.82-87.37,118.8-158.26,147.77-49.7,20.31-93.38,6.54-125.45-35.73-20.48-27-27.35-58.74-14.67-90.15,11.25-27.87,39.55-30.71,66.29-34.58,44.08-6.37,88.23-9.13,126.2-8,34.3,0,62.11-.3,89.91.13C3776.73,3017.68,3792.21,3018.23,3779.58,3038.07Z" transform="translate(-544.36 -308.98)"/><path class="cls-2" d="M10844.37,1924.34c-9.18-102-39.87-198.13-88.45-285.91-48-86.75-111.48-161.68-197.78-219.2-92.57-61.7-191.15-103.56-297.07-131.47-75.75-20-153.46-26.32-231.46-21.86-35.93,2-43.61-13.13-39.09-43.85,3.42-23.24,8.37-46.8,7.47-70-1.3-33.31-27.2-43.72-55.32-44.2-29.07-.51-24.78,23.63-26.33,42.69-2.57,31.71-6.24,63.34-8.56,95.06-1.34,18.24-9.75,25.71-28.17,29.15-205.56,38.41-383.92,125.72-533.48,276.18-79.24,79.7-137,171-175.75,271.54-65.17,169.23-83.94,345.55-39.73,525.34,27.32,111.11,80,208.23,167.74,280.23,82.66,67.81,183.65,89.84,289.92,76.27,32.86-4.2,71.17-2.63,92.84-37.63.09-1.8.12-3.61.09-5.4-9-3.25-15.92,2.4-23.69,5.14-100.41,35.37-197.45,17.6-281.48-38.64-121.53-81.34-185.83-206.36-201.37-347.58-23.54-214.09,17-414.47,156.75-589.49,122.64-153.65,278.07-255.16,462.85-314.31,95.57-30.59,96.46-27.85,96.12,70.89,0,9.73.48,19.53-.45,29.19-17.65,183.85-16.93,368.51-22.88,552.82-4.4,136.16-.67,272.59-1.14,408.9,0,11.45,7.06,28.11-7.91,33.34-13.8,4.83-19.69-12.29-29.37-19.33-26-18.87-36-48.7-50.42-75.08-10.67-19.45-24.35-35.34-45.18-23.53-20.22,11.47-2.85,32,3.48,43.65,25.08,46.27,53.07,91.26,100.07,119.62,18.84,11.36,30.62,24.55,30.11,49.45-3.87,191.68,9.16,383,15.91,574.39,3,84.41,9.65,168.88,19.2,252.8,4.46,39.13,2.3,80.81,24.31,116.76,6.41,10.47,11.77,25.66,26.89,20.59s12.92-20.31,8.7-32.39c-25.13-71.92-14.76-148-17.85-220.87-9.17-216.6-3.31-433.82-4.6-650.79-.19-32.61,9.09-38,38.63-26.57,65.31,25.17,132.93,35.67,203.24,25.86,53.21-7.43,105-20.56,157-33.67,101.17-25.52,189.7-77.6,270.21-139.86,87.88-67.95,151.21-156.48,193.81-261.88C10837.32,2103.58,10852.73,2017.28,10844.37,1924.34ZM10772.92,2070c-27.82,126-105.1,225.33-202.59,313.49-61.63,55.72-133.31,89-203.31,124-59.32,29.64-127.76,43.94-198,50.63-61.58,5.88-119.42,8.92-179.34-6.17-37.25-9.38-52.3-27.55-50.7-66.79,2.79-68,.78-136.15.78-204.24.61-148.37,13.43-296.75,11.83-444.56-.87-79.9,10.65-158.62,9-238.53a1139,1139,0,0,1,21.07-240.59c3.46-17.72,15.06-16.37,27.45-18.09,107.15-14.88,212.64-9.38,317.6,18.73,106.33,28.48,200.39,81.1,275.08,158.44,50.37,52.15,96.27,110,131.2,178.34C10795.75,1817.5,10800.78,1943.76,10772.92,2070Z" transform="translate(-544.36 -308.98)"/><path class="cls-6" d="M2825,2054.09c.14-37-9.7-46.4-46.49-46.21-299.57,1.52-599.15.86-898.74.86s-599.16.68-898.74-.88c-37.09-.19-46.43,9.69-46.29,46.4,1.39,372.74,3.41,745.52-1,1118.21-1.07,90.72,64.14,148.82,147.81,148.3q796.31-5,1592.64.08c97.48.68,150.49-69.31,150.3-152.71Q2823.28,2611.11,2825,2054.09Zm-1507.61,1215c-87.77,0-175.56.32-263.33-.15-45.22-.24-68.28-24-68.29-69.37-.1-368.55.45-737.1-.85-1105.64-.13-35.89,11.55-43.64,45.17-43.34,175.54,1.53,351.13,2.11,526.65-.33,40.69-.57,47.45,13.54,47.33,49.78-1.18,358.81-.74,717.62-.65,1076.43,0,29-3.2,58.56,19.39,92.62Zm779.3-696.47v62.56c0,88.28-.25,176.56-.29,264.84s.12,176.55.93,264.82c.45,47.89-13.65,83-58.15,104.17-6.23,3-11.22,7.33-18.57,6.23-91.35-13.69-183.25-2.91-274.85-6-52.88-1.79-83.67-30.17-83.72-82.54-.36-364.23.14-728.46-.79-1092.69-.07-30.4,11.08-37,39-36.89,125.3.62,250.63.37,375.9-1.94,33-.61,19.87,21.46,19.94,33.67C2097.05,2250.06,2096.73,2411.32,2096.73,2572.58Zm670,612.77c0,61.21-32.25,85-100.57,84.21-144.85-1.64-289.72-.51-434.58-.52-5.57,0-11.15.12-16.72,0-22.2-.58-50.35,6.89-65.13-3.88-19.33-14.11,5.91-38.62,5.8-59.73-.49-93.14.3-186.29.42-279.44q.15-106.36,0-212.72,0-35.46,0-70.91,0-134.52.24-269,0-16.82,0-33.63,0-33.63-.08-67.26-.2-84.06-.91-168.13c-.32-35.1,6.66-48.14,45.37-47.66,175.48,2.2,351,1.65,526.5.33,30.85-.23,40.52,8.22,40.43,39.76C2766.48,2459.6,2767,2822.47,2766.72,3185.35Z" transform="translate(-544.36 -308.98)"/><path class="cls-7" d="M14941.27,1897.8c-6.73-7.59-18.83-11.3-29.2-14.67-51.56-16.76-105.51-22-158.87-25-133.4-7.51-267-1.38-399.85,9.94-43.56,3.72-88,6.56-131.77,11.59-60.14,6.91-121.07,15.72-182.4,11.79-16.36-1.05-26.54-4.56-26.32-23.38.54-45.89-1.9-91.92.86-137.65,6.9-114.28,16.09-228.42,24.1-342.63.68-9.64,1.54-20.13-1.43-29-6.5-19.4-21.69-27.27-42.2-27-22.94.29-22.45,15.63-22.35,31.59.2,34.69-6.52,68.93-8.42,103.28-7.41,134.12-12.61,268.37-17,402.63-.92,28.55-10.19,38.89-39.32,39-157.32.68-309.13,40.43-462.7,67.49-24.61,4.34-25.89,18.24-13.94,38.64,25,42.68,61.67,23,92.6,15.79,125.55-29.45,254-37.36,381.08-55.33,33.43-4.72,44.19,8.18,41.75,41.26-4.69,63.59-4.14,127.49-6.81,191.22-4.58,109.44-14.24,218.95-8.83,328.69.88,18-2.61,34.25-18.4,43.61-24.52,14.54-41.27,37.09-61.95,55.51-60.49,53.86-118.18,110.29-200,134.52-61.59,18.25-112.29-9.55-112.76-72.23-.34-44.14-3.9-88.25,3.69-132.69,7.46-43.67-32.9-85.76-78.37-89.4-66.28-5.31-123.76,17.66-181.11,48.08-40.43,21.44-73.21,53.3-121.48,79.78,0-29.59.06-51.53,0-73.47-.07-19.31-7.65-36.2-23-46.79-14.55-10-34-16.47-35,12-1.58,45.64-23.65,80.85-50.83,114.85-72.17,90.26-147,178.25-259.46,219.77-104.49,38.61-163.16,32.32-236.77-69.69-18.69-25.91-14.69-41.08,16.75-49.58,65.95-17.83,111.78-59.05,138.31-121.68,21.42-50.53,3.06-116.36-38.73-140-43.52-24.64-102.87-12.8-134.13,27.64-59.94,77.55-77.18,167.06-48.57,257.65,44,139.18,167.5,189.35,319,162.06,111.22-20,187.67-94.87,242.7-191.56,7.42-13,10-32.29,32.83-30.91,2.05,22.43,2.57,42.63-3.41,63.36-7.89,27.39-4.78,55.22,6.2,81.44,7.45,17.81,23,32.27,41.29,28.74,15.53-3,16.59-23,16.71-38.59.16-20.63-2.61-41.43,9.16-60.71,68.13-111.69,167.49-180.41,293.2-212.65,23.33-6,32.51,4.56,31.22,29-1.75,33.28-2.35,66.86,0,100.07,8.9,127.13,112.18,198.64,233.8,160.62,72.3-22.6,128.4-69.31,179.88-122.76,9-9.36,17.83-26.83,33.13-19,11.6,5.94,4.81,22.88,4.77,34.71-.7,230.69,1.44,461.35,9.43,691.89,1.52,44.08,5.22,88.42,9.2,132.37,3,33.46,8.34,69.51,32.8,96.83,8.59,9.59,17.39,26.71,33.46,17.54,12.47-7.11,6.31-22.52,3.78-34.42a1257.83,1257.83,0,0,1-27.4-254.67c-1.28-254.24-3.72-508.44,2.89-762.81,5.2-199.91,13.89-400,11-600.06-.46-31.55,12.57-42.72,39-45.24,41.33-4,82.8-6.54,124.24-9.29,84.3-5.6,168.51-12.68,252.75-18.78,166.65-12.08,332.3-12.67,497.36,15.62,14.9,2.55,33.68,10.43,41.61-5.81C14966.87,1924.74,14951.75,1909.61,14941.27,1897.8Zm-2400,733.15c7.7-47.27,28.76-88.53,63.57-121.86,14.32-13.7,34.79-13.78,49.86-2.32s11.39,28.45,3.33,45.13c-19.85,41.11-52.88,69.94-88.28,96.23C12551.35,2661.83,12538.57,2658.18,12541.31,2631Z" transform="translate(-544.36 -308.98)"/><path class="cls-3" d="M14886.32,2480.34a437.41,437.41,0,0,1,39.47-23.19c50.53-26.78,105.65-42.17,158.49-63.23,13.18-5.26,32.35-7.48,30.86-28.33-1.51-21.09-13.38-36-33.17-44-14.79-6-29.79-4.59-45-.9-55.72,13.53-109.13,33.64-158.24,62.79-64.57,38.33-116.45,86.57-112.31,171a40.62,40.62,0,0,1-6.74,23.29c-70.82,103.24-153.52,194.38-271.36,244.89-103.83,44.5-185.74,20.24-238.95-66-12.86-20.84-17.66-34.59,15.73-43.09,67.2-17.12,114.45-60.61,141.3-125,20.25-48.53,3.87-111.62-36.8-143.41-34.78-27.19-79.77-24.54-118.83,7-103.08,83.27-114.63,280.83-22.05,375.61,99.21,101.55,333.11,112.6,458.47-40.49,36.92-45.1,72.92-91,91.77-147.49,6.38-19.11,15.7-25.65,31.9-7.83,6.44,7.07,14.7,12.63,22.6,18.23,65.47,46.38,131.05,92.62,202.74,143.23-82.62,26.29-158.3,28.55-234.68,24.48-11.21-.6-25.24-15.09-33,2.06-8,17.56-3.52,36.36,9.81,50.33,11.65,12.22,28,17.91,44.5,21.39,64.88,13.69,128.94,10.26,193.89-3.43,48.13-10.15,79.72-35.54,88.48-82,8.31-44.07-22.37-71.5-54.79-95.2-56-40.93-112.54-81.09-167.88-122.88C14832.51,2550.41,14834.2,2515.38,14886.32,2480.34Zm-655.87,178.15c8.48-58.55,27.74-104.52,63.57-143.24,15-16.25,33.7-22.53,51.92-9.31,16.8,12.21,9.62,30.44,1.61,45.42C14322.18,2598.85,14283.71,2632,14230.45,2658.49Z" transform="translate(-544.36 -308.98)"/><path class="cls-8" d="M12109.45,2484.67c60.28-47.84,134.76-62.87,203.5-91,42.57-17.41,45.63-30.92,12.06-62.72-16.88-16-35.25-15.76-54.2-11-56.75,14.26-112.18,33.37-161.8,64.49-53.52,33.56-110,74.54-107.39,142.18,2,52.29-23.85,81.51-49.46,116-8.23,11.07-18.77,20.42-27.94,30.84-67,76.1-142.16,140.28-244.56,163.16-106.76,23.86-138.4-7.4-195.37-85.6-14-19.16-11.12-35.45,16.29-39.87,79-12.74,120.59-67.08,148.48-135.17,17.19-41.94-8.1-109.67-48.32-136-36.13-23.64-80.13-14.34-120.72,22.5-35.64,32.34-54.24,73-64.47,118.47-38.31,170.27,47.08,303.27,215.78,319.4,188.66,18,285.42-78.27,376.4-233.06,25-42.6,20.45-44.56,61.57-15,64,46,128.51,91.29,202.84,144-85.32,13.65-156.56,36.33-232.41,23.07-13-2.27-33.85-10.58-40,9.09-6.07,19.34.25,39.17,20.78,49.3a212.4,212.4,0,0,0,38.81,14.15c72.14,19.41,143.44,8,213.43-10.15,60.59-15.7,79.64-97.28,36.42-140.85-59.74-60.23-132.61-103.26-199.49-154.06C12066.57,2554.12,12065.8,2519.32,12109.45,2484.67Zm-564.92,22c11.94-9.88,25.84-9.57,38.07.23,11.94,9.55,16.29,21.43,9.19,36.56-20.65,44-54.9,75.74-94.91,100.92-19.67,12.38-17.74-6.25-18.78-22.19C11484.5,2577.67,11506.92,2537.83,11544.53,2506.72Z" transform="translate(-544.36 -308.98)"/></svg>