<svg id="Camada_1" data-name="Camada 1" xmlns="http://www.w3.org/2000/svg" viewBox="0 0 1623.01 510.11"><defs><style>.cls-1{fill:#fbeb37;}.cls-2{fill:#010101;}</style></defs><path class="cls-1" d="M936.69,77.8q42.64-3.43,85.31-6.73c23-1.79,46-3.5,69-5.32,27.12-2.16,54.22-4.41,81.33-6.59,22.31-1.8,44.64-3.52,67-5.35q39.68-3.24,79.33-6.61,31.73-2.66,63.46-5.32,38.16-3.29,76.31-6.66c20.16-1.77,40.32-3.48,60.47-5.31,27.25-2.48,54.49-5.06,81.73-7.57,12-1.11,24.07-2.16,36.86-3.31,0,9.17-.07,18.06,0,26.95q.45,48.29,1,96.55c.29,26.38.77,52.75,1,79.13q.51,68.68.69,137.38c0,9.77-.89,19.53-1.34,29.3-.14,3.13-1.47,4.63-4.82,4.93-26.43,2.3-52.85,4.75-79.27,7.18-30.88,2.84-61.74,5.78-92.63,8.56-24.61,2.21-49.24,4.22-73.86,6.35-29.08,2.52-58.15,5.14-87.23,7.61-21.81,1.85-43.65,3.53-65.47,5.33-26.27,2.17-52.55,4.42-78.83,6.56-22.31,1.83-44.63,3.56-66.95,5.34q-41.42,3.32-82.81,6.64c-23.15,1.82-46.31,3.53-69.46,5.35q-41.42,3.26-82.82,6.58c-18.52,1.46-37,2.84-55.56,4.29q-42.66,3.36-85.31,6.76c-22.65,1.78-45.31,3.47-68,5.28-27.11,2.16-54.21,4.41-81.32,6.6-22.32,1.8-44.64,3.52-67,5.34q-39.66,3.25-79.32,6.62c-21.16,1.77-42.32,3.48-63.47,5.3q-38.16,3.27-76.31,6.66c-20.16,1.77-40.32,3.48-60.47,5.3q-41.88,3.76-83.73,7.66Q100,521.71,65.79,524.9C53.91,526,42,527.27,30.15,528.41c-3.26.31-6.53.46-10.44.73,0-2.47,0-4.4,0-6.34q-.49-54-1-108c-.27-24.88-.8-49.76-1-74.64q-.51-78.9-.71-157.79c0-7.29.65-14.57,1-21.86.18-3.4,1.45-4.95,5.41-5.31,38.31-3.45,76.6-7.26,114.9-10.84q59.69-5.59,119.39-11,62.44-5.61,124.9-11,53-4.57,106.07-8.94,64-5.34,127.92-10.59c31.9-2.57,63.83-4.87,95.74-7.4,37.68-3,205.94-16.2,224.3-17.68" transform="translate(-17.03 -19.03)"/><path class="cls-2" d="M369.67,164.09v26.28H336.12c2,3.49,3.56,6.33,5.21,9.12,16.23,27.56,11,78.07-26.43,97.47-15.27,7.91-31.5,11.3-48.57,9.27-7.19-.85-13.37-.21-18.56,5.27-4.32,4.56-9.12,8.7-13.17,13.48-3.08,3.64-2.24,5.55,2.57,6.2A129.83,129.83,0,0,0,254,332.35c28.06.17,56.12-.12,84.17.36,13.39.23,26.31,3.4,37.67,11,11.67,7.82,17.64,19.07,18.78,32.88,2.35,28.6-9.86,49.25-34.77,62.8-17.19,9.35-35.92,13.6-55.13,15.54-25.69,2.6-51.36,2.24-76.67-3.69-13.39-3.15-26.08-8.08-35.77-18.33C177,416.71,176.5,391.53,191,371.06a81.2,81.2,0,0,1,9.37-10.93c3.29-3.24,7.11-5.94,10.79-8.94-2-2.56-4.37-5-6-7.95-4.21-7.7-4.63-15.92.41-23.11,4.81-6.86,10.9-12.83,16.51-19.11a53.84,53.84,0,0,1,4.29-4c-7.8-7.17-16.44-13.39-22.88-21.38-19.19-23.8-18.12-60.92,2-86.85,19.13-24.6,44.79-35.16,75.12-29,25.93,5.27,51.79,3.7,77.74,4.28,3.62.08,7.26,0,11.32,0M290.39,359.33v-.76c-11.94,0-23.91.44-35.83-.16A27.6,27.6,0,0,0,235,364.73c-7.84,6.17-15.89,12-20.69,21.11-8,15.16-3.25,29.57,12.28,36.74a51,51,0,0,0,10.77,3.7c27.83,5.87,55.64,4.84,83.35-.86,11.63-2.39,22.72-6.32,31.91-14.17,10.75-9.19,14.14-21,10.57-34.51C359.9,364.35,350,360,338.62,359.5c-16.05-.69-32.15-.17-48.23-.17m28.79-121.14c.06-16.94-3-29-12.12-38.69-14.85-15.78-33.35-17.89-53-12-17.13,5.11-28.89,16.52-32.37,34.32s-.35,35,14.65,46.84c17.81,14.09,38.44,15.83,59.13,7.35,18.17-7.44,23.36-23.52,23.75-37.81" transform="translate(-17.03 -19.03)"/><path class="cls-2" d="M1482.79,332.4h38.67v25.84h-67.67V344.55c-2,.78-3.46,1.32-4.88,1.89-26.49,10.65-53.68,18.51-82.52,17.53a103.46,103.46,0,0,1-29.66-5.14c-27.08-9.24-37.62-31.27-34-58.42,2.53-18.72,13.7-31.14,30.12-39.35,15.13-7.56,31.4-11.85,48-13.88,23.17-2.82,46.52-4.16,69.79-6.14l1.94-.15c0-13.41.73-26.66-.25-39.78-.68-9-8.4-14.59-19.23-15.66-26.08-2.57-50.79,1.9-73.78,14.93-3.14,1.78-4.36,3.79-4.21,7.43.31,7.44.09,14.9.09,22.63h-28.79a29.77,29.77,0,0,1-.36-3.32c0-12.62-.14-25.24.12-37.84a7.27,7.27,0,0,1,3-5.35c34-19.4,70.28-29.12,109.64-24.5,16.6,1.94,32,6.88,38.59,24.28,2.88,7.6,3.75,16,4.94,24.17.74,5.05.45,10.26.46,15.4q0,51.54,0,103.07Zm-29.16-66.11a25.67,25.67,0,0,0-2.64-.24c-25.34,1.14-50.61,2.95-75.43,8.62-10.83,2.47-21.73,4.89-30.94,11.56-10.58,7.66-13.61,18.32-11.23,30.71,2.15,11.18,10,16.68,20.37,19.27a52.34,52.34,0,0,0,9.82,1.39c31.47,1.54,59.92-9.09,87.79-21.94a4.46,4.46,0,0,0,2.16-3.25c.14-15.24.1-30.47.1-46.12" transform="translate(-17.03 -19.03)"/><path class="cls-2" d="M1091.53,190.32h-68.48V164h69c0-11.86-.69-23.31.21-34.64.85-10.8,2.23-21.83,5.41-32.14,5.9-19.1,20.9-28.3,39.89-30.31,40.8-4.3,78.57,5.53,113.7,26.26a19.69,19.69,0,0,1,1.8,1.46l-18.15,22.82a136.07,136.07,0,0,0-46.49-21c-13.41-3.19-27-5.37-40.83-3.82-15.46,1.72-24,9.61-25.32,25-1.24,15.18-1.18,30.45-1.7,46.18h93.85v26.36h-93V332.46h82.72v25.89H1037.39V332.59h54.14Z" transform="translate(-17.03 -19.03)"/><path class="cls-2" d="M469.42,358.27V332.39h40.5V190.91l-34.05,4.55c-1.43-8.1-2.81-15.87-4.09-23.14,8.65-1.65,17.14-3,25.47-5A33.4,33.4,0,0,0,515.51,156c3.92-4.74,8.94-6.15,14.72-4.56,5.32,1.47,7.77,5.66,8.23,10.73.61,6.58.68,13.21.83,19.83.12,5.28,0,10.56,0,16.89,2.06-1.37,3.5-2.25,4.85-3.25,14.79-10.93,29.2-22.51,46.27-29.86,15.21-6.54,31-10.25,47.42-5.37,18,5.34,27.41,19.05,33.67,36.07l-28.91,11.62c-2.14-4.59-3.84-9.08-6.24-13.16-5.59-9.56-12.39-12.09-23.65-9.06-13.51,3.63-25.31,10.78-36.36,19-11.7,8.7-22.9,18.08-34.19,27.31-1.36,1.11-2.73,3.18-2.74,4.81-.16,31.52-.12,63-.12,95.2h84.8v26.1Z" transform="translate(-17.03 -19.03)"/><path class="cls-2" d="M844.73,190.81c-29.42,8.14-58.69,4.65-88.15,2.7-1.53-8.42-3-16.69-4.67-25.67,10.64.68,20.81,1.28,31,2,14.08,1,28.13,1.72,42.09-1.41,9.4-2.11,18-5.46,24.4-13.19,3.82-4.59,9.07-5.87,14.89-4.39s8.39,5.71,9.11,11.18a102.43,102.43,0,0,1,.76,12.87q.07,75.68,0,151.34v6h82.43v26H751.53V332.48h93.2Z" transform="translate(-17.03 -19.03)"/><path class="cls-2" d="M886.34,78.42h0c-6.49-8.64-18-9.76-25.76-2.52l-2.73,2.56-2.73-2.56c-7.74-7.24-19.28-6.12-25.77,2.52a22.23,22.23,0,0,0,.22,26.51,20.42,20.42,0,0,0,2,2.23l26.24,24.56,26.24-24.56a20.42,20.42,0,0,0,2-2.23,22.23,22.23,0,0,0,.21-26.51" transform="translate(-17.03 -19.03)"/></svg>