<svg id="Camada_1" data-name="Camada 1" xmlns="http://www.w3.org/2000/svg" viewBox="0 0 425.2 283.46"><defs><style>.cls-1{fill:#007dc4;}.cls-1,.cls-3{fill-rule:evenodd;}.cls-2,.cls-3{fill:#231f20;}</style></defs><polygon class="cls-1" points="191.5 127.42 200.42 132.57 209.33 137.73 209.33 148.03 209.33 158.34 200.42 163.49 191.5 168.65 182.58 163.49 173.67 158.34 173.67 148.03 173.67 137.73 182.58 132.57 191.5 127.42"/><polygon class="cls-1" points="252.23 158.33 261.15 163.49 270.08 168.65 270.08 178.95 270.08 189.27 261.15 194.43 252.23 199.59 243.3 194.43 234.38 189.27 234.38 178.95 234.38 168.65 243.3 163.49 252.23 158.33"/><polygon class="cls-1" points="251.86 83.88 262.58 90.05 273.3 96.24 273.3 108.6 273.3 120.97 262.58 127.15 251.86 133.33 241.14 127.15 230.43 120.97 230.43 108.6 230.43 96.24 241.14 90.05 251.86 83.88"/><polygon class="cls-1" points="266.54 129.51 273.69 133.62 280.85 137.74 280.85 145.97 280.85 154.2 273.69 158.32 266.54 162.44 259.38 158.32 252.23 154.2 252.23 145.97 252.23 137.74 259.38 133.62 266.54 129.51"/><polygon class="cls-1" points="220.1 164.57 225.47 167.65 230.85 170.74 230.85 176.9 230.85 183.06 225.47 186.15 220.1 189.24 214.73 186.15 209.36 183.06 209.36 176.9 209.36 170.74 214.73 167.65 220.1 164.57"/><polygon class="cls-1" points="209.36 100.64 216.5 104.75 223.63 108.87 223.63 117.1 223.63 125.34 216.5 129.45 209.36 133.57 202.23 129.45 195.1 125.34 195.1 117.1 195.1 108.87 202.23 104.75 209.36 100.64"/><path class="cls-2" d="M293.23,107.29v20.44a23.05,23.05,0,0,0,1.74,9.53,11.62,11.62,0,0,0,5,5.51,16.35,16.35,0,0,0,7.9,1.77,17.16,17.16,0,0,0,8.21-1.82,12.06,12.06,0,0,0,5.23-5.53,21.15,21.15,0,0,0,1.83-9.35V107.29h-8.26v21c0,3.26-.59,5.66-1.74,7.23a5.78,5.78,0,0,1-5,2.34,5.61,5.61,0,0,1-4.88-2.4c-1.16-1.59-1.73-4-1.76-7.17v-21Zm42.19,36.65h8.27V129.2h13.15v-6.74H343.69v-8.38h14.07v-6.79H335.42v36.65ZM398.59,123H384.94v6.47h5.66v7.67a6.53,6.53,0,0,1-1.56.35,19.76,19.76,0,0,1-2.47.14,13.48,13.48,0,0,1-4.68-.79,10.3,10.3,0,0,1-6.05-6.11,14.42,14.42,0,0,1-.85-5.06,13.72,13.72,0,0,1,.93-5.23,10.13,10.13,0,0,1,2.56-3.72,11.07,11.07,0,0,1,3.88-2.23,15.14,15.14,0,0,1,4.8-.74,28.26,28.26,0,0,1,3.55.21,17.15,17.15,0,0,1,2.74.56,14,14,0,0,1,2.2.82l1.74-6.75a18.46,18.46,0,0,0-2.38-.78,29.65,29.65,0,0,0-3.44-.64,35.81,35.81,0,0,0-4.34-.27,26.1,26.1,0,0,0-8.34,1.28,19.22,19.22,0,0,0-6.62,3.74,16.75,16.75,0,0,0-4.38,6,21,21,0,0,0-1.61,8.17,21.33,21.33,0,0,0,.61,5.13,18.54,18.54,0,0,0,1.75,4.51,15.45,15.45,0,0,0,2.82,3.68,16.41,16.41,0,0,0,6.2,3.66,27.54,27.54,0,0,0,8.69,1.24,33.64,33.64,0,0,0,4.76-.35,42.44,42.44,0,0,0,4.24-.79q1.95-.48,3.24-.93Z"/><path class="cls-3" d="M293.16,156.37V161c0,2.64,1.22,3.82,3.32,3.82s3.46-1.22,3.46-3.8v-4.65h-1.87v4.77c0,1.48-.55,2.17-1.53,2.17s-1.51-.73-1.51-2.17v-4.77Zm12.21,8.31v-2.5c0-1.36,0-2.53-.09-3.64h.05a29.48,29.48,0,0,0,1.44,2.93l1.76,3.21h2v-8.31h-1.72v2.42a32,32,0,0,0,.15,3.48h0a24.83,24.83,0,0,0-1.35-2.85l-1.73-3h-2.2v8.31Zm8.86-8.31v8.31h1.88v-8.31Zm9.73,8.31,2.8-8.31h-2l-1.06,3.55c-.28.94-.54,1.94-.75,2.93h0c-.2-1-.45-2-.74-3l-1-3.51H319.1l2.67,8.31Zm10.71-5h-3.06v-1.73h3.23v-1.54h-5.11v8.31H335v-1.54h-3.41v-2h3.06v-1.53Zm3.71,5h1.86V161.4h.56c.77,0,1.13.28,1.37,1.34a11,11,0,0,0,.56,1.94h1.92a23.23,23.23,0,0,1-.66-2.36,2.09,2.09,0,0,0-1.11-1.55v0a2.21,2.21,0,0,0,1.46-2,2,2,0,0,0-.78-1.72,4.08,4.08,0,0,0-2.68-.67,15,15,0,0,0-2.5.18v8.19Zm1.86-6.91a4.27,4.27,0,0,1,.85-.06c.86,0,1.38.4,1.38,1.14S341.92,160,341,160h-.74v-2.27Zm7.2,6.53a5.54,5.54,0,0,0,2.36.52c2.28,0,3.34-1.19,3.34-2.58,0-1.19-.68-2-2.15-2.5-1.09-.42-1.54-.65-1.54-1.18s.39-.8,1.21-.8a3.85,3.85,0,0,1,1.72.4l.42-1.51a4.92,4.92,0,0,0-2.12-.41c-1.94,0-3.14,1.07-3.14,2.48,0,1.23.92,2,2.29,2.48,1,.35,1.39.66,1.39,1.16s-.45.91-1.32.91a4.79,4.79,0,0,1-2.08-.51l-.38,1.54Zm9.07-7.93v8.31h1.87v-8.31Zm5.58,8.27a15.87,15.87,0,0,0,2.12.13,6,6,0,0,0,3.85-1.07,4.3,4.3,0,0,0,1.36-3.38,3.69,3.69,0,0,0-1.39-3.15,5.41,5.41,0,0,0-3.42-.86,15.42,15.42,0,0,0-2.52.18v8.15Zm1.87-6.81a3.61,3.61,0,0,1,.85-.08,2.38,2.38,0,0,1,2.64,2.64,2.6,2.6,0,0,1-2.84,2.91,3.14,3.14,0,0,1-.65,0v-5.43Zm13.09,4.72.64,2.13h2l-2.59-8.31h-2.45l-2.53,8.31h1.94l.58-2.13Zm-2.12-1.41.5-1.76c.13-.48.26-1.11.37-1.61h0c.13.48.28,1.11.4,1.61l.53,1.76Zm8,3.5a15.8,15.8,0,0,0,2.13.13,6.08,6.08,0,0,0,3.85-1.07,4.26,4.26,0,0,0,1.36-3.38,3.7,3.7,0,0,0-1.4-3.15,5.41,5.41,0,0,0-3.42-.86,15.42,15.42,0,0,0-2.52.18v8.15Zm1.87-6.81a3.68,3.68,0,0,1,.85-.08,2.37,2.37,0,0,1,2.63,2.64,2.58,2.58,0,0,1-2.83,2.91,3.24,3.24,0,0,1-.65,0v-5.43Zm13.71,1.81h-3.05v-1.73h3.24v-1.54h-5.11v8.31h5.29v-1.54h-3.42v-2h3.05Z"/><path class="cls-3" d="M293.13,177H295v-3.34h3v-1.53h-3v-1.9h3.2v-1.54h-5.07V177Zm11.07-5h-3.05v-1.72h3.24v-1.54h-5.12V177h5.29v-1.54h-3.41v-2h3.05v-1.54Zm1.64,5a14.92,14.92,0,0,0,2.13.12,5.86,5.86,0,0,0,3.84-1.07,4.21,4.21,0,0,0,1.37-3.37,3.73,3.73,0,0,0-1.4-3.15,5.42,5.42,0,0,0-3.41-.86,14.5,14.5,0,0,0-2.53.19v8.14Zm1.88-6.81a3.57,3.57,0,0,1,.84-.08,2.37,2.37,0,0,1,2.64,2.64,2.59,2.59,0,0,1-2.83,2.91,3.19,3.19,0,0,1-.65,0v-5.43Zm11.64,1.8H316.3v-1.72h3.25v-1.54h-5.12V177h5.28v-1.54H316.3v-2h3.06v-1.54Zm1.64,5h1.86V173.7h.54c.79,0,1.14.28,1.39,1.33a9.58,9.58,0,0,0,.56,1.95h1.92c-.16-.32-.41-1.41-.67-2.36a2.1,2.1,0,0,0-1.1-1.55v0a2.22,2.22,0,0,0,1.46-2,2.07,2.07,0,0,0-.78-1.73,4.14,4.14,0,0,0-2.68-.67,13.73,13.73,0,0,0-2.5.19V177Zm1.86-6.9a3.34,3.34,0,0,1,.85-.07c.86,0,1.37.4,1.37,1.14s-.55,1.19-1.48,1.19h-.74v-2.26Zm9.87,4.76.64,2.14h2l-2.59-8.31h-2.45L327.8,177h2l.57-2.14Zm-2.12-1.4.5-1.76c.13-.48.26-1.11.37-1.6h0c.12.48.26,1.11.4,1.6l.52,1.76Zm5.78,3.54h5.17V175.4h-3.3v-6.73h-1.87V177Zm9.13,0a14.72,14.72,0,0,0,2.13.12,6,6,0,0,0,3.84-1.07,4.24,4.24,0,0,0,1.37-3.37,3.73,3.73,0,0,0-1.41-3.15,5.38,5.38,0,0,0-3.41-.86,14.3,14.3,0,0,0-2.52.19v8.14Zm1.87-6.81a3.64,3.64,0,0,1,.84-.08,2.38,2.38,0,0,1,2.65,2.64A2.6,2.6,0,0,1,348,175.6a3.29,3.29,0,0,1-.65,0v-5.43Zm11.64,1.8h-3v-1.72h3.24v-1.54H354.1V177h5.28v-1.54H356v-2h3v-1.54Zm12.67.3h-3.09v1.47h1.28v1.74a3,3,0,0,1-.91.1,2.48,2.48,0,0,1-2.62-2.7,2.53,2.53,0,0,1,2.76-2.71,4.33,4.33,0,0,1,1.92.37l.39-1.53a6.35,6.35,0,0,0-2.31-.38c-2.72,0-4.72,1.57-4.74,4.34a4.14,4.14,0,0,0,1.18,3,4.65,4.65,0,0,0,3.37,1.11,9.16,9.16,0,0,0,2.77-.47v-4.36Zm5,4.88c2.44,0,4.07-1.64,4.07-4.37,0-2.29-1.39-4.2-3.94-4.2a4,4,0,0,0-4,4.35c0,2.36,1.45,4.22,3.9,4.22Zm.07-1.49c-1.26,0-2-1.22-2-2.78s.73-2.81,2-2.81,2,1.28,2,2.77-.73,2.82-2,2.82Zm5.25-7V177h1.87v-8.31Zm7.8,6.17.65,2.14h2l-2.58-8.31h-2.45L384.91,177h1.95l.57-2.14Zm-2.11-1.4.51-1.76c.11-.48.26-1.11.37-1.6h0c.12.48.27,1.1.41,1.6l.51,1.76Zm1.26-6.77-1.07,1.56h1.48l1.54-1.56Zm4.31,9.92a5.38,5.38,0,0,0,2.35.52c2.28,0,3.34-1.18,3.34-2.57,0-1.18-.68-1.95-2.15-2.5-1.08-.41-1.53-.64-1.53-1.18s.39-.8,1.2-.8a3.81,3.81,0,0,1,1.72.4l.42-1.5a4.68,4.68,0,0,0-2.11-.42c-1.95,0-3.15,1.07-3.15,2.49,0,1.21.91,2,2.29,2.47,1,.35,1.41.66,1.41,1.16s-.46.91-1.33.91a4.71,4.71,0,0,1-2.08-.51Z"/><path class="cls-2" d="M58.33,134.92H49.16v5.91H59.4v4.62H43.51V120.54H58.88v4.62H49.16v5.17h9.17Z"/><path class="cls-2" d="M84.31,135.91c-.11-3-.22-6.61-.22-10.23H84c-.78,3.18-1.82,6.72-2.78,9.64l-3,9.72h-4.4l-2.66-9.64c-.81-2.92-1.66-6.47-2.25-9.72h-.07c-.15,3.36-.26,7.2-.45,10.31l-.44,9.46H62.69l1.59-24.91h7.5l2.44,8.32c.77,2.88,1.55,6,2.11,8.9h.11c.7-2.88,1.55-6.17,2.36-8.94l2.66-8.28h7.36l1.36,24.91h-5.5Z"/><path class="cls-2" d="M100.2,139.06l-1.77,6.39H92.59l7.61-24.91h7.39l7.73,24.91h-6.06l-1.92-6.39Zm6.32-4.22L105,129.56c-.44-1.48-.89-3.33-1.26-4.81h-.07c-.37,1.48-.74,3.37-1.15,4.81L101,134.84Z"/><path class="cls-2" d="M136,144.75a16.26,16.26,0,0,1-6.4,1.07c-8.61,0-13-5.36-13-12.46,0-8.5,6.06-13.23,13.6-13.23a14.78,14.78,0,0,1,6.13,1.11l-1.14,4.47a12.22,12.22,0,0,0-4.73-.92c-4.48,0-8,2.7-8,8.24,0,5,3,8.13,8,8.13a14.21,14.21,0,0,0,4.7-.81Z"/><path class="cls-2" d="M93.09,163.12H90.67V165h2.7v1H89.5v-6.42h3.73v1H90.67v1.65h2.42Z"/><path class="cls-2" d="M94.37,164.7a3.22,3.22,0,0,0,1.55.41c.76,0,1.17-.36,1.17-.88s-.32-.77-1.14-1.07c-1-.38-1.73-.94-1.73-1.86s.88-1.85,2.27-1.85a3.44,3.44,0,0,1,1.54.32l-.29.95a2.61,2.61,0,0,0-1.27-.31c-.75,0-1.07.4-1.07.77s.37.73,1.23,1.06c1.11.42,1.65,1,1.65,1.9s-.78,1.93-2.43,1.93a3.85,3.85,0,0,1-1.74-.4Z"/><path class="cls-2" d="M103.94,165.78a4.13,4.13,0,0,1-1.66.29A3,3,0,0,1,99,162.84a3.23,3.23,0,0,1,3.43-3.39,3.58,3.58,0,0,1,1.56.29l-.26.93a3.14,3.14,0,0,0-1.26-.25,2.13,2.13,0,0,0-2.24,2.36,2.11,2.11,0,0,0,2.23,2.32,3.36,3.36,0,0,0,1.28-.24Z"/><path class="cls-2" d="M110.39,162.7c0,2.15-1.31,3.38-3.08,3.38a3,3,0,0,1-3-3.27,3.07,3.07,0,0,1,3-3.36A3,3,0,0,1,110.39,162.7Zm-4.79.09c0,1.31.65,2.34,1.78,2.34s1.77-1,1.77-2.39-.6-2.35-1.77-2.35S105.6,161.47,105.6,162.79Z"/><path class="cls-2" d="M111.4,159.55h1.17V165h2.63v1h-3.8Z"/><path class="cls-2" d="M117.41,164.15l-.55,1.82h-1.21l2.06-6.42h1.49l2.09,6.42H120l-.58-1.82Zm1.84-.88-.51-1.58c-.12-.39-.22-.83-.32-1.2h0c-.09.37-.19.82-.3,1.2l-.5,1.58Z"/><path class="cls-2" d="M124.15,159.64a11.42,11.42,0,0,1,1.87-.13,3.88,3.88,0,0,1,2.62.74,2.86,2.86,0,0,1,1,2.36,3.32,3.32,0,0,1-1,2.55,4.31,4.31,0,0,1-2.91.88,12.23,12.23,0,0,1-1.58-.09Zm1.17,5.44a4.17,4.17,0,0,0,.65,0,2.2,2.2,0,0,0,2.43-2.46,2,2,0,0,0-2.28-2.23,3.57,3.57,0,0,0-.8.07Z"/><path class="cls-2" d="M134.24,163.12h-2.41V165h2.7v1h-3.88v-6.42h3.74v1h-2.56v1.65h2.41Z"/><path class="cls-2" d="M34.3,174.78c0-.83-.09-1.83-.08-2.7h0c-.21.78-.47,1.65-.76,2.46l-.93,2.78h-.91l-.85-2.74c-.25-.82-.48-1.7-.65-2.5h0c0,.84-.07,1.86-.11,2.74l-.15,2.58H28.72l.43-6.42h1.54l.84,2.58c.23.75.43,1.51.59,2.23h0c.17-.7.39-1.49.63-2.24l.89-2.57h1.52l.37,6.42H34.42Z"/><path class="cls-2" d="M37.91,171v3.74c0,1.26.53,1.84,1.32,1.84s1.35-.58,1.35-1.84V171h1.17v3.66c0,2-1,2.86-2.56,2.86s-2.45-.83-2.45-2.85V171Zm2.85-1.49-1.19,1.15h-.94l.84-1.15Z"/><path class="cls-2" d="M43.07,176.12a3.22,3.22,0,0,0,1.55.41c.75,0,1.17-.35,1.17-.88s-.33-.77-1.14-1.06c-1.06-.38-1.74-1-1.74-1.87s.88-1.85,2.27-1.85a3.39,3.39,0,0,1,1.54.33l-.28.94a2.8,2.8,0,0,0-1.28-.3c-.74,0-1.07.4-1.07.77s.38.72,1.23,1c1.12.42,1.66,1,1.66,1.91s-.78,1.92-2.44,1.92a3.8,3.8,0,0,1-1.73-.4Z"/><path class="cls-2" d="M49.21,171v6.42H48V171Z"/><path class="cls-2" d="M55.15,177.21a4.17,4.17,0,0,1-1.66.28,3,3,0,0,1-3.27-3.23,3.22,3.22,0,0,1,3.42-3.39,3.69,3.69,0,0,1,1.56.29l-.25.93a3.24,3.24,0,0,0-1.26-.24,2.14,2.14,0,0,0-2.25,2.36,2.1,2.1,0,0,0,2.24,2.31,3.18,3.18,0,0,0,1.28-.24Z"/><path class="cls-2" d="M57.5,175.58,57,177.4H55.74l2-6.42h1.5l2.08,6.42H60.12l-.58-1.82Zm1.84-.89-.51-1.58c-.12-.39-.23-.83-.32-1.2h0c-.1.37-.19.82-.31,1.2l-.49,1.58Z"/><path class="cls-2" d="M67.83,174.55H65.41v1.88h2.7v1H64.24V171H68v1H65.41v1.66h2.42Z"/><path class="cls-2" d="M72.4,175.58l-.55,1.82H70.64l2-6.42h1.5l2.08,6.42H75l-.58-1.82Zm1.84-.89-.51-1.58c-.12-.39-.23-.83-.32-1.2h0c-.1.37-.19.82-.31,1.2l-.49,1.58Z"/><path class="cls-2" d="M77.17,171.06a11.91,11.91,0,0,1,1.77-.13,2.93,2.93,0,0,1,2,.52,1.61,1.61,0,0,1,.55,1.28,1.71,1.71,0,0,1-1.16,1.61v0a1.65,1.65,0,0,1,.9,1.24,13.61,13.61,0,0,0,.5,1.79H80.5a9.6,9.6,0,0,1-.43-1.52c-.18-.84-.48-1.1-1.15-1.12h-.59v2.64H77.17Zm1.16,2.84H79c.79,0,1.29-.42,1.29-1.05s-.5-1-1.26-1a4.25,4.25,0,0,0-.72.05Z"/><path class="cls-2" d="M83.86,172H82v-1h4.85v1H85v5.44H83.86Z"/><path class="cls-2" d="M91.22,174.55H88.8v1.88h2.71v1H87.63V171h3.73v1H88.8v1.66h2.42Z"/><path class="cls-2" d="M92.51,176.12a3.22,3.22,0,0,0,1.55.41c.75,0,1.17-.35,1.17-.88s-.32-.77-1.14-1.06c-1.06-.38-1.74-1-1.74-1.87s.88-1.85,2.27-1.85a3.39,3.39,0,0,1,1.54.33l-.28.94a2.8,2.8,0,0,0-1.28-.3c-.74,0-1.07.4-1.07.77s.38.72,1.23,1c1.12.42,1.66,1,1.66,1.91s-.78,1.92-2.44,1.92a3.8,3.8,0,0,1-1.73-.4Z"/><path class="cls-2" d="M104,177.21a4.07,4.07,0,0,1-1.65.28,3,3,0,0,1-3.28-3.23,3.23,3.23,0,0,1,3.43-3.39,3.73,3.73,0,0,1,1.56.29l-.25.93a3.24,3.24,0,0,0-1.26-.24,2.13,2.13,0,0,0-2.25,2.36,2.1,2.1,0,0,0,2.24,2.31,3.13,3.13,0,0,0,1.27-.24Z"/><path class="cls-2" d="M108.63,174.55h-2.41v1.88h2.7v1H105V171h3.74v1h-2.56v1.66h2.41Zm-1.26-5.05,1,1.14h-.88l-.53-.62h0l-.54.62h-.86l1-1.14Z"/><path class="cls-2" d="M110,177.4V171h1.33l1.66,2.75a17.41,17.41,0,0,1,1.09,2.15h0c-.07-.85-.1-1.68-.1-2.66V171H115v6.42h-1.21l-1.67-2.82a24.79,24.79,0,0,1-1.16-2.22h0c0,.83,0,1.67,0,2.73v2.3Z"/><path class="cls-2" d="M117.55,171v6.42h-1.17V171Z"/><path class="cls-2" d="M123.5,177.21a4.17,4.17,0,0,1-1.66.28,3,3,0,0,1-3.28-3.23,3.23,3.23,0,0,1,3.43-3.39,3.73,3.73,0,0,1,1.56.29l-.25.93a3.24,3.24,0,0,0-1.26-.24,2.13,2.13,0,0,0-2.25,2.36,2.1,2.1,0,0,0,2.24,2.31,3.18,3.18,0,0,0,1.28-.24Z"/><path class="cls-2" d="M125.85,175.58l-.56,1.82h-1.2l2-6.42h1.5l2.08,6.42h-1.25l-.59-1.82Zm1.84-.89-.51-1.58c-.12-.39-.23-.83-.32-1.2h0c-.1.37-.19.82-.31,1.2l-.49,1.58Z"/><path class="cls-2" d="M130.59,176.12a3.22,3.22,0,0,0,1.55.41c.75,0,1.17-.35,1.17-.88s-.32-.77-1.14-1.06c-1.06-.38-1.73-1-1.73-1.87s.87-1.85,2.26-1.85a3.36,3.36,0,0,1,1.54.33l-.28.94a2.8,2.8,0,0,0-1.28-.3c-.74,0-1.06.4-1.06.77s.37.72,1.23,1c1.11.42,1.65,1,1.65,1.91s-.78,1.92-2.44,1.92a3.8,3.8,0,0,1-1.73-.4Z"/></svg>