<svg id="Camada_1" data-name="Camada 1" xmlns="http://www.w3.org/2000/svg" viewBox="0 0 137.73 76.17"><defs><style>.cls-1{fill:#373435;}.cls-2{fill:#3a3738;}.cls-3{fill:#3c3a3b;}.cls-4{fill:#393637;}.cls-5{fill:#3c393a;}.cls-6{fill:#3b3839;}.cls-7{fill:#3d3a3b;}.cls-8{fill:#3f3c3d;}.cls-9{fill:#3d3b3b;}.cls-10{fill:#fefefe;}.cls-11{fill:#fdfdfd;}.cls-12{fill:#f4f4f4;}.cls-13{fill:#fcfcfc;}</style></defs><path class="cls-1" d="M85.19,2l5.73.07q-1.86,14-3.71,28c-.59,4.52-1.22,9-1.75,13.55-.35,3-2.16,5.46-5.88,5.22-2.51-.16-5-.08-7.56-.06-.73,0-1.1-.09-1-1,.37-2.4.68-4.82,1-7.24.08-.66.44-.73,1-.72,1.43,0,2.88,0,4.31,0,.8,0,1-.29,1.12-1q1.22-9.32,2.46-18.64,1-7.77,2.11-15.55A2.84,2.84,0,0,1,85.19,2Z" transform="translate(-3.64 -2.02)"/><path class="cls-1" d="M61.84,48.79c-2.32,0-4.63,0-7,0-.71,0-.85-.17-.75-.89,1.19-8.54,2.33-17.09,3.48-25.64.32-2.34,1.28-3.19,3.63-3.19,1.2,0,2.4,0,3.6,0,.63,0,.73.2.65.76C64.67,26.1,63.88,32.36,63,38.6c-.14,1,0,1.35,1,1.3,2-.09,4,0,6,0,.67,0,.8.21.71.84-.35,2.33-.67,4.67-1,7-.1.8-.34,1.15-1.25,1.12C66.32,48.74,64.08,48.79,61.84,48.79Z" transform="translate(-3.64 -2.02)"/><path class="cls-1" d="M71.13,37.31c-.95,0-1.91,0-2.87,0-.6,0-.87-.09-.77-.78.88-6.41,1.73-12.82,2.62-19.22a2.26,2.26,0,0,1,2.44-2.15c1.47-.05,3,0,4.43,0,.56,0,.75.12.66.76-.94,6.92-1.84,13.84-2.74,20.77-.06.53-.3.65-.77.64C73.13,37.29,72.13,37.31,71.13,37.31Z" transform="translate(-3.64 -2.02)"/><path class="cls-1" d="M65.24,56c1-.29,1.62.28,2.17,1.27.84,1.5,1.87,2.89,2.71,4.38.51.89.79.74,1.35,0,1.31-1.66,2.71-3.25,4.08-4.87A4.79,4.79,0,0,1,79.29,56c.41.21.21.56.18.84-.46,4.57-1,9.14-1.41,13.71,0,.54-.26.63-.74.65-2.27.12-2.25.14-2-2.13.29-2.62.54-5.25.79-7.87,0-.22.18-.54-.08-.64s-.36.26-.51.42C74,62.74,72.46,64.48,71,66.26c-.56.67-.95.7-1.43-.09-1-1.71-2.14-3.38-3.22-5.05-.15-.23-.24-.63-.52-.59s-.2.47-.23.72c-.32,3-.67,6-.93,9.07-.06.75-.31.9-1,.9-2.07,0-2,0-1.8-2,.43-3.81.79-7.63,1.21-11.45C63.23,56,63.27,56,65.24,56Z" transform="translate(-3.64 -2.02)"/><path class="cls-1" d="M24.45,56c1.2,0,2.4-.07,3.6,0,2.61.19,4.2,1.55,4.55,3.79a5.11,5.11,0,0,1-3.16,5.61c-1.32.46-1,.85-.35,1.6,1,1.15,1.9,2.36,2.84,3.56.12.15.29.36.26.49-.08.32-.4.13-.61.18s-.16,0-.24,0a3.5,3.5,0,0,1-4-1.92c-.54-.92-1.32-1.7-2-2.58a1.32,1.32,0,0,0-1.19-.59c-2.14,0-2.13,0-2.31,2.12,0,.4-.09.79-.14,1.19-.24,1.79-.73,2.11-2.59,1.79-.71-.12-.42-.57-.38-.89.34-3.54.71-7.08,1.07-10.62a27.74,27.74,0,0,0,.3-2.86c0-.86.41-1,1.11-.94,1.08.05,2.16,0,3.24,0Z" transform="translate(-3.64 -2.02)"/><path class="cls-1" d="M7.55,71.2c-1,0-2.08,0-3.12,0-.58,0-.86-.07-.78-.77q.75-6.85,1.43-13.71c.06-.58.26-.84.89-.83,2,.05,4,0,6,.08,4.43.3,7,3.62,6.21,8A8.17,8.17,0,0,1,9.7,71.2Z" transform="translate(-3.64 -2.02)"/><path class="cls-1" d="M135.63,55.8c1.68,0,3.36,0,5,0,.6,0,.73.17.69.75-.15,2.06-.13,2.06-2.14,2.06s-3.92,0-5.88,0c-.72,0-1,.22-1.05.92-.3,2.59-.33,2.59,2.24,2.59,1.68,0,3.36,0,5,0,.69,0,.89.18.81.88-.2,1.83-.17,1.83-2,1.83s-3.76,0-5.64,0c-.64,0-1,.07-1.07.85-.36,2.63-.41,2.63,2.22,2.63,1.8,0,3.6,0,5.4,0,.6,0,.8.11.72.79-.22,2-.18,2.06-2.26,2.06-2.87,0-5.75,0-8.63,0-.76,0-.91-.17-.82-1,.49-4.33.94-8.66,1.32-13,.1-1.1.42-1.5,1.57-1.41C132.67,55.89,134.16,55.8,135.63,55.8Z" transform="translate(-3.64 -2.02)"/><path class="cls-1" d="M44.22,71.14l-10.83.06c-.49,0-.69-.08-.63-.66.5-4.53,1-9.06,1.41-13.59.08-.77.32-1.07,1.16-1.06q4.8.09,9.6,0c.86,0,1,.31.87,1a4.52,4.52,0,0,0-.13,1c0,.69-.28.85-.92.84-2.28,0-4.56,0-6.84,0-.73,0-1,.16-1.13.94-.31,2.64-.34,2.64,2.3,2.64,1.68,0,3.36,0,5,0,.64,0,.81.16.75.81-.18,1.87-.15,1.87-2,1.87s-3.84,0-5.76,0c-.58,0-.79.13-.88.76-.38,2.69-.41,2.68,2.27,2.68,1.56,0,3.12.07,4.68,0,1.11-.07,1.68.15,1.31,1.39,0,.32,0,.32,0,.48C44.34,70.53,44.25,70.83,44.22,71.14Z" transform="translate(-3.64 -2.02)"/><path class="cls-1" d="M112.49,71.11c-1,.37-1.62-.29-1.77-1.38-.19-1.32-.93-1.6-2.15-1.53-1.83.11-3.67.07-5.51,0a1.34,1.34,0,0,0-1.48.88,11.92,11.92,0,0,1-.57,1,3.32,3.32,0,0,1-3.33.94c-.45-.26-.05-.55.07-.77.91-1.68,1.86-3.35,2.79-5,1.54-2.75,3.11-5.48,4.58-8.26a2.08,2.08,0,0,1,2.1-1.29,2.06,2.06,0,0,1,2.43,1.68c1.29,4.06,2.76,8.06,4.16,12.09C114.37,71.11,114.37,71.11,112.49,71.11Z" transform="translate(-3.64 -2.02)"/><path class="cls-1" d="M44.49,71.13a2.52,2.52,0,0,1,.24-.68c2.56-4.6,5.15-9.19,7.66-13.82.47-.87,1.14-.62,1.82-.73,1.38-.22,2,.33,2.41,1.69C58,61.84,59.52,66,61,70.24c.28.78.17,1.09-.69,1a1.09,1.09,0,0,0-.36,0c-1.46.31-2.23-.34-2.44-1.75-.14-.92-.63-1.19-1.55-1.15-2,.07-4,0-6,0-.7,0-1.19.17-1.38.83C48,71.34,46.35,71.47,44.49,71.13Z" transform="translate(-3.64 -2.02)"/><path class="cls-1" d="M114.83,55.8c1.17-.37,1.55.39,1.86,1.57.79,3.08,1.73,6.13,2.61,9.19.09.31.21.6.32.9.34-.19.41-.56.56-.87,1.5-3,3.06-6,4.43-9,.63-1.4,1.38-2,2.94-1.82,1.25.16,1.27,0,.66,1.19-2.32,4.45-4.68,8.88-7,13.36-.74,1.45-1.94.64-2.93.83s-.77-.66-.92-1.12c-1.34-4.21-2.65-8.44-4-12.65C112.94,55.8,112.93,55.8,114.83,55.8Z" transform="translate(-3.64 -2.02)"/><path class="cls-1" d="M84.26,66.61a1.3,1.3,0,0,0,.87,0c.44.26.36.67.32,1.07a4.06,4.06,0,0,0-.15,1.34A1.3,1.3,0,0,1,85,70c0,1.08-.4,1.59-1.56,1.4a10.46,10.46,0,0,0-1.68,0c-2,0-2,0-1.81-1.93.45-4.21.92-8.41,1.34-12.61.06-.66.26-.9.93-.85.91.06,1.83.05,2.75.07a6.11,6.11,0,0,1,.28,1c0,.45-.06.91-.08,1.36A7.22,7.22,0,0,0,85,59.66C85,60,85,60.4,85,60.77a4,4,0,0,0-.14,1.09,10.22,10.22,0,0,0-.1,1.1,6.16,6.16,0,0,0-.17,1.28A17.21,17.21,0,0,1,84.26,66.61Z" transform="translate(-3.64 -2.02)"/><path class="cls-1" d="M85.79,66.65c1,.27,1.28-.17,1.36-1.14.25-2.92.62-5.84.89-8.76.06-.62.26-.76.86-.78H90c1.11,0,1.4.3,1.23,1.28a4.61,4.61,0,0,1,0,2.09,4,4,0,0,0-.13,1.14,12,12,0,0,1-.12,1.58c-.24,1.11,0,2.31-.64,3.35-.24.93.45,1.43,1.07,1.23.08,1.18-.15,1.63-.12,3.33,0,1.18-.4,1.55-1.57,1.42a17,17,0,0,0-3.35,0c-.93.08-1.22-.26-1.08-1.11C85.24,69,85,67.77,85.79,66.65Z" transform="translate(-3.64 -2.02)"/><path class="cls-1" d="M92,66.65c.81.21,1.09-.07,1.16-.93.25-3,.62-6,.9-8.94.06-.61.27-.79.88-.82,2.76-.11,2.78-.13,2.51,2.66-.4,4.06-.83,8.1-1.25,12.15a1.26,1.26,0,0,1-.19.41,25.49,25.49,0,0,1-3.81.1c-1,0-.53-.75-.65-1.21A5.59,5.59,0,0,1,92,66.65Z" transform="translate(-3.64 -2.02)"/><path class="cls-2" d="M96.47,77.34c.1-1,.19-1.91.29-2.82,0-.31-.05-.69.39-.77a.87.87,0,0,1,.94.34c.33.45.45,1.31,1,1.26.41,0,.78-.73,1.12-1.17a.94.94,0,0,1,1-.43c.53.15.26.61.24.91-.06,1-.18,1.91-.28,2.86,0,.33-.09.65-.55.61s-.29-.45-.32-.71a3.88,3.88,0,0,1,0-.48c0-.54.41-1.26,0-1.54s-.71.59-1,1c-.73.87-.84,0-1.14-.37s-.49-.73-.56-.69c-.39.17-.18.59-.25.91s0,.73-.14,1.07.14.92-.54.83S96.66,77.52,96.47,77.34Z" transform="translate(-3.64 -2.02)"/><path class="cls-2" d="M133,73.72c.44,0,.72,0,1,0a1.25,1.25,0,0,1,1.31.84,1.27,1.27,0,0,1-.46,1.6c-.81.42-.48.75-.11,1.21.16.2.63.43.26.71a.69.69,0,0,1-.94-.24,6.07,6.07,0,0,0-.43-.57c-.25-.3-.45-.68-1-.6s-.4.6-.43.94-.22.57-.62.5-.26-.4-.24-.65a21.17,21.17,0,0,0,.25-2.5C131.65,73.85,132.1,73.44,133,73.72Z" transform="translate(-3.64 -2.02)"/><path class="cls-3" d="M129.15,78.15h-1.47a2,2,0,0,1-1.2-2.81,2.48,2.48,0,0,1,2.79-1.71,1.85,1.85,0,0,1,1.6,1.41,2.5,2.5,0,0,1-.71,2.5A4.42,4.42,0,0,1,129.15,78.15Z" transform="translate(-3.64 -2.02)"/><path class="cls-4" d="M137.24,78.14c-.32,0-.64,0-1,0-.56,0-.66-.18-.58-.7.15-1,.28-2,.33-3,0-.65.31-.8.89-.77s1.36,0,2,0c.26,0,.48,0,.48.37s-.17.43-.45.43c-.52,0-1,0-1.56,0-.36,0-.59.07-.62.51s.27.49.6.49a.65.65,0,0,1,.24,0c.49.19,1.46-.41,1.44.41s-1,.26-1.52.36-.95-.09-.95.6.56.33.88.44c.5.18,1.46-.39,1.45.41s-1,.22-1.47.39A.64.64,0,0,1,137.24,78.14Z" transform="translate(-3.64 -2.02)"/><path class="cls-5" d="M109,78.18h-1.26a1.28,1.28,0,0,1-.84-.42c-.14-.16-.41-.34-.2-.6s.45-.38.71-.11a1.53,1.53,0,0,0,1.44.39.66.66,0,0,0,.67-.57c0-.4-.27-.55-.59-.63a9,9,0,0,1-1.17-.25,1.11,1.11,0,0,1-.29-2,2.28,2.28,0,0,1,2.49-.18c.23.11.57.28.39.61a.48.48,0,0,1-.8.1,1,1,0,0,0-.43-.2c-.49-.08-1.09-.11-1.22.45s.52.58.9.65c.75.16,1.58.21,1.6,1.25S109.83,78,109,78.18Z" transform="translate(-3.64 -2.02)"/><path class="cls-5" d="M120.52,78.17H119a1.43,1.43,0,0,1-.8-.49c-.13-.15-.25-.33-.1-.52s.38-.33.61-.16.47.44.82.45c.55,0,1.26.16,1.36-.57s-.58-.6-1-.69c-.67-.13-1.42-.23-1.5-1.1a1.31,1.31,0,0,1,1.08-1.39,2.07,2.07,0,0,1,2.22.39c.09.09.27.24.08.39s-.29.23-.41.21-.48-.27-.74-.32c-.51-.11-1.16-.21-1.3.44s.54.57.92.64c.73.13,1.51.23,1.58,1.14A1.47,1.47,0,0,1,120.52,78.17Z" transform="translate(-3.64 -2.02)"/><path class="cls-6" d="M104.44,78.18h-1a1.62,1.62,0,0,1-1.29-2c0-.68.12-1.36.19-2,0-.35.27-.47.6-.42s.27.33.25.55c-.06.68-.15,1.35-.2,2a.9.9,0,0,0,.83,1.1,1,1,0,0,0,1.29-.79,21.16,21.16,0,0,0,.3-2.26c0-.33.08-.65.52-.64s.38.41.35.7c0,.63-.11,1.27-.21,1.9A2,2,0,0,1,104.44,78.18Z" transform="translate(-3.64 -2.02)"/><path class="cls-7" d="M115.48,78.16l-1.25,0a2.1,2.1,0,0,1-1.35-3,2.54,2.54,0,0,1,3.26-1.39c.27.13.7.21.53.63s-.43.27-.79.17c-1.29-.35-2.18.18-2.33,1.28s.63,1.76,1.8,1.51c.39-.08.93-.57,1.08.1C116.54,78,115.86,78,115.48,78.16Z" transform="translate(-3.64 -2.02)"/><path class="cls-8" d="M124.48,73.71a2.91,2.91,0,0,1,.59,0c.39.08,1-.27,1.11.31s-.61.43-1,.46c-.54,0-.49.45-.53.77-.11.79-.18,1.59-.26,2.38,0,.31-.1.54-.49.51s-.35-.35-.33-.61c0-.52.11-1,.15-1.55.05-.7.55-1.68-.9-1.51-.23,0-.35-.15-.32-.39a.39.39,0,0,1,.4-.36c.52,0,1,0,1.56,0Z" transform="translate(-3.64 -2.02)"/><path class="cls-9" d="M112.11,75.21c-.08.79-.19,1.58-.24,2.37,0,.39-.15.6-.57.55s-.32-.36-.29-.62c.11-1,.21-2,.33-3,0-.35-.11-.91.55-.8s.23.57.25.87a3,3,0,0,1,0,.6Z" transform="translate(-3.64 -2.02)"/><path class="cls-10" d="M25,63.52c-.85-.11-2,.37-2.49-.22s.05-1.59.11-2.42c.18-2.26.18-2.26,2.41-2.26.76,0,1.52,0,2.27,0,1.44,0,2.22.66,2.41,1.84A2.69,2.69,0,0,1,28,63.3,11,11,0,0,1,25,63.52Z" transform="translate(-3.64 -2.02)"/><path class="cls-10" d="M10,58.67h.6c2.93,0,4.49,1.27,4.73,3.79a5.34,5.34,0,0,1-3.92,5.82,20.33,20.33,0,0,1-4,.18c-.51,0-.57-.23-.52-.68q.45-4.22.86-8.45c0-.5.25-.7.75-.67S9.49,58.67,10,58.67Z" transform="translate(-3.64 -2.02)"/><path class="cls-11" d="M106.45,65.52c-.71,0-1.43,0-2.15,0s-.65-.21-.38-.7c1-1.7,1.87-3.41,2.81-5.12.09-.16.15-.45.39-.36s.18.31.24.48c.56,1.66,1.08,3.33,1.69,5,.24.66,0,.75-.56.74S107.13,65.52,106.45,65.52Z" transform="translate(-3.64 -2.02)"/><path class="cls-11" d="M53.1,65.65c-.71-.13-1.62.2-2.49-.16.4-.77.78-1.55,1.19-2.32.6-1.13,1.21-2.25,1.82-3.36.08-.14.18-.35.29-.36s.27.22.33.41c.58,1.73,1.14,3.47,1.75,5.2.18.51,0,.61-.44.6C54.79,65.63,54,65.65,53.1,65.65Z" transform="translate(-3.64 -2.02)"/><path class="cls-12" d="M133.31,74.49c.63,0,1.27-.08,1.21.7s-.69.73-1.25.74-.82,0-.8-.66S132.85,74.41,133.31,74.49Z" transform="translate(-3.64 -2.02)"/><path class="cls-13" d="M128.55,77.44a1.17,1.17,0,0,1-1.36-1.28,1.62,1.62,0,0,1,1.54-1.77,1.22,1.22,0,0,1,1.37,1.3A1.57,1.57,0,0,1,128.55,77.44Z" transform="translate(-3.64 -2.02)"/></svg>