<svg id="Camada_1" data-name="Camada 1" xmlns="http://www.w3.org/2000/svg" viewBox="0 0 13225.16 6523.32"><defs><style>.cls-1{fill:#b60b00;}.cls-2{fill:#b30100;}</style></defs><path class="cls-1" d="M10375.39,6964H9083.22c-27.33-32.9-18.48-72.48-18.49-109.57q-.67-3148-.12-6296c0-37.4-6.88-76.62,18.7-109.95q646-14.52,1292,0c25.58,33.33,18.7,72.56,18.7,110q.48,3148-.12,6296C10393.87,6891.47,10402.72,6931.05,10375.39,6964Z" transform="translate(-514.72 -441.19)"/><path d="M5868.29,634.27c1,21.88,2.88,43,2.89,64.14.16,471.76-.63,943.53,1.19,1415.29.2,52.34-14.12,82.93-59.71,114-735.22,501-1138.59,1192.3-1184.47,2085-2.88,56-15.35,74.74-75.2,74.34-424.31-2.84-848.66-3.88-1272.94.66-76.87.82-70.11-36.92-68.85-86.07,18.91-737.23,221.84-1420.09,617.36-2042.08Q4529.87,1156.6,5747.07,670.38C5784.51,655.38,5820.5,633.33,5868.29,634.27Z" transform="translate(-514.72 -441.19)"/><path d="M8378.63,1410.9c0,227.86-2.58,455.77,1.6,683.56,1.22,66.75-17.29,104.86-74.82,144.43C7578.34,2739.11,7182.75,3428.35,7138.86,4313c-2.9,58.49-17.33,74.05-75.22,73.73-424.11-2.37-848.28-3.85-1272.36.9-84.13.94-72.26-44.54-70.5-93.73,33.41-931.89,342-1760.23,941.36-2476C7103.26,1291,7647.56,906.15,8288.19,656.06c75.92-29.64,94.21-23,92.26,61.79C8375.15,948.76,8378.63,1179.87,8378.63,1410.9Z" transform="translate(-514.72 -441.19)"/><path d="M3198.52,1419.51c0,231-1.87,462,1.32,692.87.79,57.14-17.74,88.83-65.43,121.55-733.36,503.19-1131.42,1197-1176.27,2088.15-2.4,47.69-11.87,64.72-62.78,64.49q-645.51-2.88-1291,.17c-57.55.31-66.71-21.55-65.47-71.74C581.06,2620.34,1650.07,1212.6,3124,651.18c70-26.67,76.31-5.5,75.62,56.47C3197,944.91,3198.52,1182.22,3198.52,1419.51Z" transform="translate(-514.72 -441.19)"/><path class="cls-1" d="M11154.15,660.67c393.15,134.8,746.89,342.18,1067.51,602.69q1341.66,1090.12,1499.83,2814.9c7.43,81.81,9.49,164.13,17.64,245.85,5.18,52-16.2,62.53-64.29,62.34-427.38-1.69-854.79-3.37-1282.13,1.07-84.1.87-71.77-48.32-73.82-96.35-26.58-622-255.79-1161-667.16-1624.62-152-171.32-325.54-318.81-518.69-441.91-39.59-25.23-54.73-51.18-54.55-98.18,1.74-474.8,1.13-949.62,1-1424.43,0-45.33-3.2-93,63.1-45.63-26.32,16.19-36.69,38.22-36.63,70.51.92,465.7.68,931.4,3.32,1397.08,5.36,12.39,22.07-5.2,11.15,1.21-4.53,2.66-5.57,0-8.41-4.73-10.44-17.53-4.46-36.25-4.48-54.13q-.69-654.21-.2-1308.42C11107.33,718.51,11095.53,672.33,11154.15,660.67Z" transform="translate(-514.72 -441.19)"/><path d="M1047.26,5068.88c-27,138.94-56.1,277.53-80.16,417-9.6,55.6-45.81,50.5-83.86,49.51-36.63-1-74.63,9-84.48-48.57-22.8-133.31-51.8-265.56-78.29-398.25-9.12-.25-13.56-28.51-17.9-12-14,53.32-14.19,108.95-1.18,163.59,1.18,79-1,158.31,4.56,237,4.83,68.16-39.17,61.52-79.41,57.34-39.44-4.1-99.42,29.72-98.15-57.23,3.31-227.66,1-455.4,1.39-683.11,0-20.25-8.23-48.7,26.72-49.22q104.31-1.53,208.68.2c37.61.58,31.38,32.62,36.19,55.76,26.9,129.33,53.55,258.72,82.43,398.5,29.21-140.35,58.84-270.18,82-401.15,7.82-44.18,24.85-53.82,66.95-55.36,205.62-7.55,205.57-9,205.57,195.88,0,173.94-5,348.09,2.07,521.74,3.72,90.57-50.33,70.91-101.89,75.93-63.07,6.13-84-16.15-78.41-79.14,7-78.57,5.63-157.87,7.88-236.86,6.49-53.58,19-107.39-6-159.71-.34-.72-5.87.18-8.3,1.54S1049.37,5066.62,1047.26,5068.88Z" transform="translate(-514.72 -441.19)"/><path d="M6305.84,6329.88q0,90,0,179.95c0,35.1,12,65.58,50.16,68.34,37.2,2.7,58-24.54,61.54-59,3.06-30,28.83-76.69-19.34-85.49-82.93-15.15-42-74.92-42.5-111.62-.69-47.85,47.49-28.35,74.95-29.08,164.5-4.33,164.52-3.51,164.52,160,0,66.33-.27,132.65.12,199,.18,29.38,1.52,64-41.35,53.54-75.44-18.48-146.44,3.21-219.94,10.5-96.53,9.58-175.68-55-196.2-155.83-31.07-152.68-29.73-307.6-.21-460.44,23.28-120.48,136.07-180.7,280.9-158,108.69,17,178.24,110.22,173.14,225-1.58,35.48-18.21,48.14-45.78,40.43-43.13-12-103.08,38.92-129.64-33.12-4.24-11.5-3.35-24.92-4.67-37.46-3.43-32.44-20.77-56.5-53.4-54.43-31,2-50.4,25.46-50.83,58.34-.84,63.11-.24,126.24-.24,189.36Z" transform="translate(-514.72 -441.19)"/><path class="cls-2" d="M9083.31,448.45l-.09,6515.5c-16,1.25-32.68,2.43-33.55-20.23-1-25.27-.76-50.6-.76-75.91q0-3160.8,1.58-6321.62C9050.52,514.11,9018.36,462.2,9083.31,448.45Z" transform="translate(-514.72 -441.19)"/><path class="cls-2" d="M10375.39,6964l-.09-6515.5c17.67-2.55,31.86,1.67,33,22.09,1.44,25.22,1.18,50.57,1.18,75.86q.06,3160.6-1.63,6321.21C10407.85,6899,10440.51,6950.88,10375.39,6964Z" transform="translate(-514.72 -441.19)"/><path d="M1805.76,6327.44c0-101.23,3.2-202.59-1.27-303.62-2.45-55.2,16.26-69.42,68.92-67.17,94.74,4,190,5.06,284.6-.2,66-3.67,59.63,34.26,60.15,77.12.55,44.81,1.73,83.85-62.14,76.07-31.17-3.79-63.22.29-94.82-.87-42.62-1.57-78.25-7.18-77.2,59.62,1,61,20.65,79,76.81,71.56,21.76-2.88,44.56,2,66.31-.94,57.49-7.81,75.1,13.09,75.49,72.7.41,62.43-16.5,88.45-79.48,79.32-15.49-2.24-31.88,1.65-47.35-.67-66.23-9.94-93.26,7.88-92.63,84.22.61,74.65,31.52,83.42,89.95,76.65,21.85-2.53,44.65,2.31,66.31-.93,62.26-9.29,81.09,14.45,80.32,77.65-.73,60.77-14.57,85.63-79.36,79.65-109-10.05-255.73,45.17-317.19-21.89-54.26-59.21-15.29-203.89-17.38-310.83C1805.49,6359.07,1805.76,6343.25,1805.76,6327.44Z" transform="translate(-514.72 -441.19)"/><path d="M6237,5243.28c0,69.54,1.93,139.16-.93,208.57-1.16,28,20,72.42-23.82,80.06-40.87,7.12-97.15,23.68-124.15-10.4-22-27.82-23.53-25.13-49-9.84-125.51,75.29-221.68,32.71-232.53-110.78-10.46-138.28-5.34-277.82-5.27-416.8,0-81,63.28-39.11,98.87-45.67,37.63-6.95,75.29-7.92,73.29,53.05-3.63,110.5-2.72,221.26.23,331.81.82,31-8.12,81.94,40.47,81.78,49.05-.17,51-47.13,51.09-86.23.2-107.47,4-215.13-1.21-322.34-3.7-76.81,46.76-58.51,87.35-58.88,41.13-.36,91.74-17.14,86.8,59.21C6232.89,5078.66,6237,5161.1,6237,5243.28Z" transform="translate(-514.72 -441.19)"/><path d="M1633.13,5228.92c0-69.49-2.06-139.07,1-208.42,1.23-27.79-21.27-72.39,22.29-80.07,40.77-7.19,102.82-24.45,123.73,10.07,28.6,47.22,39,14.63,59.21,3.43,110.88-61.33,213.26-18.74,222.12,103.4,10.48,144.56,7.32,290.44,3.49,435.57-2,74.81-66.26,34.3-102.62,41.39-35.45,6.92-68.89,4.3-67.55-50,2.74-110.48,1.89-221.09.16-331.62-.5-31.87,12.19-80.91-37.13-82.92-50-2-53.5,44.92-53.86,83.52-1,107.38-4.63,215,.77,322.09,3.85,76.56-45.93,59.15-86.86,59.73-41.65.59-91.18,15.95-86-59.89C1637.44,5393.46,1633.13,5311,1633.13,5228.92Z" transform="translate(-514.72 -441.19)"/><path d="M2626.66,4922.55c82.4,5.34,159.13,22.82,189,112.87,8.54,25.73,37.66,71.73-4.8,80.09-41.26,8.13-101.51,37.46-133-23.8-14.74-28.69-20.27-62.24-63-54.79-19.92,3.47-37.57,17.44-39,36.78-2.76,37.17,27.12,53.56,54.92,68.55,38.82,20.93,79.33,38.91,117.25,61.33,79.4,46.95,97.3,122.39,81.16,205.29-15.46,79.43-70.07,121.93-150.26,136.52-116.53,21.2-214.51-14.57-251.26-99.67-14.29-33.09-37.3-85.55,5.09-98.05,40.47-11.93,107-40.3,135.74,32.75,8.37,21.3,16.6,41.39,41.53,46.93,27.63,6.14,50.27-1.53,64-27.36,13.14-24.69.5-45.49-18.41-57.06-42.88-26.26-89.5-46.4-132.43-72.58-90.18-55-125-136.38-98.55-223.08C2448.8,4968.27,2524.49,4921.53,2626.66,4922.55Z" transform="translate(-514.72 -441.19)"/><path d="M7588.62,5240.35c3.73,40.81,8.18,84.68,11.6,128.63,2.16,27.76,12.41,52.63,41.86,53.56,30.92,1,35.41-29.29,45.46-52.3,10.45-23.92-14.66-65,25.26-71.84s81.83-2.11,122.8-.37c19.21.81,22.56,16.63,24.82,33.56,11.14,83.39-52,183.88-132,208.29-122.32,37.35-242.48.62-276.89-94.35-49.87-137.65-49-279.79,0-417.5,32.35-90.9,146.34-126.94,269-95.23,84.72,21.9,137.81,103.45,134.16,194.14-1.6,39.91-25.1,44-48.4,36.29-38.33-12.63-100.12,41.41-114.75-36.66-6.68-35.65-9.68-75.55-56.55-69.79-41.38,5.1-34.1,46.64-37.51,76.62C7593.65,5167.76,7591.7,5202.35,7588.62,5240.35Z" transform="translate(-514.72 -441.19)"/><path d="M2476.77,6721.09c-82.08,1.24-150.38-24.18-184.52-104.72-12.59-29.7-32-78.05,8.94-88.58,38.25-9.85,98.32-33.3,125.65,24,15,31.4,24.52,58.71,64.58,52.6,19.53-3,35.16-14.43,37.52-36.46,4.4-41.11-28.67-51.54-55.72-66.8-41.11-23.18-85.88-41.76-122.4-70.74-62.58-49.64-84.92-116.25-56-194.12,32.89-88.44,106.27-110,190.23-109.56,77,.4,145.74,21.38,175.27,101.26,9,24.26,36.67,68.37-10.2,77.9-37.4,7.61-92,30.41-118.28-19.39-16.27-30.88-25-58.09-65.67-48-15.58,3.85-30.85,14-31.47,31.46-1.39,39.14,32.28,50.68,58.54,66.25,24.33,14.43,51,24.77,75.76,38.61,94.58,53,129.63,126.66,104.81,218.39C2651.06,6677.42,2583.71,6721.14,2476.77,6721.09Z" transform="translate(-514.72 -441.19)"/><path d="M8133.27,6721.16c-78.09,1.29-147.08-20.87-181.1-95.8-12.81-28.2-45.47-81.33,2.63-96.49,37.74-11.89,101.38-39,129.76,30.56,3.56,8.75,6.67,18.2,12.35,25.48,21.61,27.7,47.95,29.45,73.56,7.3,29.5-25.49,20.55-52.78-7.45-70.36-40-25.11-84-43.66-124.78-67.57-72.13-42.29-109.39-103.87-95.82-189.68,11.86-75,60.1-119,131.1-131.6,82.8-14.68,166.66-14.37,225.24,61.44,25.35,32.81,48.81,87.39,10.68,107.88-30.8,16.56-99.12,41.62-126.69-29.26-10.11-26-27.05-43.33-57.69-35.91-15.57,3.77-29.79,11.23-32.78,29.76-5,31,16,46.4,38.14,59,30.12,17.15,62.27,30.74,92.42,47.85,99.49,56.46,130.85,122.13,105.17,217.23C8304,6679.84,8243.1,6720.54,8133.27,6721.16Z" transform="translate(-514.72 -441.19)"/><path d="M3010.19,4780.21c68.89-15.3,100.45,7.27,90.11,82.08-4.53,32.82-18.28,77.63,47.59,77,44.91-.43,26.71,42.23,27.37,66.6.65,24.11,16.43,61.35-32.59,62.31-11.81.24-27.29,1.27-34.64,8.49-35.49,34.86-1.61,312.36,42.89,336.07,43.8,23.34,21.46,60,24.25,90.59,3.22,35.27-27.2,35.73-52.43,39.38-127.63,18.47-190.18-33.8-193.8-164-1.94-69.49,1.25-139.23-3.34-208.49-2.63-39.79,26.18-90.22-47.13-112.52-24.58-7.47-30.56-101.64,5.66-113.24,59.21-19,44-55.1,41.1-86.33C2918.91,4790.2,2943.45,4763.81,3010.19,4780.21Z" transform="translate(-514.72 -441.19)"/><path d="M2769.05,6444.55c0-41.1.63-82.2-.23-123.28-.54-26.28,5.58-47.81-34.63-63.47-58-22.59-43.89-94.52-9.15-108.79,53-21.75,46.8-53.32,43-87.87-6.85-62.31,15.12-83.06,78.48-79.86,53.64,2.7,93.13,3.08,83,74.44-6,42-12.2,85.65,57.35,91.95,31.94,2.9,23,108.68-11.82,110.35-57.74,2.76-46.37,37.21-46.49,70.11-.22,56.9-.9,113.82.32,170.69.86,40.14-4.67,80.57,53.93,94.18,41.57,9.65,16.91,53.55,20.55,82,3.95,30.93-22.73,33.11-43.78,38.16-111,26.65-185.41-30-189.72-145.32-1.53-41-.24-82.18-.24-123.27Z" transform="translate(-514.72 -441.19)"/><path d="M7050.54,5150.75c0,107.62-4.67,215.51,1.59,322.77,4.39,75.26-42,61.86-84.74,62-43.13.1-87.66,12.21-86.33-61.87,4-224.66,3.61-449.48.31-674.17-1.18-80.31,53.25-52.11,90.79-54.58,37.86-2.49,83-16.56,79.79,54.6C7046.73,4916.35,7050.54,5033.63,7050.54,5150.75Z" transform="translate(-514.72 -441.19)"/><path d="M3767.55,5236.15c0-75.9-1.23-151.83.69-227.68.64-25.14-16-66.28,26.26-68.76,41.51-2.43,107.34-26.07,121.87,13.51,22.67,61.76,32.39,28.21,56.24,8.27,21.25-17.75,47.22-40.55,75.93-24.39,26,14.64,11.78,46.45,10.92,69.7-1.78,48.16,29.26,115.75-68.91,111.7-42.85-1.78-47.31,47.17-48.93,80.74-4.41,91.48-9.73,183.47-4.56,274.69,4.27,75.27-42.48,61.4-85,61.61-43.35.21-90.82,11.7-85.72-62.3C3771.76,5394.56,3767.55,5315.21,3767.55,5236.15Z" transform="translate(-514.72 -441.19)"/><path d="M7330.77,5229c0,72.52-4.78,145.44,1.37,217.43,5.93,69.27-13.6,91.4-86.72,92.26-75.29.88-88.29-25.08-86.05-92.39,4.92-148,5.34-296.46-.14-444.44-2.59-69.94,34.63-67.37,81.53-65.08,44.8,2.18,98.19-16.06,91.36,65.34C7325.81,5077.26,7330.77,5153.35,7330.77,5229Z" transform="translate(-514.72 -441.19)"/><path d="M2338.5,5237.26c0,72.74-5,145.91,1.42,218.08,6.28,71-23.9,81.82-86.54,82.63-66.23.86-86.62-17.72-84.27-85,5.2-148.45,6.32-297.42-.33-445.75-3.41-75.95,37.1-69.5,87-71.25,54.53-1.92,90.32,2.74,84.15,73.73C2333.42,5085,2338.5,5161.36,2338.5,5237.26Z" transform="translate(-514.72 -441.19)"/><path d="M1352.57,5228.76c0-78.92,2.93-158-.81-236.74-3.8-80.26,53.83-51.33,91.17-54.05,38.14-2.77,82.48-15.49,80.81,54.48-3.92,164.07-2.9,328.33-.51,492.47,1.06,73.64-51.13,49.39-85.74,49.25s-88.09,24-85.59-49.7C1354.79,5399.32,1352.57,5314,1352.57,5228.76Z" transform="translate(-514.72 -441.19)"/><path d="M4131.88,5227c0-75.62,4.5-151.59-1.29-226.77-5.56-72.15,38.74-65.8,83.46-63,39.39,2.46,90.86-20.28,88.93,57.24q-6,240.9.07,482c2,76.07-47.14,57.64-88,59-44.1,1.5-89.53,10.05-84.46-62.85C4136.25,5391.17,4131.88,5308.94,4131.88,5227Z" transform="translate(-514.72 -441.19)"/><path d="M7351.78,6434.93c0,72.39-3.48,145,1,217.12,4.35,70.6-43.58,54.61-81.14,54.23-37.2-.37-84.53,17.16-83.08-53.48,3.16-154.17,2.33-308.46.32-462.66-1-74.4,52.9-46.08,86.71-47.77,32.26-1.61,80.05-20.5,77.09,47.09C7349.06,6271.14,7351.79,6353.09,7351.78,6434.93Z" transform="translate(-514.72 -441.19)"/><path class="cls-2" d="M11154.15,660.67c-46.09,29.05-37.81,75.34-37.81,119q0,640.83,0,1281.64v97.75c-30.6-20.43-18.14-45.51-18.18-65.94q-1.23-669.3,0-1338.6c.07-37.5-17.88-87.11,44.4-98.16Q11150.67,652.25,11154.15,660.67Z" transform="translate(-514.72 -441.19)"/><path d="M7262.91,6090.81c-61.54,14.18-74.25-15.7-76.84-76.41-3.28-76.78,41.21-66.09,89.35-70.19,63.24-5.39,77.63,17.93,79.78,79.7C7357.89,6101.13,7315.32,6095.13,7262.91,6090.81Z" transform="translate(-514.72 -441.19)"/><path d="M1438.65,4880.86c-61.36,10.85-88-.36-89.35-70.13-1.53-79.95,39.26-73.95,93.2-75.93,57-2.09,81.93,7.59,83,75C1526.75,4887.38,1491.54,4893.12,1438.65,4880.86Z" transform="translate(-514.72 -441.19)"/><path d="M2251.34,4882c-55.66,9.35-83.07-1.28-83.84-70.51-.85-75.84,34.66-76.31,90.59-77,55.65-.65,82.55,6.6,83.45,74.51C2342.55,4884.47,2308.38,4891.74,2251.34,4882Z" transform="translate(-514.72 -441.19)"/><path d="M7242.16,4882.55c-48.08,5.55-85.88,7.81-84.45-67.9,1.32-70.24,25.76-81.29,87.55-80.6,60.9.69,87.29,10.35,88.68,81.36C7335.48,4893.75,7292.84,4885.4,7242.16,4882.55Z" transform="translate(-514.72 -441.19)"/><path d="M4231.33,4882c-61.45,4.64-105.63,10.48-102.79-71.66,2.35-67.83,27.95-76.63,84.3-75.8,54.95.81,94.68-2.14,91.93,76C4302.47,4875.74,4284.32,4897.87,4231.33,4882Z" transform="translate(-514.72 -441.19)"/><path d="M5947.69,4879.45C6021.4,4721.35,6025,4719.11,6203,4735,6106.73,4787.8,6064.81,4889,5947.69,4879.45Z" transform="translate(-514.72 -441.19)"/><path d="M3388.86,4879.09c78.95-158.49,78.95-158.49,257.09-144.55C3548.64,4788.52,3506.64,4890.44,3388.86,4879.09Z" transform="translate(-514.72 -441.19)"/><path d="M7596,6089.69c82.69-158.23,82.69-158.23,234-135C7750.61,6004.19,7707.78,6089.62,7596,6089.69Z" transform="translate(-514.72 -441.19)"/><path d="M6783.42,5120.76c-13.92-187-92.15-235.2-264.1-158.31,0-51.85-5.67-102.73,1.28-151.82,11.47-81-41.49-66.22-87.4-66.71-47.23-.51-89.93-11.46-87.59,67.78,6.42,217.63,4.84,435.62.57,653.36-1.23,62.67,25.93,62.06,75,74.84,51.32,13.35,76.84-51.29,133.78-16.08,113.29,70.06,212.83,13.42,227.24-119.38C6792.45,5310.09,6790.45,5215.36,6783.42,5120.76ZM6611,5360.85c-1.84,23.57-10.45,43.79-37.12,47.61-27.79,4-43.76-16.2-47.21-37.29-14.33-87.49-17.84-175.83-1.77-263.52,3.33-18.19,19.68-36.34,39.76-36.11,24.66.27,40.69,20.5,43.71,43.08,5.87,43.8,7,88.22,10,130.72C6615.87,5285.12,6614,5323,6611,5360.85Z" transform="translate(-514.72 -441.19)"/><path d="M5720.17,4977c-2-143.15-69.24-220.47-208.37-230.77-75.41-5.58-151.76,1.77-227.25-3.3-56.45-3.79-68.51,18.09-66.69,70,3.76,107.25,1.13,214.72,1.13,322.1,0,101.06,5,202.45-1.61,303.08-5.09,77.83,18.47,101,98,100.42,75.41-.59,103.19-21,91.69-95.38-4.3-27.76,1.76-57-1.17-85.11-8.45-81.17-1.17-130.21,108.22-129.52C5653.24,5229.39,5722.29,5130.91,5720.17,4977Zm-188.62,7.32c-1.41,58.85-28.54,101.59-89.76,97.7-69.3-4.41-21.34-65.28-40.11-96.81,17.72-30.75-28.42-91.14,46.08-91.39C5505.85,4893.62,5532.92,4927.11,5531.55,4984.32Z" transform="translate(-514.72 -441.19)"/><path d="M5200.28,5955.16c-81.12-5.64-107.39,21.14-95.4,98.95,5.24,34,.88,69.43.88,111.21-152.71-73.43-229.43-32.48-250.19,124.26-13.36,100.82-15.76,202.07-.1,302.54,17.82,114.33,104.89,159.44,207.4,110.56,22.25-10.61,32.64-20.24,67.06-3.66,91.12,43.89,135,6.86,135.08-93.53.05-192.93-1.55-385.88,1.07-578.78C5266.77,5976,5255.9,5959,5200.28,5955.16Zm-98.58,574.6c-1.76,27.66-11.68,60.09-50.38,55.25-31.45-3.94-34.71-31.47-35.89-57.65-1.41-31.48-3.21-62.94-4.81-94.46q2.41-47.3,4.77-94.47c1.57-32.27,3.44-69.25,45.19-69.41,34.85-.13,44,34,44.6,62.55C5106.52,6397.61,5105.89,6463.87,5101.7,6529.76Z" transform="translate(-514.72 -441.19)"/><path d="M874.1,5955.17c-80-5.1-108.46,19.53-96.13,98.38,5.31,33.91.89,69.35.89,111.55-130.2-64-215.25-38.94-239.72,69.65-28,124.15-34.15,250.43-6.73,376,19.71,90.21,105.49,136.77,189,100,34.33-15.13,57.1-21.57,98.08-8.08,94.6,31.15,118.92,5.7,118.95-96.68.06-193-1.63-386,1.13-578.91C940.27,5976.27,930.33,5958.75,874.1,5955.17ZM774.06,6544c-3.32,19.73-15.38,43.81-43.56,42.32-26.88-1.43-39.75-22.34-40.48-44.7q-3.49-108.69-.59-217.55c.69-25.6,12.48-53.59,41.9-55.18,36.15-2,45.79,28.24,47.69,57.92,2,31.43.45,63.09.45,94.65l3,.09C780.14,6462.39,780.83,6503.8,774.06,6544Z" transform="translate(-514.72 -441.19)"/><path d="M3935.72,5955.31c-75.12-3.25-112.11,12-98.2,95.29,6,36.23,1,74.3,1,113.48-138.67-64.29-223.78-36.37-243.45,82-19.14,115.19-26,231.69-5,348.12,20.24,112.08,110,160.87,207.43,106.5,30.94-17.26,43.48-12.1,74.69,1.34,84,36.15,127.09,1.64,127.14-87.52.11-195.61-1.49-391.25,1.08-586.84C4001.07,5977.9,3993,5957.79,3935.72,5955.31ZM3831.5,6545.1c-3.43,21.35-14.78,43.27-43.44,41-27.55-2.17-38-23.52-38.65-45.88q-2.89-108.63-.3-217.38c.64-26.2,13.06-53.67,42.59-54.12,35.53-.54,44.86,30.06,46.71,59.64,2,31.41.44,63,.44,94.56l3.71.2C3839.17,6463.84,3838,6504.89,3831.5,6545.1Z" transform="translate(-514.72 -441.19)"/><path d="M4831.36,5123c-20.68-141.53-80-199.58-213.89-200.42-130.19-.82-192.69,54.09-213.86,189.67-6.31,40.39-9.56,81.27-14.68,126.09,5.25,43.38,9.16,90.5,16.92,137,20.77,124.28,90.81,181.95,214.64,179.08,124.95-2.91,190.22-61.59,208.63-187C4841.07,5286.06,4843.37,5205.19,4831.36,5123Zm-172.17,245.56c-1.69,28.4-13.21,50.74-43.84,50.69-25.67,0-36.3-20.34-39.74-44.4-13-91.12-12.4-182.22-.53-273.37,3.11-23.83,14.21-45,38.89-46.39,30.78-1.73,42.79,21.65,44.91,49.41,3.36,44,5.84,88,8.76,132C4664.85,5280.56,4661.81,5324.56,4659.19,5368.59Z" transform="translate(-514.72 -441.19)"/><path d="M8367.69,5087.12c-28.45-118.87-90.1-167.08-216.06-164.47-121.16,2.51-189,57.41-203.8,178.67C7938.37,5179,7938,5258.79,7943,5337c9.32,145.88,77.13,212.88,208.92,217.36,127.5,4.33,196.22-55.23,220.76-195,7-40.05,7.27-81.31,10.62-122C8381.07,5186.76,8379.6,5136.92,8367.69,5087.12ZM8199.8,5377.77c-3.51,22.64-16.14,43.65-42.66,41.61-24.76-1.91-38.64-20.76-40.44-45.11-3.47-47.06-5.23-94.24-7.74-141.48,2.45-44.09,4.24-88.13,7.71-132,1.9-24,14.83-43.52,39.54-46,26.79-2.65,39.62,18.67,43.23,41.12A900,900,0,0,1,8199.8,5377.77Z" transform="translate(-514.72 -441.19)"/><path d="M3642.44,5323.67c-41-2.08-117.61-53.42-129.11,49.77-5.62,50.46-42.9,75.93-85.83,34-29.91-29.2-29.55-77-21.83-117.35,8.8-46,50.47-26.5,78.65-28.18,47.24-2.82,94.77-.35,142.17-1.05,17.63-.26,36.42,4.2,47.44-18.78,56.11-117-30.81-290.59-157.63-313-164.24-29-253.38,34.76-276.14,199.21-5.18,37.39-5.36,75.48-7.85,113.24-5.14,57.65,6.78,113.81,17.56,169.36,18,92.59,92,142.41,205.86,143.62,108.62,1.15,191.43-51.77,209.25-140.59C3671.22,5382.79,3700.54,5326.62,3642.44,5323.67Zm-227.92-212.12c3.05-32.38,4.82-64.52,47.81-68.82,40.28.44,52.72,25.93,56.56,61.05,3.67,33.55-3.55,55.09-43.46,54.38C3442.46,5157.58,3409.9,5160.67,3414.52,5111.55Z" transform="translate(-514.72 -441.19)"/><path d="M3493.81,6608.51c4.87-50.18,1.29-101.17,1.29-151.81h-1c0-50.66-1.73-101.38.37-151.95,3.86-92.72-37.11-151.33-127.84-172.2-124.93-28.73-245.05,5.13-279.57,83.88-12.83,29.26-48.48,82.78.07,95.75,41.62,11.13,108.58,40,142.32-22.47,15.71-29.08,28.63-48.65,62.23-42.8,20,3.49,34.91,17.27,35.23,38.82.51,34.73-27.36,47.27-52.78,59.91-53.53,26.63-114,39.08-161.31,78.41-63.43,52.73-80.61,151.63-39.14,223.68,38.83,67.47,116.15,88.89,199.28,54.4,30.48-12.64,51.27-42,93.13-1.68,22.81,22,89.8,15.78,127.22-.23C3528.23,6685.26,3490.68,6640.86,3493.81,6608.51Zm-226.55-16.15c-28,6-49.59-15.1-51-42.3-3.65-71.13,44.08-94.27,113.29-108.05C3317.82,6507.13,3348.52,6575,3267.26,6592.36Z" transform="translate(-514.72 -441.19)"/><path d="M7880.39,6664.31c-23-108.87-6.86-219.77-9.9-329.75-4.4-159.05-52.7-208.11-226.81-208.42-61.37,1.18-138.12,7.31-178.74,87.36-15.73,31-44.24,83.5-3.83,97,41.11,13.77,105.87,39.26,142.49-19.44,16.18-26,26.86-49.61,62-45,22.16,2.88,33.05,16.48,34,38,1.79,40-29.33,52.45-57.51,65.94-48.12,23-100.6,39.1-144.61,68.14-73.44,48.44-83.29,125.24-60.08,202.21,20.18,66.95,79.7,117,143.74,93.15,87.3-32.51,167.7-4.91,250.89-7.12C7858.75,6705.69,7891.16,6715.36,7880.39,6664.31Zm-231.2-72.63c-31.25,10.72-57.16-13.34-57.94-45.24-1.62-66.25,44.67-89,106.17-103.24C7693.44,6501.13,7725.27,6565.57,7649.19,6591.68Z" transform="translate(-514.72 -441.19)"/><path d="M4495.31,6282.93c-21.27-108-80.41-154.23-192.23-156.62-120.81-2.58-176.75,38.15-203.35,151.91-21.79,93.24-21,188-2.31,281.14,24.54,122.15,81.08,164.22,205.08,161.77,114.83-2.28,173.76-50.48,194.88-165.08,8-43.15,7.52-87.85,11.25-136.13C4504.69,6376.84,4504.38,6329,4495.31,6282.93ZM4334.87,6550c-2.11,23.7-12.27,44-39.55,44-27.69,0-36.22-21.16-38.89-44.55a1088.91,1088.91,0,0,1,.54-254.72c2.89-23.83,13.49-44.78,39.17-44.51,25.49.27,36.54,21,38.43,45.06,3.46,43.95,6.3,88,9.05,127.13C4340.56,6468.3,4338.49,6509.22,4334.87,6550Z" transform="translate(-514.72 -441.19)"/><path d="M1438.19,6293.32c-20.53-116.43-77.45-164.23-192.45-166.82-124.7-2.81-180.94,39.76-207.24,159.47-19.17,87.26-18.51,175.78-3,263,22.81,127.89,80.67,173.8,206.75,172.11,121.13-1.63,179.38-54.42,198.19-182.71,5.47-37.28,5.49-75.35,8.43-119.29C1445.88,6381.06,1445.81,6336.52,1438.19,6293.32Zm-161.13,254.8c-3.49,23.84-10.62,45.18-36.65,46.59-31.79,1.72-41.55-21.83-43.8-49.49-3.31-40.59-6.85-81.16-10.37-122.73,3.88-43,7.27-86.76,12-130.37,2.59-23.9,15.12-44,40.68-42.75,25.22,1.22,33.9,22.13,37.49,46A855.58,855.58,0,0,1,1277.06,6548.12Z" transform="translate(-514.72 -441.19)"/><path d="M5740.4,6510.45c-37.77-10.57-119.25-49.81-128.32,50.11-2.33,25.75-19.2,39.6-44.26,40.12-25.75.52-38.47-17.9-47.79-39.07-30.9-70.19-4.93-111.65,70.89-112.47,44.16-.48,88.34,0,132.51-.17,22.39-.07,49,.62,49-29.88,0-84.25,13.54-174.9-54.65-240.92-71.82-69.54-162-63-248.79-35C5380,6171.84,5357.84,6247,5355.62,6331c-.75,28.36-.12,56.76-.12,85.15l-3.68.13c3.09,53.48,2.15,107.58,10.17,160.31,13.81,90.88,74.16,133.47,162.47,142.81,109.39,11.58,197.6-23,224.45-99.21C5761.16,6585.41,5800.22,6527.2,5740.4,6510.45Zm-221.67-203.54c6.57-33.38,8.57-74,57.65-67.19,37.44,5.22,46.05,38.45,47.67,70.64,2.4,47.56-35.56,30.42-58.52,35.2C5539.58,6343.81,5510.87,6346.88,5518.73,6306.91Z" transform="translate(-514.72 -441.19)"/><path d="M7093,6302c-27.16-132.71-81.46-179.63-212.19-175.4-120,3.89-178.28,60.3-192.21,188.2-3.74,34.39-3.7,69.2-5.92,114.3,2.54,36.88,2.1,84.6,9.74,131,18.3,111.11,80.87,160.5,197,161,119.18.48,177.56-45,200.47-156.75C7107.82,6477.16,7111.08,6390.33,7093,6302Zm-159.35,246.1c-.88,24-13.2,43.82-38.81,46.33-28.09,2.75-36.78-18.44-41.09-41.78-16.27-87.93-16.92-175.73,1.12-263.56,4.23-20.58,15.43-38.54,35-39.57,25.34-1.33,40.21,19.68,42.52,42.71,4.41,44,4.67,88.34,6.65,132.55l-5,.07C6934.08,6466,6935.18,6507.11,6933.66,6548.14Z" transform="translate(-514.72 -441.19)"/></svg>