<svg id="Camada_1" data-name="Camada 1" xmlns="http://www.w3.org/2000/svg" viewBox="0 0 13351.49 7544.7"><defs><style>.cls-1,.cls-2{fill:#231f20;}.cls-2{fill-rule:evenodd;}</style></defs><path class="cls-1" d="M13820.26,6838.29l-25.91,130.79h-15.64q-2.2-56.94-24.31-82.76c-14.72-17.24-33.1-25.9-54.86-25.9-17.27,0-31,4.85-41.39,14.23s-15.48,21.2-15.48,34.9a63.17,63.17,0,0,0,6,26.63c4.15,8.62,13.13,20.31,27.18,35.44,36.49,40.48,60.24,70.88,70.87,91s16.19,39.37,16.19,57.74q0,44.25-36.71,78.26c-24.48,22.66-55.21,34-92.45,34-20.36,0-43.93-4.86-70.71-14.22-9.2-3.61-16.39-5.37-21.6-5.37-12.61,0-22.33,6.46-29,19.59h-15.29l25.87-137.61h15.84c1.27,43.18,10.09,73.74,26.28,91.36q24.3,26.73,66.39,26.66c21.41,0,38.51-6,51.1-17.82,12.76-12.09,19.05-26.81,19.05-44.28a74.16,74.16,0,0,0-6.84-31.64c-8.09-16.95-24.8-40.32-50.17-70.35-25.19-30-41.57-52.53-48.77-67.45s-10.78-30.07-10.78-45.19q0-41,30.06-69.6c20.14-18.91,45.67-28.45,77-28.45a128.64,128.64,0,0,1,24.84,2.18c3.77,1.07,13,4.3,27.69,9.68,14.58,5.41,24.3,8.3,29.16,8.3,12,0,22.12-6.84,30.57-20.16Zm-492.77,22.13c-18,0-37.06,8.66-57.58,25.9-29.14,24-54.87,59.37-77.35,106.71s-33.83,90.13-33.83,128.29q0,28.55,14.57,45.31c9.71,11.32,20.89,16.92,33.45,16.92,30.61,0,63.88-22.85,100.21-68.56q72.65-90.66,72.73-186c0-23.92-4.7-41.23-14.06-52.17S13343.69,6860.42,13327.49,6860.42Zm151.28-22.13L13396,7126.17l-9.54,39a45.68,45.68,0,0,0-1.09,8.8,19.7,19.7,0,0,0,4.15,12.25,10.54,10.54,0,0,0,8.44,3.59c3.61,0,8.31-2.16,14.23-6.84,11-8.09,25.71-24.84,44.45-50.54l14.21,10.07q-29.17,44.24-60.09,67.09c-20.88,15.3-39.95,23-57.57,23-11.9,0-20.88-3-27.19-9q-9.18-8.9-9.17-26.43c0-14.07,3.25-32.23,9.53-54.7l9-32.2c-37.24,48.39-71.42,82.39-102.38,101.63-22.48,13.86-44.44,20.7-65.85,20.7-20.65,0-38.47-8.64-53.4-25.55-14.92-17.07-22.52-40.66-22.52-70.51q0-67.5,40.34-142.5c27-50,61.33-90.15,103.06-120,32.39-23.74,63-35.8,91.75-35.8,17.64,0,32,4.68,43.55,13.68,11.34,9.16,20,24.28,26.09,45.33l15.28-48.38Zm-423.85-104.89-33.28,115.52h66.93l-7.39,26.8h-65.83l-73.24,249.9c-7.73,27-11.52,44.44-11.52,52.17,0,4.86.9,8.62,3.08,11.34a9.5,9.5,0,0,0,7.89,3.94c7,0,16.39-5,27.88-15.28,7-5.57,22.32-23,45.91-52.17l13.66,11q-38.86,56.4-73.78,80.22c-15.8,10.43-31.83,15.84-47.83,15.84-12.41,0-22.51-3.95-30.43-11.7s-11.87-17.62-11.87-30.05c0-15.08,4.5-38.31,13.14-69.59l71.26-245.6h-64.22l4.1-16.73c31.32-8.45,57.23-21.23,77.74-38,20.5-16.93,43.71-46.05,69.29-87.63Zm-248.83,104.89-25.91,130.79h-15.65q-2.18-56.94-24.29-82.76c-14.75-17.24-33.11-25.9-54.87-25.9-17.26,0-31,4.85-41.39,14.23s-15.48,21.2-15.48,34.9a63.19,63.19,0,0,0,6,26.63c4.14,8.62,13.1,20.31,27.16,35.44,36.51,40.48,60.23,70.88,70.86,91q16.21,30.21,16.2,57.74,0,44.25-36.69,78.26c-24.49,22.66-55.23,34-92.48,34-20.33,0-43.91-4.86-70.7-14.22-9.2-3.61-16.37-5.37-21.59-5.37-12.61,0-22.32,6.46-29,19.59H12483l25.86-137.61h15.84c1.28,43.18,10.07,73.74,26.27,91.36q24.28,26.73,66.4,26.66c21.41,0,38.52-6,51.1-17.82,12.77-12.09,19.05-26.81,19.05-44.28a74.45,74.45,0,0,0-6.84-31.64c-8.09-16.95-24.79-40.32-50.16-70.35-25.2-30-41.6-52.53-48.79-67.45s-10.78-30.07-10.78-45.19c0-27.34,10.09-50.55,30.07-69.6,20.14-18.91,45.67-28.45,77-28.45a128.68,128.68,0,0,1,24.83,2.18c3.75,1.07,13,4.3,27.7,9.68,14.57,5.41,24.28,8.3,29.14,8.3,12,0,22.12-6.84,30.58-20.16Zm-357,0-83.65,297.95c-5.77,19.94-8.46,31.83-8.46,35.78,0,4.52,1.26,8.3,4,11a11.68,11.68,0,0,0,9.16,4.32c4.5,0,9.71-2.34,15.28-6.84,16.2-12.76,32.59-30.76,49-54.31l14.76,10.07a312.61,312.61,0,0,1-68,74.29c-18.89,14.75-37.24,22.13-54.71,22.13-11.69,0-21-3.39-28.4-10.27a34.49,34.49,0,0,1-11.17-26.07c0-10.63,3.63-28.09,10.61-52.34l55.23-190.18c8.83-30.92,13.16-50.37,13.16-58.46a19.92,19.92,0,0,0-6.49-15.12c-4.49-4-10.26-6.13-17.62-6.13-6.32,0-19.42,1.63-39,4.86V6862.6Zm-5.21-168c11.85,0,21.92,4.1,30,12.39a40.62,40.62,0,0,1,12.08,29.67,41.89,41.89,0,0,1-12.23,30.05,40.14,40.14,0,0,1-29.87,12.61,41,41,0,0,1-30-12.61c-8.47-8.44-12.61-18.34-12.61-30.05a40.15,40.15,0,0,1,12.45-29.67C12422,6674.38,12432,6670.28,12443.92,6670.28Zm-210.33,63.12-33.29,115.52h66.94l-7.39,26.8H12194l-73.24,249.9c-7.74,27-11.52,44.44-11.52,52.17,0,4.86.89,8.62,3.07,11.34a9.51,9.51,0,0,0,7.91,3.94c7,0,16.37-5,27.87-15.28,7-5.57,22.32-23,45.91-52.17l13.66,11q-38.86,56.4-73.78,80.22c-15.8,10.43-31.83,15.84-47.83,15.84-12.41,0-22.52-3.95-30.41-11.7s-11.89-17.62-11.89-30.05c0-15.08,4.49-38.31,13.14-69.59l71.26-245.6H12064l4.1-16.73c31.32-8.45,57.22-21.23,77.74-38,20.5-16.93,43.73-46.05,69.28-87.63Zm-518.7,129.2,146.43-24.31-61,206.71q74.25-127.08,134.93-177.75c22.87-19.23,41.39-29,55.78-29,9.55,0,16.93,2.89,22.14,8.47s7.91,13.66,7.91,24.28a106.65,106.65,0,0,1-14.21,53.24c-6.65,12.61-16.55,18.9-29.52,18.9a23.67,23.67,0,0,1-16.55-6.29c-4.85-4.14-7.73-10.62-8.8-19.43-.36-5.41-1.43-8.82-3.59-10.62a12,12,0,0,0-7.91-3.06,29.66,29.66,0,0,0-13.69,3.06c-7.36,3.94-18.69,14.92-33.82,33.28-23.59,27.69-48.94,63.53-76.47,107.42a363.66,363.66,0,0,0-30.57,63.31c-11.54,32.39-18.18,51.82-20,58.5l-13.68,53.24h-64.78L11766,6959c8.84-30.57,13.14-52.33,13.14-65.29a15.46,15.46,0,0,0-6.33-12.61c-5.56-4.66-12.92-7-22.11-7-5.94,0-16.91,1.27-32.56,3.79Zm-212.49-86.9L11336,7002.18h144.29Zm83.85-141.78L11542.52,7113c-2.16,22.12-3,36.71-3,43.73,0,11.14,2,19.8,6.28,25.72a46.5,46.5,0,0,0,21.77,18.52c9.36,3.78,24.83,5.77,46.76,5.77l-4.86,15.84h-226.69l4.86-15.84h9.55c18.54,0,33.62-3.77,45.36-11.5,7.89-5.77,14.37-14.57,18.87-27,3.25-8.79,6.12-29.49,9-62l6.84-72.88h-165l-58.45,79.7c-13.52,17.46-21.8,30.23-25,38a54.62,54.62,0,0,0-5,22.12c0,9,3.61,16.95,11,23.43s19.61,9.87,36.36,10.23l-4.7,15.84h-170.17l4.65-15.84c21-.71,39.59-7.55,55.58-20.85s39.76-41.21,71.44-84l343.62-467.95Zm-944,407.85c41.75-4.86,75.94-13.12,102.21-24.82q52.33-23.22,78.26-55.6c17.46-21.59,26.06-42.28,26.06-61.87,0-11.53-3.74-21-11.34-28.44s-18.15-11.16-31.83-11.16q-43.17,0-91.76,45.89Q10665.54,6951.63,10642.23,7041.77Zm-3.25,21a282.68,282.68,0,0,0-2.48,34.9c0,25.2,8.81,46.79,26.63,64.59,17.6,17.66,39.37,26.46,64.93,26.46a141.5,141.5,0,0,0,58.84-12.59q28-12.69,83.47-55.22l9,12.05q-100.65,99.52-191.8,99.65c-41.19,0-72.14-13.13-93-39-21-26.1-31.49-54.68-31.49-86,0-42.08,13.16-85.3,39.07-129.34q39.09-66.14,97.87-103.1c39-24.48,79.51-36.89,121.42-36.89,29.87,0,52,6.13,66.4,18.54q21.56,18.38,21.57,43.17,0,35.39-27.89,67.45-37,42.15-108.67,68C10741.36,7047,10696.76,7056.18,10639,7062.82Zm-225-142.32c0-18.16-5-32.75-15.48-43.69s-23.58-16.39-39.78-16.39c-36,0-73,29.35-111.54,88.16s-57.74,114.8-57.74,168.59c0,21.41,4.7,37.76,14,48.75,9.32,11.15,20.5,16.54,33.46,16.54,29.49,0,66.39-31.65,110.63-95.36Q10414,6991.84,10414,6920.5Zm157.59-301.5-145.89,500.85c-8.11,27-12.26,45-12.26,53.8a10.65,10.65,0,0,0,3.79,7.74c2.54,2.52,4.86,3.79,7.35,3.79,3.79,0,8.29-1.82,13.15-5.21,9.89-7,26.08-24.14,48.58-51.12l14.75,8.82c-20.52,28.25-41,51.1-62.06,68.56-20.86,17.62-40.28,26.43-58.1,26.43-9.92,0-17.82-3.39-24.13-10.07q-9.18-10-9.17-29c0-16.19,4.31-37.79,12.6-64.77l16.36-52.73q-61,95.27-111.7,131.74-34.84,24.8-66.4,24.8-32.66,0-56.68-28.61c-16-18.87-23.94-45-23.94-77.88q0-63.45,40.32-135,40.18-71.74,106.7-116.55c34.87-24.11,66.74-36.36,95.9-36.36,15.08,0,28.22,3.25,39.36,9.54s22,16.73,33,31.12l41.55-147.54c2.89-10.59,5.39-19.07,7.35-25.35,3.63-11.34,5.41-20.49,5.41-27.89a18.49,18.49,0,0,0-6.48-14.73c-5.92-5.06-13.66-7.39-23.17-7.39-6.32,0-17,.91-32,3.05v-15.84Zm-864.83,241.42c-18,0-37.08,8.66-57.58,25.9-29.14,24-54.87,59.37-77.35,106.71S9538,7083.16,9538,7121.32q0,28.55,14.57,45.31c9.71,11.32,20.89,16.92,33.45,16.92,30.61,0,63.88-22.85,100.21-68.56q72.65-90.66,72.71-186c0-23.92-4.68-41.23-14.06-52.17S9722.92,6860.42,9706.72,6860.42ZM9858,6838.29l-82.73,287.88-9.54,39a45.68,45.68,0,0,0-1.09,8.8,19.7,19.7,0,0,0,4.15,12.25,10.54,10.54,0,0,0,8.44,3.59c3.61,0,8.31-2.16,14.23-6.84,11-8.09,25.71-24.84,44.43-50.54l14.23,10.07q-29.18,44.24-60.09,67.09c-20.88,15.3-40,23-57.57,23-11.9,0-20.88-3-27.19-9q-9.18-8.9-9.17-26.43c0-14.07,3.25-32.23,9.53-54.7l9-32.2c-37.24,48.39-71.42,82.39-102.38,101.63-22.48,13.86-44.44,20.7-65.85,20.7-20.65,0-38.47-8.64-53.4-25.55-14.92-17.07-22.52-40.66-22.52-70.51q0-67.5,40.34-142.5c27-50,61.33-90.15,103.06-120,32.39-23.74,63-35.8,91.75-35.8,17.64,0,32,4.68,43.55,13.68,11.34,9.16,20,24.28,26.09,45.33l15.28-48.38Zm-449.76,0-83.67,297.95c-5.75,19.94-8.44,31.83-8.44,35.78,0,4.52,1.26,8.3,3.94,11a11.72,11.72,0,0,0,9.18,4.32c4.5,0,9.71-2.34,15.28-6.84,16.2-12.76,32.59-30.76,48.94-54.31l14.77,10.07a312.61,312.61,0,0,1-68,74.29c-18.89,14.75-37.25,22.13-54.71,22.13-11.7,0-21-3.39-28.4-10.27a34.46,34.46,0,0,1-11.18-26.07c0-10.63,3.62-28.09,10.62-52.34l55.23-190.18c8.84-30.92,13.14-50.37,13.14-58.46a19.9,19.9,0,0,0-6.47-15.12c-4.49-4-10.26-6.13-17.62-6.13-6.32,0-19.44,1.63-39.07,4.86V6862.6Zm-5.21-168c11.85,0,21.92,4.1,30,12.39a40.65,40.65,0,0,1,12.07,29.67,41.78,41.78,0,0,1-12.25,30.05A40.05,40.05,0,0,1,9403,6755a41,41,0,0,1-30.06-12.61c-8.46-8.44-12.6-18.34-12.6-30.05a40.21,40.21,0,0,1,12.43-29.67A41,41,0,0,1,9403,6670.28Zm-244.71,460c-29.49,35.28-59.17,61-89.22,77.58s-61.89,24.8-95.14,24.8q-60.21,0-93.94-33.82t-33.66-91.22q0-64.8,36.35-127.72a293.1,293.1,0,0,1,97.53-102.22c40.83-26.26,80.78-39.39,120.18-39.39,30.92,0,54,6.48,69.24,19.61,15.3,12.94,23,28.78,23,47.31,0,17.67-5.56,32.59-16.35,44.8-7.75,9.91-17.47,14.77-29,14.77-8.82,0-16.18-2.9-22-8.65a29.19,29.19,0,0,1-8.63-21.4,36.94,36.94,0,0,1,3.07-14.75c2.14-4.5,6.48-9.91,13.32-16.2,6.63-6.48,10.58-11,12-13.85a19,19,0,0,0,2.14-8.82c0-6.11-2.7-11-7.91-14.76-8.46-5.74-20.14-8.45-34.9-8.45-27.69,0-55.23,9.71-82.41,29.14-27.14,19.64-50.56,47.15-69.79,83.15q-34.84,65.3-34.92,130.59,0,43.17,24.85,68.57t66.9,25.34c21.77,0,43.37-5.56,64.78-16.35,21.6-11,45.35-30.6,71.77-59Zm-578.22-292-56.29,193.41q79.07-118.46,121.43-156c28.25-24.82,55.41-37.43,81.51-37.43,14,0,25.53,4.86,34.73,14.24s13.65,21.56,13.65,36.33c0,17.27-3.94,39.94-12,68l-51.66,178.82c-6,20.69-9,33.3-9,38a14.28,14.28,0,0,0,3.39,9.71c2.34,2.54,4.7,4,7.19,4,3.08,0,7.24-1.78,12.09-5.39,15.09-11.87,31.65-30.05,49.46-54.15l13.3,7.91c-26.42,37.6-51.25,64.42-74.85,80.61-16.55,10.79-31.28,16.36-44.24,16.36-10.62,0-18.87-3.23-25.19-9.52-6.13-6.32-9.16-14.77-9.16-25.39,0-13.68,4.85-37.05,14.21-70l49.66-170.91c5.93-21.05,8.8-37.6,8.8-49.48,0-5.56-1.78-10.26-5.37-13.67a18.8,18.8,0,0,0-13.5-5.21c-7.75,0-17.27,3.23-28.45,9.86-20.69,12.81-42.46,33.67-65.13,63s-46.57,66.74-72,112.1a413.16,413.16,0,0,0-33.1,79l-21.23,70.15H8404.7l77.36-265.72c9.17-31.88,13.86-51.1,13.86-57.39s-2.72-11.89-7.73-16.59a25.28,25.28,0,0,0-18.17-7.17c-3.44,0-9.56.73-17.81,2.16l-16.39,2.18-2.7-15.32Zm-471.19,203.48c41.77-4.86,76-13.12,102.22-24.82q52.34-23.22,78.26-55.6c17.45-21.59,26.07-42.28,26.07-61.87,0-11.53-3.75-21-11.34-28.44s-18.16-11.16-31.83-11.16q-43.22,0-91.76,45.89Q8132.25,6951.63,8108.91,7041.77Zm-3.23,21a283.27,283.27,0,0,0-2.5,34.9c0,25.2,8.82,46.79,26.63,64.59,17.62,17.66,39.38,26.46,64.93,26.46a141.48,141.48,0,0,0,58.85-12.59q28.05-12.69,83.48-55.22l9,12.05q-100.67,99.52-191.8,99.65c-41.2,0-72.14-13.13-93-39-21-26.1-31.48-54.68-31.48-86,0-42.08,13.16-85.3,39.07-129.34q39.1-66.14,97.86-103.1c39-24.48,79.53-36.89,121.43-36.89,29.86,0,52,6.13,66.41,18.54q21.55,18.38,21.56,43.17,0,35.39-27.88,67.45-37,42.15-108.67,68C8208.06,7047,8163.46,7056.18,8105.68,7062.82Zm-435.35,159.77c-22.84,10.62-40.15,23.92-51.84,40.3-11.85,16.37-17.6,32.38-17.6,48.22,0,18.71,8.44,34.15,25.19,46.41,24.64,17.62,60.28,26.26,107,26.26,40.48,0,75-6.84,103.81-20.5s43.18-31.47,43.18-53.24c0-11.18-5.22-21.76-16-31.49-10.83-9.91-31.32-18-61.9-24.28C7785.65,7251,7741.75,7240.57,7670.33,7222.59Zm203.49-290.92q0-34.31-18.91-53.79c-12.77-13-29.12-19.43-49.66-19.43-31.83,0-58.27,16-79,48.23q-31,48-31.12,100.36c0,21.76,6.64,39.59,19.78,53.44s29.32,20.85,48.21,20.85q22.69,0,43.71-12.39a105.33,105.33,0,0,0,35.28-34c9.52-14.37,17.27-32.75,23-55S7873.82,6941.39,7873.82,6931.67ZM8021,6864.74,8008.75,6909h-71.06c5.21,15.48,7.9,29.67,7.9,42.64,0,37.58-15.83,71.08-47.48,100.2q-48.06,43.17-131.17,47.87c-30.23,9.15-52.71,20.14-67.47,32.75-5.77,4.14-8.45,8.79-8.45,13.65q0,8.36,7.55,15.64c5,4.7,17.8,9.38,38.3,13.87l82.59,19.63c45.36,10.43,75.41,23.19,90.14,38,14.59,15.08,21.76,32.2,21.76,51.62q0,34.85-25.7,63.69-25.36,29.13-75,45.33-49.71,16.47-109.06,16.39c-35.23,0-67.1-4.14-96.07-12.6-28.79-8.45-49.49-19.78-61.88-33.8s-18.73-28.65-18.73-43.73c0-11.89,4.14-24.49,12.09-37.6a108.86,108.86,0,0,1,30-32.59c7.75-5.57,29.52-18.33,65-38.47-13-10.07-19.63-21.41-19.63-33.66,0-11.34,5.93-23.21,17.45-35.82,11.69-12.76,35.8-26.78,72.68-42.26-31.11-5.93-55.95-18.89-73.93-38.87-18.18-20.14-27.18-42.46-27.18-66.92q0-60.18,52.73-107.93c35.07-31.68,82.05-47.7,140.7-47.7,21,0,38.32,2.18,52,6.64a155.45,155.45,0,0,1,39.79,19.81Zm-620-89-166.4,226.48h144.28Zm83.85-141.78L7441.1,7113c-2.16,22.12-3,36.71-3,43.73,0,11.14,2,19.8,6.28,25.72a46.45,46.45,0,0,0,21.77,18.52c9.35,3.78,24.83,5.77,46.76,5.77l-4.86,15.84H7281.34l4.85-15.84h9.55c18.54,0,33.62-3.77,45.36-11.5,7.91-5.77,14.37-14.57,18.87-27,3.25-8.79,6.12-29.49,9-62l6.81-72.88h-165l-58.46,79.7c-13.5,17.46-21.81,30.23-25,38a54.89,54.89,0,0,0-5,22.12c0,9,3.59,16.95,11,23.43s19.59,9.87,36.33,10.23l-4.7,15.84H6994.76l4.66-15.84c21.07-.71,39.59-7.55,55.59-20.85s39.78-41.21,71.45-84l343.6-467.95Z" transform="translate(-468.77 -487.15)"/><path class="cls-1" d="M7056,4335.72c127.74-145.18,249.68-264.21,367.29-358.59,116.14-92.91,206.15-200.34,268.57-319.38l17.41,26.13-63.87,142.28c0,17.41,26.13,42.09,78.39,76.93,53.71,33.41,98.72,50.81,139.38,50.81,36.29,0,75.48-20.32,114.67-59.51q26.13,0,26.14,26.13c-56.63,79.84-107.44,152.43-151,216.3s-88.55,108.89-135,136.47c-47.91,27.58-92.91,40.64-139.37,40.64-56.61,0-143.73-53.7-262.77-159.69-14.5,0-47.91,27.59-101.63,82.76-55.14,53.72-107.43,124.84-158.22,211.94v932c0,50.81,33.39,103.07,101.62,156.79s119,81.3,149.51,81.3c20.34,0,78.4-37.75,174.22-114.67l17.43,26.12c0,14.51-65.34,68.23-196,159.69-130.67,92.91-222.13,165.49-275.83,216.3-55.18,52.27-124.86,135-213.4,252.61L6796.14,6133c0-14.51,18.87-46.44,55.17-97.27,36.29-49.34,55.17-84.18,55.17-104.52s-32-68.23-95.82-145.16-123.4-114.69-180-114.69c-26.14,0-72.59,17.42-140.82,50.8l-27.59-17.42q0-21.77,135-87.1c90-43.55,135-114.69,135-210.49V4424.26q0-93.63-82.74-178.55c-55.17-56.62-97.27-85.66-124.86-85.66-45,0-120.5,76.95-225,229.39-17.41,0-26.13-11.63-26.13-36.3,0-65.34,116.14-185.82,347-364.39,116.14-87.1,207.6-203.24,275.82-347,18.88,0,27.6,8.72,27.6,26.14,0,20.32-36.3,90-110.33,209C6974.7,4020.68,7056,4135.37,7056,4216.66Z" transform="translate(-468.77 -487.15)"/><path class="cls-1" d="M8565.82,5330.16c0,68.23,24.68,133.56,72.58,196s98.72,92.91,152.43,92.91c65.32,0,126.29-27.58,182.93-81.3l17.4,26.13c0,20.34-58.06,74-174.19,159.69-116.15,87.12-268.58,217.77-458.76,392l-21.78-17.44c0-23.21,17.43-47.89,53.72-76.93,34.85-29,52.27-58.08,52.27-90l-50.82-68.23c-100.17-107.42-149.52-211.94-149.52-313.57V4359c0-42.11-27.6-84.21-82.76-123.4s-92.9-59.52-116.14-59.52c-20.31,0-66.78,26.12-140.82,76.93l-17.42-36.3c304.87-235.16,502.32-409.38,596.67-522.61l24.68-26.13c21.78,0,32,8.71,32,26.13q0,30.48-156.82,209c0,30.49,36.29,72.59,110.35,124.87s156.77,94.35,248.25,124.84q-174.24,78.39-174.21,174.21Z" transform="translate(-468.77 -487.15)"/><path class="cls-1" d="M8336,3125c56.61,0,107.41,21.79,155.32,65.33,47.91,45,72.59,94.36,72.59,151,0,58.06-21.78,107.42-63.87,152.43Q8436.91,3559,8352,3559c-55.18,0-107.44-21.77-153.9-65.32-46.44-45-69.67-94.37-69.67-152.43,0-56.63,21.78-106,63.87-151Q8255.44,3125,8336,3125" transform="translate(-468.77 -487.15)"/><path class="cls-1" d="M11376.37,6057.48q-17.4,8.72-17.41-17.43c0-20.31,24.69-53.7,72.6-100.16l-46.46-59.53q-259.14-228.64-259.86-799.9,0-411.57,243.88-682.32c161.15-180,267.12-270,315-270l33.38,17.43-21.76,23.23q-263.51,161.13-262.77,641.67c0,297.61,33.38,500.85,100.16,612.62s158.24,168.41,274.39,168.41c26.14,0,78.39-30.5,156.79-92.93l17.42,17.43c0,14.53-47.91,58.08-145.18,130.67-95.81,72.59-249.7,209-460.21,410.84m-807.16-1830.65c79.86-103.07,187.28-203.24,322.29-303.4,133.56-98.74,243.9-193.08,329.54-281.65l21.79,17.42-114.69,137.92c0,26.13,37.74,72.59,114.69,142.27,75.48,69.68,165.5,104.52,267.1,104.52,56.64,0,139.38-30.49,249.72-90l21.77,17.42c-133.56,85.66-236.64,162.61-310.68,230.83s-149.52,103.08-229.38,103.08q-148.07,0-274.38-126.31c-84.18-84.18-132.09-126.29-146.61-126.29-17.44,0-62.43,39.19-137.92,117.59s-113.24,142.26-113.24,190.18v937.83c0,104.52,65.34,188.72,197.43,254l55.18,37.75-26.14,17.42c-169.84,37.76-316.47,162.6-439.88,376-30.48,53.71-53.71,81.29-68.22,81.29l-17.43-33.38,90-151c0-42.1-39.19-97.26-117.58-162.6s-136.46-97.27-174.22-97.27c-14.51,0-45,11.62-92.9,33.41L9958,5626.3l59.52-42.08c152.44-74,227.94-167,227.94-280.19v-911.7c0-79.85-29-145.18-87.11-198.88s-104.53-81.31-137.93-81.31c-30.48,0-88.54,40.66-169.84,123.41q-124.14,124.11-187.28,243.88v794.11c0,107.42,75.49,216.31,227.92,326.64l-30.49,17.42c-127.75,26.14-251.15,127.76-371.64,306.31-40.64,59.53-66.78,90-81.29,90l-17.43-37.74,46.46-69.69c0-50.81-34.84-110.33-104.52-175.66Q9227.81,5630.65,9193,5630.66c-18.87,0-63.89,20.34-133.56,59.53-21.76,0-31.94-8.71-31.94-27.59l46.45-29Q9339.59,5492,9339.6,5280.8V4418.45c0-71.12-26.13-129.2-77-174.19s-94.36-68.23-132.1-68.23c-69.69,0-145.18,66.78-225,200.34l-17.43-37.76c0-26.13,37.74-81.29,113.25-168.39,75.48-85.65,166.94-168.41,274.36-246.79,107.44-76.95,180-171.32,219.21-283.1l17.43-33.4c18.86,0,27.59,7.27,27.59,21.78,0,27.6-36.3,103.08-110.33,223.58q0,21.77,117.58,104.52c76.93,55.17,116.14,130.66,116.14,226.47v200.35c36.29-82.76,149.54-194.54,338.25-336.82,190.17-143.72,300.51-236.62,332.46-278.72,33.38-42.11,74-110.34,121.94-203.24l17.43,26.12c0,24.68-47.91,111.78-145.18,261.32l55.17,59.51C10506.79,4010.51,10569.21,4116.5,10569.21,4226.83Z" transform="translate(-468.77 -487.15)"/><path class="cls-1" d="M13003.8,5321.44V4334.27c0-39.21-45-91.46-133.56-155.35s-148.1-95.82-178.59-95.82c-33.37,0-92.9,82.76-177.1,249.72-82.74,165.5-124.85,367.29-124.85,605.37,0,193.07,33.39,348.42,101.62,466S12638,5581.3,12728,5581.3c94.36,0,185.82-87.09,275.85-259.86m7.25,87.11c-84.21,121.95-230.82,257-437,403.59-166.94,119-291.81,242.44-373.09,370.19l-21.79,29q-21.77,0-21.76-26.12c0-23.23,30.49-68.23,91.44-137.9,61-68.25,91.48-119.05,91.48-149.54l-42.11-63.89q-267.85-272.17-268.56-718.6,0-596.69,669.25-1138.17,204.67-163.32,405-413.75l17.4,17.43c0,20.33-55.14,98.71-165.5,236.63,271.49,210.52,454.41,316.49,548.77,319.38,33.4,2.91,50.82,11.62,50.82,27.59-152.44,82.74-227.94,149.52-227.94,203.24v939.28c0,110.33,33.41,200.34,101.63,268.57Q13531.49,5680,13603.36,5680c29,0,87.1-30.49,174.2-92.9q21.77,0,21.78,26.12c0,17.42-63.89,63.89-190.17,142.28s-275.85,211.94-448.6,402.11l-8.72-17.39c0-23.24,46.46-92.91,140.82-209.07,0-14.51-21.77-39.19-63.87-76.93C13083.62,5725,13011.05,5575.5,13011.05,5408.55Z" transform="translate(-468.77 -487.15)"/><path class="cls-1" d="M12776.62,2702.84c-65.16,26.8-162.53,49.19-292.14,67.85-73.65,10.53-125.9,22.4-156.08,35.64-30.56,13.22-54.3,32.57-70.6,58.36a151.65,151.65,0,0,0-25.11,84.82c0,47.85,18.32,87.55,54.29,119.45,36,31.56,88.9,47.49,158.46,47.49q103.33,0,183.91-45.12c53.63-30.2,93.31-71.6,118.42-123.85,19.35-40.37,28.85-100.1,28.85-178.83Zm14.92,399.71q-99.75,84.48-191.37,119.43-92.13,34.62-197.48,34.62c-116,0-204.94-28.18-267.37-84.85-62.1-56.65-93.32-129.25-93.32-217.15,0-51.91,11.53-99.07,35.28-141.83,23.41-42.76,54.29-77,92.29-102.82,38.37-25.78,81.1-45.45,129-58.69,34.95-9.15,87.87-18.33,158.8-26.8q216.84-26,319.3-61.76c.67-24.42,1-40,1-46.49,0-72.95-17-124.52-50.92-154-45.45-40.74-113.66-60.74-203.57-60.74q-126.23,0-186.63,44.1-60.06,44.28-88.91,156.76l-174.73-24.08c15.94-74.66,42.07-135.39,78.38-181.2,36.31-46.15,89.24-81.77,158.12-106.55s148.63-37.32,239.56-37.32c90.25,0,163.21,10.86,219.53,31.89,56.33,21.37,97.72,47.85,124.52,80.08,26.48,32.23,44.8,72.62,55.66,121.81,5.77,30.55,8.82,85.52,8.82,164.91v238.54q0,249.9,11.54,315.54c7.45,44.13,22.73,86.54,45.13,126.93h-187C12808.85,3195.86,12796.64,3152.42,12791.54,3102.55Zm-1278.29,130.3V2177.25h160.85v159.81c41-74.65,79-124.19,114-148,34.61-23.74,72.94-35.95,114.67-35.95,60.42,0,121.49,19.34,183.91,57.68l-61.75,166.27c-43.43-26.13-87.2-39-131-39-39.37,0-74.32,11.88-105.53,35.28-31.23,23.77-53.29,56.33-66.51,98.06q-30,95.22-29.87,208.7v552.74Zm-876.86-535.78q0,189.84,51.57,274.16,84.48,138.43,228.69,138.44,117.57,0,202.91-102.12,85.5-101.82,85.5-303.7,0-206.64-82.1-305-81.94-98.21-198.16-98.39-117.57,0-202.92,101.81Q10636.37,2504,10636.39,2697.07Zm2,535.78h-165.92V1775.5h178.83v519.81q113.47-142,289.08-142.16c65.16,0,126.56,13.22,184.58,39.37s105.54,63.11,143.2,110.27c37.32,47.49,66.84,104.5,87.89,171.7q32.06,100.26,31.9,214.43,0,271.8-134.38,419.74-133.86,148.1-322,147.94-186.8,0-293.17-156.08Zm-1495.12-706.8q0,263.63,141.5,415,142,151.64,355.61,151.66,217.82,0,358.32-153,140.46-153.21,140.8-434.66c0-118.41-20.35-221.91-60.39-310.47s-98.74-157.1-175.77-206q-116-72.78-259.91-73-205.1,0-352.54,140.81Q9143.3,2196.94,9143.29,2526.05ZM8944.46,2523q0-362.86,194.77-568,194.94-205.1,503.21-205.27,201.57,0,363.74,96.35,161.86,96.72,247,269.09c56.67,114.69,84.84,245.32,84.84,390.89q0,221.89-89.24,396.65-89.55,175.09-253.46,265-164.4,90.09-353.91,89.91-206.11,0-367.83-99.41-162.33-99.24-245.65-271.44Q8944.47,2715.23,8944.46,2523Z" transform="translate(-468.77 -487.15)"/><path class="cls-1" d="M6669.14,4923.66c37.74,0,56.64,30.49,56.64,92.91,0,59.52-16,88.56-47.91,88.56-23.24,0-37.76-5.8-43.57-18.86s-8.7-36.3-8.7-69.7c0-39.19,2.88-65.31,7.25-75.48,4.36-11.62,16-17.43,36.29-17.43M4972.06,5471c-66.78,87.1-175.66,198.9-323.73,335.36-149.52,136.46-272.94,267.12-371.65,394.86l-17.43-17.41q0-41.39,165.5-252.61c0-82.74-104.52-193.07-312.12-331C3905,5460.8,3651,5391.13,3354.83,5391.13c-258.41,0-479.07,56.61-663.46,171.31s-275.82,267.1-275.82,457.3q0,187.24,152.43,309.2c101.63,82.76,222.13,123.41,360,123.41q165.49,0,348.42-113.24l8.72,21.79c0,14.51-37.74,39.18-114.69,74-76.95,36.3-162.61,53.72-259.87,53.72-130.65,0-251.15-42.11-362.93-124.86-111.79-84.19-168.41-197.43-168.41-342.61,0-280.19,129.22-513.91,389.07-698.3q387.61-278.72,784-278.72,764.31,0,1223.8,454.38l37.74,33.41c31.94,0,72.59-34.85,123.42-106l17.39-17.41,33.39-46.46,90-98.71,17.43,33.38c0,26.12-34.83,78.42-106,156.79Zm181.47-747.65v-421q-285.26,47.91-513.91,174.2C4825.44,4541.87,4998.19,4624.61,5153.53,4723.32Zm1379.16,200.34c20.31,0,33.38,5.81,37.74,17.43,4.36,10.17,5.8,36.29,5.8,75.48,0,59.52-11.61,88.56-34.84,88.56q-39.2,0-52.25-17.42c-8.72-10.15-13.06-34.85-13.06-71.14C6476.08,4954.15,6494.94,4923.66,6532.69,4923.66Zm50.8,235.19v-50.8c0-91.48-11.61-168.41-33.38-230.83-43.57,0-65.34-20.34-65.34-59.53a58.19,58.19,0,0,1,17.43-42.1c-5.81-17.42-17.43-40.64-33.4-72.59h-26.12c-33.39,0-49.36-17.42-49.36-50.8l17.42-34.85q-302.68-348.42-872.5-348.41c-127.75,0-243.89,8.7-348.41,24.67v447.13c204.68,137.92,357.12,275.83,458.75,409.39,103.07,135,153.87,212,153.87,232.3l-21.76,16-29-37.74q-226.48-344.08-561.82-569.08v815.86c198.88,110.33,413.75,165.51,647.47,165.51,124.84,0,249.7-29,377.46-88.56s225-146.63,290.34-259.87c-11.62-11.59-17.41-24.68-17.41-42.08,0-33.4,20.31-50.83,62.42-50.83l16-50.8c-27.58-11.61-42.11-29-42.11-55.17C6524,5192.24,6544.3,5170.47,6583.49,5158.85ZM3941.32,3911.8q-13.05-259.12-200.34-470.36C3616.14,3300.62,3466.6,3204.8,3291,3154,3431.77,3489.37,3649.53,3740.49,3941.32,3911.8ZM2843.81,1506.29c0-116.16-58.06-223.58-172.75-322.31-16,69.7-24.68,139.37-24.68,207.6,0,169.85,37.74,255.51,113.22,255.51C2816.24,1647.09,2843.81,1600.64,2843.81,1506.29Zm257,644.55q85-1016.93,965.43-1453.18C3916.64,600.39,3741,552.48,3543.56,552.48c-181.48,0-352.79,53.72-512.48,159.69S2756.71,959,2688.48,1134.64q204.69,174.18,204.68,374.54c0,122-46.44,182.92-140.81,182.92-61,0-107.42-30.48-142.27-91.46-33.38-61-50.8-136.45-50.8-223.57,0-82.74,17.42-164,50.8-243.89Q2296.52,895.82,1845,895.09q-572.71,0-949.44,316.48-376.73,317.94-376,844.91c0,304.86,95.8,563.28,288.89,778.14q289.62,320.1,820.22,406.47c8.72-17.4,26.13-26.12,50.83-26.12,33.38-1.45,50.8,14.53,50.8,45h33.39c11.61-30.48,36.29-46.46,72.58-46.46,32,0,55.17,18.87,69.7,55.17h49.35c14.51-36.3,39.19-55.17,72.6-55.17q56.61,0,69.67,56.61l198.89-30.48c-5.8-11.62-27.59-24.68-63.88-40.64-36.3-14.51-53.7-39.21-50.81-69.7,36.3,20.34,71.13,30.49,101.63,30.49,17.41,0,36.28-2.89,56.62-7.26,18.86-4.35,39.18-5.8,59.5-5.8,53.72,0,85.67,14.53,97.27,42.1,0-40.65,24.7-61,72.59-61,32,0,52.27,11.62,61,33.41l47.91-16c0-39.21,24.68-58.06,72.59-58.06q34.84,0,61,26.12c17.43-5.8,39.21-8.72,68.23-8.72,11.62-31.92,32-47.88,62.44-47.88,29,0,45,13,50.8,37.74,17.43-5.81,50.81-8.72,98.72-8.72,59.53,0,103.08,2.91,127.75,8.72-59.52-172.77-95.82-338.27-110.33-498C3092.06,2420.87,3089.17,2272.79,3100.76,2150.84Zm495.07,4893.82q494.31-204.72,495-502.31,0-156.8-156.79-156.78c-98.72,0-181.47,49.36-246.78,146.63-66.79,97.26-100.19,213.41-100.19,347ZM6524,6387c-149.51-274.38-421-412.28-811.5-412.28q-307.06,0-588,148.07c-185.82,100.16-323.74,233.72-412.31,405,219.24,62.43,460.22,92.92,723,92.92Q6049.26,6620.76,6524,6387ZM6095.71,1760.33c-20.32,42.1-76.93,110.33-172.75,203.24-94.38,92.91-142.27,165.49-142.27,216.32s58.06,120.48,172.75,206.15c114.69,87.1,194.54,153.88,239.53,201.79l34.85,26.12c143.71,145.18,216.3,325.19,216.3,540.06,0,74-11.62,137.91-33.38,191.63l-8.72,43.54c-29,81.29-78.38,172.75-149.52,271.49l-33.38,43.53q-280.92,383.3-664.92,522.63-169.83,65.33-365.84,26.13c-201.79-36.3-301.95-148.08-301.95-332.44,0-84.2,24.68-159.69,74-225s113.24-106,193.08-123.38l50.81-8.73q139.36,0,230.83,78.4c61,53.71,91.46,126.31,91.46,220.68,0,62.42-27.59,117.57-81.29,164-53.72,47.91-113.24,71.14-178.58,71.14-53.7,0-107.42-14.53-159.69-45s-84.21-65.33-95.82-106c0,184.39,110.33,280.19,332.46,288.91,26.13,0,58.08-2.91,97.27-8.72,114.69-20.32,223.55-84.21,328.1-191.62q159-161.14,213.4-365.84l8.7-43.55c5.81-21.78,8.7-55.18,8.7-97.27,0-43.55-2.89-71.14-8.7-85.65v-37.76c-27.59-172.75-104.52-323.72-229.38-451.47l-98.71-97.27q-326.62-311.39-326.64-392c0-45-8.72-68.23-26.12-68.23s-104.53,53.72-262.79,161.16c-158.24,106-307.75,226.46-450,357.11,76.93,149.52,114.67,317.93,114.67,500.85,0,371.64-129.2,696.83-386.16,978.48l-26.12,33.39Q3884,4834.4,3386.78,4835.12q-494.34,0-676.51-357.14l-20.35-43.55c-11.61-56.62-17.41-100.16-17.41-132.1q0-156.78,95.81-261.31c63.87-69.7,145.18-104.52,245.35-104.52,103.07,0,184.36,27.57,246.8,81.29s94.36,124.83,94.36,214.85c0,29-5.82,59.53-17.43,94.37L3320,4364.75c-59.52,110.34-148.08,165.5-264.22,165.5-82.76,0-151-23.23-201.79-68.23,0,81.29,47.9,156.78,145.18,225,95.8,68.25,227.91,103.08,394.87,103.08,312.1,0,551.66-133.56,715.71-399.22l17.42-33.38c110.33-172.77,165.5-393.43,165.5-663.45,0-304.87-92.91-567.63-278.74-785.4S3572.59,2582,3250.3,2582c-46.46,0-75.48,2.9-90,8.7l-50.81,8.71c-47.91,4.36-161.13,31.93-338.26,81.31-177.11,47.89-368.74,72.59-576.33,72.59-257,0-477.62-68.23-659.09-206.16s-271.46-315-271.46-532.78c0-122,27.56-225,81.28-306.31,55.17-82.76,91.46-123.42,111.78-123.42l17.43,26.15-13.07,21.77c-39.2,62.42-59.53,136.47-59.53,225,0,119.05,69.7,227.91,207.6,326.63,139.38,100.18,302,149.54,489.23,149.54,149.55,0,333.91-27.59,551.68-82.76,217.75-56.61,367.28-90,450-100.17l50.83-8.69q119.76-17.46,191.62-17.44c243.89,0,467.47,55.18,672.15,165.51l42.11,26.12A1277.08,1277.08,0,0,1,4414.58,2614l34.85,34.86c45,59.5,88.56,130.64,132.12,216.29q313.56-302.67,939.27-676.51c255.51-152.43,435.51-307.76,540-463.11l26.14-42.1c16-29,27.59-52.25,33.38-72.57l17.43,30.49c0,17.4-5.81,42.08-17.43,76.93Zm-2934,827.5c13.08,178.56,52.27,354.22,114.69,524.06,206.15,53.72,377.45,158.24,512.46,312.14s201.8,325.18,201.8,512.47c26.14,17.4,65.33,37.74,119,63.86l-8.73,17.43c-30.48-8.72-68.23-24.68-110.32-47.92-11.62,127.76-58.07,246.79-140.83,358.59l277.3,29c81.29,8.7,148.07,20.31,198.87,33.38l280.19,76.95c184.37-107.43,378.9-180,582.14-216.32l158.24-17.43c21.79-5.78,55.19-8.7,97.29-8.7H5554.2q570.55,21.77,897.2,374.55c33.37,0,50.8,17.42,50.8,50.8l-8.72,26.15c23.23,23.23,45,46.44,65.33,72.58,45,0,68.23,23.23,68.23,68.23,0,21.79-11.62,39.19-33.38,50.81,21.76,90,33.38,169.85,33.38,238.1v59.51c23.23,21.76,34.85,42.1,34.85,59.52,0,30.49-20.32,50.81-61,62.42l-17.42,50.83q17.43,17.4,17.42,43.55c0,37.74-20.31,56.61-59.52,56.61-68.23,116.14-166.94,207.6-297.59,274.38s-259.87,100.16-390.54,100.16q-374.52,0-663.43-174.19v127.73l-17.42,46.46-18.88-46.46V5622q-139.35-106.71-182.92-148.07L4937.24,5426c-65.34-71.13-95.83-116.12-90-135,42.1,53.72,78.4,92.93,106,119.05l34.83,46.45c62.44,62.44,117.6,107.43,165.51,136.47v-826c-175.66-113.24-358.58-201.79-548.75-264.23-47.91,31.95-111.78,81.29-191.64,149.54l-16-8.73c0-23.23,58-72.56,174.2-149.51-59.53-16-151-39.21-272.92-66.78-78.4-17.43-142.28-29-190.19-34.85l-286-24.68c-33.4,21.79-58.08,33.4-71.14,33.4-34.84,0-58.06-14.53-68.23-42.1h-90c-124.86,0-216.3,2.89-275.82,8.7-223.58,21.79-426.82,59.53-608.29,110.33-402.13,116.14-712.81,302-929.11,556q-324.45,383.25-325.18,905.89,0,561.81,383.26,898.62,381.06,337.55,1130.9,338.25c191.62,0,389.07-37.74,590.86-114.67-11.62-78.4-17.42-145.18-17.42-198.9,0-149.52,39.19-278.72,119-386.16s180-161.13,299.08-161.13c148.05,0,222.1,85.63,222.1,255.49,0,81.31-52.27,169.85-155.34,262.76-103.06,94.38-243.9,177.11-422.45,251.17,53.72,268.57,209,476.17,467.45,618.43,257,143.71,599.58,214.86,1023.48,214.86q605.37,0,1064.13-323.74,459.48-322.27,458.75-791.21c0-136.45-21.78-261.31-68.23-374.54q-505.2,241.73-1122.2,242.43c-252.59,0-497.95-36.28-736-110.31a722.49,722.49,0,0,0-50.8,267.1c0,167,52.25,299.08,156.79,394.88,106,97.27,241,145.18,409.39,145.18,146.61,0,275.83-39.19,389.06-119,111.79-79.84,167-164,167-255.49l-42.11-84.21c0-43.55,14.51-63.88,42.11-63.88,47.9,0,71.12,34.84,71.12,106,0,98.71-63.86,198.87-193.07,300.5s-280.18,152.44-453,152.44c-177.11,0-326.62-50.81-450-153.89C4614.92,7149.18,4554,7020,4554,6863.19c0-116.14,26.15-226.47,76.95-328.1-278.74-104.52-497.93-229.36-657.64-370.2-159.69-142.26-239.53-232.27-239.53-268.57l7.25-17.41,13.09,17.41q324.43,420.32,894.26,601,148.07-261.3,458.74-413.73c207.6-103.07,422.45-153.9,647.48-153.9q540.06,0,821.68,421,740.4-429,740.39-1270.27,0-509.58-300.51-878.31-298.3-370.18-797-497.95c-87.12-21.77-165.52-33.38-233.75-33.38h-55.16c-95.82,0-145.18-8.7-145.18-27.6l127.76-17.4h81.29c79.86,0,165.51,11.6,259.87,33.38,357.14,88.57,643.11,268.58,859.43,542.95q324.48,409.41,325.18,887,0,385.47-216.3,736c-145.18,232.28-351.33,422.45-621.35,569.07,65.32,127.76,97.27,261.32,97.27,399.24q0,498.66-487.78,868.14-489.94,370.17-1114.94,370.2-629.31,0-1033.64-242.45c-268.56-161.13-432.62-389.07-492.14-686.68-201.79,79.85-405,119.06-608.27,119.06-524.08,0-927.66-126.31-1207.86-378.91s-421-561.82-421-927.66c0-352.77,117.58-657.64,354.22-917.51s570.53-448.58,1001.7-564.72c155.33-42.1,370.2-78.4,644.56-106,55.18-5.8,140.82-8.72,259.87-8.72H3749.7c47.91,0,91.46-34.84,127.76-104.52,36.29-68.23,58.06-158.24,63.86-268.57q-481.23-267.84-705.55-805.72c-56.61-11.62-104.52-17.42-145.16-17.42h-97.27c-8.69,26.13-27.59,39.21-58.07,39.21-26.13,0-43.55-8.73-55.17-26.15l-59.51,8.72c0,45-23.25,68.23-68.24,68.23-34.83,0-56.61-11.61-65.31-33.4l-49.37,16c0,45-23.23,66.78-68.24,66.78-26.12,0-49.36-10.17-72.59-30.49-5.81,76.93-47.89,114.7-127.73,114.7-32,0-84.21,17.42-158.24,50.8,0-20.32,13.06-40.64,40.63-61,27.6-21.77,42.1-40.66,45-58.08-59.52,17.42-124.85,26.14-198.89,26.14q-13.08,43.56-69.67,43.55c-36.3,0-61-14.51-72.6-42.1h-58.07c-8.71,27.59-29,42.1-61,42.1-36.29,0-61-14.51-72.58-45l-40.64-8.7c-8.73,17.42-24.68,26.15-50.8,26.15-33.41,0-50.83-14.53-50.83-42.12q-553.12-80.55-852.18-405-300.48-322.29-300.5-791.18,0-555.31,383.26-897.2c254.06-226.47,586.5-339.69,994.44-339.69,317.93,0,580.69,79.84,791.2,238.08,82.74-169.86,209-309.23,378.91-416.64,169.86-108.89,345.5-162.6,527-162.6q348.41,0,566.18,174.19,411.57-189.42,948-190.17,842.73,0,1501.09,534.25,659.82,533.5,659.09,1294.94c0,255.52-72.59,479.07-216.32,667.81q-217.74,285.27-599.56,405c-136.46,42.1-272.94,61-409.39,55.17q-348.42-13.08-535.7-130.65c-124.83-79.87-187.25-129.2-187.25-152.43l8.7-17.43,30.48,21.77q254.79,233,683.77,238.08c145.18,2.9,284.55-17.4,418.11-59.52q361.5-111.06,558.91-380.35c132.11-180,197.44-396.33,197.44-647.48q0-692.49-621.34-1190.42-620.62-496.5-1521.42-496.49-429,0-817.33,139.37c56.62,76.94,85.66,164.05,85.66,259.85,0,129.2-61,243.89-181.48,341.16-121.94,97.27-239.53,146.63-352.78,146.63-116.13,0-174.2-34.85-174.2-106,0-45,24.69-68.23,72.6-68.23s75.48,20.32,79.82,62.42q8.72,60.94,47.93,61c95.8,0,197.43-42.1,303.4-124.86,106-84.21,159.69-197.43,159.69-338.24,0-76.95-27.58-149.54-84.19-217.77Q3242.32,1168,3153,2142.15C3144.33,2246.67,3147.23,2396.19,3161.74,2587.83Zm2958.64-871c139.37,159.69,209.05,336.8,209.05,532.78q0,169.84-104.52,365.84c-124.85,238.09-278.72,351.31-463.11,339.71-106-5.8-185.82-23.23-242.42-52.27s-82.76-53.7-77-72.58l21.79,11.61c72.59,52.27,164,79.85,271.46,85.66,178.59,8.7,331-104.53,455.86-339.7,62.42-119.06,92.91-235.19,92.91-348.41,0-172.78-63.88-332.46-191.63-480.54l-33.4-33.4q-365.83-365.83-921.85-365.83-433.33,0-765.06,239.54-331,241.71-331,605.37c0,17.43,5.8,53.7,17.44,110.34,50.81,111.78,169.85,210.49,355.65,297.61,56.63,11.6,97.27,17.4,123.41,17.4,149.53,0,288.89-62.42,415.2-188.71,127.76-126.3,191.62-259.87,191.62-402.13,0-50.82-10.14-92.91-30.49-127.75-21.76-33.41-42.08-50.83-61-50.83s-29,13.08-29,37.77c0,47.9-24.68,72.58-72.6,72.58-43.53,0-65.32-26.14-65.32-79.86,0-20.32,11.62-39.19,34.85-59.5,21.76-18.88,45-29,68.23-29,50.8,0,95.8,20.32,133.56,59.53,39.19,39.18,58.06,91.44,58.06,153.88,0,161.14-66.79,307.76-201.79,441.32s-286,200.34-450,200.34c-36.29,0-63.88-2.89-81.31-8.69-249.7-82.76-394.86-201.8-434.06-357.14-5.82-23.23-8.71-50.81-8.71-85.66q0-381.09,345.5-640.21,344.09-257,786.85-257,561.84,0,949.44,374.54ZM5153.53,3570.64V3469c0-68.22-5.8-153.87-16-259.86-10.17-104.53-16-190.17-16-254,0-193.08,17.44-290.35,50.83-290.35s50.8,97.27,50.8,290.35c0,63.88-5.81,149.52-16,254-11.61,106-17.42,191.64-17.42,259.86v92.91l-17.42,72.59Z" transform="translate(-468.77 -487.15)"/><polygon class="cls-2" points="3886.43 2536.59 3869.88 5085.99 4217.52 5152.2 4167.86 2553.14 3886.43 2536.59"/></svg>