<svg id="Camada_1" data-name="Camada 1" xmlns="http://www.w3.org/2000/svg" viewBox="0 0 1997.81 1997.81"><defs><style>.cls-1{fill:#f3c5d2;}.cls-2{fill:#37363a;}.cls-3{fill:#38363a;}.cls-4{fill:#38373b;}.cls-5{fill:#f2c5d2;}.cls-6{fill:#f1c4d1;}</style></defs><path class="cls-1" d="M1025.9,1997.81h-58c-6.23-2.14-12.82-1.29-19.17-1.69-21.7-1.37-43.42-2.35-65-5.42-10.8-1.53-21.69-2.41-32.39-4.71a180.62,180.62,0,0,0-21.1-3.1c-7.95-.74-15.66-2.69-23.48-4-8.44-1.44-16.66-4.35-25-5.67-8.84-1.4-17.37-3.88-26-5.86-15.23-3.49-30.19-8.2-45.21-12.55-8.25-2.4-16.52-4.82-24.59-7.75-12.75-4.63-25.58-9-38.24-13.89-17.87-6.88-35.81-13.63-53.21-21.55-16.68-7.6-33.27-15.44-49.6-23.81q-41.14-21.09-80.14-45.86c-19.29-12.3-38.09-25.33-56.62-38.78s-36.43-27.79-53.95-42.56c-10.42-8.79-20.47-18-30.6-27.13q-25.23-22.73-48.44-47.46-16.87-18-33-36.67-14.82-17.14-28.78-35c-8.59-10.92-16.75-22.2-25-33.37q-13.82-18.63-26.26-38.13c-10-15.77-19.66-31.81-29.25-47.87-6-10.07-12-20.2-17.35-30.63-7.46-14.51-14.48-29.25-21.43-44-5.87-12.51-11.66-25.08-16.94-37.84q-6.85-16.53-12.93-33.41c-3.83-10.62-7.88-21.2-11.65-31.84-5.59-15.75-10.3-31.81-14.94-47.87-.9-3.11-2.31-6.19-2.54-9.47-.59-8.32-4.19-15.88-5.91-23.93-2-9.27-4.29-18.48-6.21-27.77-1.36-6.6-3.06-13.15-4.08-19.81-.9-5.89-3.43-11.52-3.63-17.37-.25-7.19-1.65-14.23-3-21.1-2.93-15-4.47-30.14-6-45.24-2-20.47-2.14-41.12-3.4-61.68-.44-7-1.87-14-2.85-21.07v-48a10.87,10.87,0,0,0,.88-2.27c2.73-17.93,2.29-36.1,3.76-54.14,1.81-22.1,3.81-44.11,7.32-66,1.66-10.39,3-20.81,5-31.16,1.32-6.89,2-14.12,3.54-20.85,2.59-11.19,4.28-22.64,7.74-33.58,1.21-3.85,1-7.84,2.52-11.5,3.06-7.49,4.33-15.47,6.08-23.28C37.57,728,40,725.6,40,722.33c0-7.75,3.91-14.55,6.09-21.66,2.67-8.65,5.86-17.28,8.52-25.95C58,663.57,62.8,653,66.54,642c2.3-6.76,5.41-13.37,7.95-20.05,5-13.2,10.82-26,16.77-38.75,7.65-16.39,15.55-32.67,23.83-48.74,7.27-14.09,14.72-28.13,23-41.64q13.44-22,27.55-43.58c10.23-15.61,21.41-30.52,32-45.86,8-11.56,16.93-22.48,26-33.25,8.33-9.92,16.22-20.23,24.87-29.84,14.79-16.45,29.84-32.7,45.45-48.37,13.84-13.9,28.52-27,43-40.25,6.48-5.95,13.21-11.62,20-17.19q18.28-15,36.81-29.63a122.67,122.67,0,0,1,12-8.84c7.62-4.7,14.56-10.36,21.84-15.52,8.6-6.09,17.37-12,26.08-17.87,12.43-8.42,25.6-15.76,38.58-23.36,14.64-8.58,29.38-17,44.45-24.85C556,104.3,575.76,95.21,595.47,86c10.43-4.88,21-9.39,31.73-13.68,7.3-2.94,15.2-4.51,22.23-7.94,10.11-4.94,20.92-7.8,31.32-11.84s21.25-6.65,31.9-9.91c2.67-.81,5.25-2.07,8-2.52,7.8-1.3,15.32-3.93,22.87-6,8.25-2.24,16.58-4.15,24.89-6.06,5.77-1.32,11.67-2.41,17.4-3.78,9.77-2.34,19.66-4.05,29.44-6.3a231.35,231.35,0,0,1,23-3.77c7.68-1,15.23-3.61,22.9-3.94,8.65-.37,17-3,25.71-2.69a59.89,59.89,0,0,0,9.91-.73C910.88,4.89,925,3.2,939.34,3,951,2.78,962.46.17,974.14.81c.58,0,1.18-.53,1.77-.81h48c1.72,1.51,3.82.92,5.76.93,11.31,0,22.56,1.52,33.75,2.57q27.52,2.6,55.06,4.66c7.55.56,15.35.87,22.63,2.73a139.15,139.15,0,0,0,22,3.67c11.62,1,22.69,4.44,34.09,6.24a254.92,254.92,0,0,1,32.7,7.58c3.92,1.16,8,.69,11.63,2.13,8,3.16,16.43,4.66,24.6,7,14.69,4.18,29.36,8.46,43.94,12.95,14.27,4.39,28.26,9.72,42.26,15,12.77,4.78,25.55,9.64,38,15.13,15.22,6.71,30.12,14.14,45.19,21.2,15.45,7.25,30.57,15.15,45.45,23.47q19.76,11,39.11,22.74c10.73,6.53,21.19,13.51,31.65,20.47,11.45,7.62,23,15.08,34.06,23.27,13.07,9.68,25.88,19.71,38.64,29.81,23.5,18.6,45.75,38.58,67.38,59.23,25.75,24.58,49.68,50.92,72.62,78.18,16.77,19.94,32.87,40.4,47.91,61.64,10.16,14.33,20.11,28.84,29.48,43.75q22.62,36,42.5,73.52c9.59,18.13,18.38,36.64,26.61,55.41,6.08,13.86,11.93,27.81,17.44,41.93,4.41,11.31,8.53,22.72,12.69,34.12,3.36,9.22,6.4,18.56,9.59,27.85a211.81,211.81,0,0,1,6.78,22.69c1.85,8.35,5.36,16.13,6.93,24.51.85,4.53,2.84,8.91,3.3,13.45.92,9.08,4.63,17.41,6.15,26.38,1.65,9.67,4.16,19.29,5.87,29,1.26,7.14,3.26,14.11,3.74,21.48.58,8.71,4,17.3,4.07,26,.18,18,4.79,35.47,5.84,53.43q1.56,26.54,3.52,53.12c.12,1.62-.35,3.37.94,4.76v52c-2,3.06-.8,6.5-1.14,9.75-1.69,16.18-3.66,32.34-3.86,48.63a130.86,130.86,0,0,1-1.61,18.83c-1,6.57-3,13.06-3.21,19.64-.79,20.42-4.42,40.42-7.91,60.47-.54,3.14-2.72,5.87-2.23,9.13,1.06,6.9-2.12,13.1-3.63,19.44-.93,3.9-.39,8-1.94,11.6-3.48,8.11-4.1,16.92-6.34,25.32-.85,3.22-2.86,6.16-3,9.38-.27,7.92-4.06,14.91-6.09,22.25-2.5,9-5.49,18.13-8.51,27.08-3.82,11.28-7.92,22.54-11.29,34-2.55,8.69-6.55,17-9.73,25.58-4.75,12.76-10.52,25.14-16,37.62-4.16,9.52-8.66,18.88-13.16,28.24q-10.41,21.64-21.77,42.75c-5.88,10.93-11.75,21.86-18.42,32.35-6,9.45-11.43,19.28-17.49,28.7-8.6,13.35-17.72,26.36-26.77,39.41-5.65,8.16-11.3,16.38-17.28,24.25-10.53,13.85-21.84,27.15-32.74,40.72-13.89,17.27-29,33.35-44.23,49.35q-21.15,22.26-43.69,43.19c-11.09,10.3-22.3,20.41-34.08,29.91-8.13,6.57-15.83,13.69-24.12,20-8.93,6.84-18,13.53-26.94,20.36q-19,14.55-38.94,27.73c-21.25,14-42.77,27.64-65.17,39.85-20,10.92-39.85,22.17-60.69,31.5-9.48,4.24-19.1,8.2-28.51,12.53q-15.93,7.34-32.16,13.88c-15.07,6.09-30.52,11.24-45.87,16.63-8.25,2.9-16.53,5.83-24.86,8.34-7.36,2.22-14.71,4.69-22.23,6.54-7.29,1.79-14.51,4.11-21.8,6-5.41,1.4-11,2.23-16.31,3.83-8.68,2.61-17.54,4.35-26.39,6.15-5.81,1.18-11.75,2.16-17.39,3.61-11.06,2.85-22.33,4.22-33.5,6.17-13.68,2.4-27.62,3.31-41.33,5.57-17.58,2.9-35.37,3-53,4.56-6.94.62-14,.16-20.88,1.24C1036.37,1996.87,1031,1995.81,1025.9,1997.81Zm-234-959.87v.1c-8,0-16,0-24,0-36.15.11-72.31-.53-108.46.72-4.39.15-7.05,1.66-7.46,6.15s-.83,9.28-1,13.94c-.63,15-1.16,30-1.73,44.92a31.57,31.57,0,0,0-.12,3.5c.16,2,.59,4,3,4.56a4.09,4.09,0,0,0,4.93-2.35c.94-1.76,2.16-3.36,3.18-5.08,12.72-21.46,30.93-35.74,55.08-42.35,19.74-5.41,40-6.81,60.26-7.07,26.81-.34,53.62,1.92,80.45.22a253.82,253.82,0,0,1,35.95.7c5.1.4,5.73,1.18,3.27,5.44a74.9,74.9,0,0,1-7.21,10.77c-24.47,29.23-47.68,59.47-71.2,89.45-55.68,71-111.94,141.47-167,212.92-4,5.2-7,10.56-6.45,17.23.38,4.63.35,9.29,1.25,13.9,2,10.12,1.84,10.13,12.14,10.23,36.82.39,73.59-1.35,110.38-2.77,37.45-1.45,74.92-2.1,112.38-3.25,16.48-.5,32.94-1.38,49.41-2.06,4.14-.18,6.73-1.6,6.49-6.41-.19-3.81.24-7.65.32-11.48.35-16.49-.27-33,.85-49.47.55-8.09,1-16.3-.7-24.4-.32-1.56-.62-3.11-2.14-3.66s-2.85.73-3.76,1.85a61.93,61.93,0,0,0-4.31,6.09c-6.24,10-11,20.85-18.29,30.28-12.13,15.67-26.61,27.14-46.83,30.34-20.44,3.24-41,3.93-61.63,4.88-26.45,1.23-52.93,1.84-79.39,2.74-11.33.38-22.66.6-34,0-1.88-.1-4.62.5-5.45-1.26s1.4-3.52,2.58-5c14.78-18.86,29.48-37.79,44.5-56.47,33.28-41.37,66.79-82.55,100.09-123.9s66.66-83.11,100-124.66c7.7-9.6,9.61-20.21,5.6-31.83-2.21-6.42-3.85-7.44-10.56-7.44Zm729.86,211.12a212.94,212.94,0,0,0,3.13,40.28c5.31,31.73,16.36,60.84,39,84.67,22.45,23.67,49.29,38,82.32,39.56,19.8.9,37.61-5.87,54.52-15.16,34-18.69,56.4-47.65,71.08-82.88,16.26-39,21.27-79.66,16.14-121.63-3.17-26-10.17-50.75-23.18-73.55-14.39-25.21-33.24-45.82-61.36-55.92-26-9.34-52.4-11.79-79.06-2.74-30,10.18-51.27,30.91-67.51,57.22C1532.26,1158.77,1522.55,1202.75,1521.78,1249.06Zm-284.48-24.52c-.4-10.63-.74-21.91-2.33-33.17-4.26-30-13.45-58.21-31.09-83.12-14.32-20.24-32.17-36.18-56.44-43.89-24.49-7.79-49.09-10-73.93-2.07-29.5,9.39-50.72,29.25-67.22,54.58-18.14,27.85-28.35,58.72-33.57,91.41-5.94,37.16-4.9,73.91,6.21,110,12.16,39.54,36.24,69.32,74,86.92,19,8.88,39.49,12.66,60.26,7.77,41.14-9.68,71.29-34.61,92.87-70.28C1227.89,1306.65,1236.93,1267.05,1237.3,1224.54ZM772.08,943.81c-2.87-2.44-5.68-4.95-8.62-7.29-10.07-8-19.55-16.49-26.44-27.61a204.75,204.75,0,0,1-16.93-35.5c-22.73-60.12-48.79-118.85-73.92-178-10.12-23.81-21.3-47.2-27.51-72.53-3.34-13.62,1.09-23.7,13.87-29.09a82.41,82.41,0,0,0,8.63-3.85c4.19-2.39,4.18-5.27.06-7.79-3.07-1.87-6.57-2.16-10.09-2.17-28.33,0-56.65-.11-85,0-3.41,0-8.27-1.56-9.33,3.26-1.15,5.22,3.79,6.25,7.44,7.65a47.24,47.24,0,0,1,22.56,17.38c7.91,11.48,6.73,24.08,3.41,36.49q-15.15,56.65-30.92,113.14c-10.54,38.08-23.45,75.38-37,112.47-5.6,15.32-11.29,30.61-21.22,43.8A78.59,78.59,0,0,1,450.37,939c-1.56.7-3.28,1.6-3,3.51.23,1.66,2.06,1.3,3.34,1.37,29.44,1.66,58.91,2.21,88.39,1.83,2.18,0,4.51.18,6.71-1.41-2.27-2.91-5.39-3.9-7.91-5.71-12.24-8.79-24.45-17.55-26.48-34.31-.93-7.69-.92-15.33,1.14-22.74,6.87-24.74,15.17-49,23.23-73.4,2.48-7.47,4.7-9.15,12.61-9.2,6.32-.05,12.67.6,19,.26,21-1.13,41.94-1.65,62.93-1.24,6.16.11,12.32.52,18.46,1,4.71.36,9,2.12,11.07,6.56,10.74,22.82,22.57,45.19,29.81,69.5,3,10.26,5.1,20.76,2.83,31.48-2.94,13.89-11.4,23.68-23.55,30.61-2.54,1.45-6.06,3.23-4.87,6.63.91,2.64,4.64,1.92,7.12,1.93C704.62,945.89,738.08,946.52,772.08,943.81ZM981.9,690.94c6.44-.42,14.93.42,23.42-.73,4.14-.56,5.44-2.67,5.32-6.29-.15-4.16-.45-8.31-.71-12.47-1.5-23.45-10.32-43.56-28-59.24-23.06-20.43-51.26-27.3-81-29.12a210.38,210.38,0,0,0-62.81,5.9c-36.57,8.91-63.64,29.72-78.27,64.8-9.34,22.38-8.32,44.29,8.16,63.59,10.64,12.46,25,19.08,40.38,23.53,15.85,4.57,32.36,5.58,48.44,9,25.13,5.26,49.77,12,72.21,24.9,30.43,17.53,49.74,41.83,44.78,79.14-4,30.29-17.56,54.41-47.17,67.14-25.31,10.88-51.58,15-78.88,11.71-11.58-1.39-22.86-4.41-32.86-10.82-8.22-5.26-14.62-12-17-21.86-3.81-15.48,5.32-41.49,18.07-51.14a18.57,18.57,0,0,0,5.2-6.58c1.77-3.43.63-4.94-3-5.25-14.43-1.23-28.86-2.44-43.36-1.14-10.75,1-16.65,5.11-17.84,12.78a46.39,46.39,0,0,0,.55,15.85c4.39,23.16,17.18,41,36.08,54.24,37.92,26.52,80.06,33.63,125,24.39,29-6,53.37-20.06,70.84-44.63,11.41-16.05,17.43-34.15,19.82-53.59,2.64-21.38-.47-41.43-13.24-59.31-14.08-19.72-33.86-31-56.6-37.73-22.08-6.51-45-6-67.67-8-12.57-1.12-25.14-2.19-37.25-6.06-33.54-10.7-53.59-45.15-45.46-78.44,4.06-16.63,13.61-29.83,27-40.21,16.32-12.63,34.52-21.07,55.21-23.48,17.17-2,33.78,1.22,50.15,5.9,15.49,4.43,30.06,10.89,41.91,22.2,13.5,12.88,15.36,29.5,5.36,45.21a87.06,87.06,0,0,1-12.25,15.09c-2,2-4.31,4.18-3.09,7.35,1.29,3.35,4.41,3.53,7.56,3.48C967.2,690.88,973.53,690.94,981.9,690.94Zm409.69,529.24c1.09-36.23,2.06-73.19,3.41-110.13.38-10.45,1.9-20.85,2.9-31.28.38-3.92,1.83-6.17,6.5-6.17,27,0,50.29,8,67.49,30a188.25,188.25,0,0,1,12,17.14,63.65,63.65,0,0,0,5.2,7.31c1.25,1.5,3.1,3.24,5.05,2.56,1.79-.62,1.46-3,1.71-4.85,2.05-14.69,2.06-29.52,3-44.29.29-4.48.76-8.94,0-13.45s-3-7-7.55-7.06c-13.49-.23-27-.62-40.46-.53-18.66.12-37.31.7-56,.95-36.81.5-73.64-1.1-110.44.19-10.32.36-20.59-1.33-30.91,0-4.25.56-6.1,2.58-6.73,6.56-3,19.21-2.52,38.46-.76,57.71.17,1.81,0,4.66,2.15,5.18,2.49.59,4.15-1.64,5.5-3.59.57-.81.94-1.76,1.5-2.59,5.63-8.44,10.79-17.32,17.73-24.69,21.43-22.74,49.65-26.37,78.8-26.85,3,0,5.29,1.65,4.91,5-1.42,12.12-.45,24.3-1,36.44-1.5,31.59-3.37,63.18-3.45,94.83-.13,47.76.67,95.54-5.29,143.09-2.2,17.61-9.49,32-24.56,42-7.62,5-14.81,10.77-23.28,14.45-1.83.8-4,2.16-3.66,4.26s3,1.43,4.73,1.7c11.81,1.85,23.6-.18,35.41-.1,33,.24,66,.65,98.94,1a20.44,20.44,0,0,0,5-.3c1.38-.35,3.13-1,3.47-2.51.41-1.8-1.47-2.6-2.71-3.13-3.66-1.54-7.41-2.88-11.2-4.09-18-5.73-32.67-15-37.47-34.9a102.81,102.81,0,0,1-2.67-20.21c-.54-14.51,1.58-28.91,1.91-43.38C1391.44,1277.87,1392.6,1249.4,1391.59,1220.18Zm-90.91-275.45c-2.84-4.19-7.21-6.65-10.91-9.84-8.21-7.08-16-14.83-21.22-24.24a184.83,184.83,0,0,1-14.73-35.86c-14.11-46.14-29.57-91.85-45-137.57-7.57-22.49-16-44.69-23.44-67.22-5.13-15.57-10.1-31.23-10.92-47.89-.54-10.87,3.36-18.74,13.11-23.56,3.42-1.69,7-3.11,10.48-4.6,2.05-.88,4-1.77,3.9-4.51s-2-3.72-4.12-4.4a45.4,45.4,0,0,0-14.24-2.08q-37.49,0-75,0a17.34,17.34,0,0,0-5,.42c-2.56.78-6.88.11-7.08,3.21-.22,3.45,2.86,6.17,6.29,7.68,1.37.6,2.82,1,4.14,1.72a40.19,40.19,0,0,1,6,3.5c14.37,11.1,18.87,24.55,13.22,42.91-7,22.64-15.35,44.83-23,67.27-18.63,55-39.29,109.35-63,162.44-5.69,12.73-10.49,25.84-18.82,37.29-9.39,12.9-22,21.56-35.77,28.93-1.72.92-4.35,2-4.19,3.87.21,2.35,3.19,1.5,5,2a18.17,18.17,0,0,0,4.42.59c25.8,1.09,51.62.8,77.43,1a37.06,37.06,0,0,0,6-.43c.86-.14,2.18,0,2.45-1.23s-.83-1.7-1.6-2.27c-4.53-3.38-9.15-6.65-13.6-10.13A35.35,35.35,0,0,1,1047.64,908c-1.56-11.1.76-21.64,4.62-31.7,9.2-24,19.08-47.78,28.62-71.67,1-2.65,3-2.46,5.25-2.7,13.12-1.43,26.3-.66,39.44-1.23a543,543,0,0,1,59.43.22c7.64.5,14.06,1.61,16.89,10.52,6.67,21,15.8,41.18,21.52,62.51,2.25,8.39,3.57,16.93,2,25.65-2.77,15.89-11.33,27.69-25.06,36-3.07,1.87-8.38,3.57-7.05,7.84,1.11,3.52,6.28,2.46,9.81,2.46q46.47,0,92.94-.21C1297.51,945.67,1299.09,946.26,1300.68,944.73ZM451.06,817.86A315.86,315.86,0,0,0,415.4,820c-2.4.26-4.84.66-5.68,3.23-.79,2.4.94,4.15,2.63,5.46,3.28,2.54,6.78,4.79,10.11,7.27,10.72,8,17.6,18.32,17.39,32-.32,21.55-12,36.92-29.08,48.36S374,930.81,353.58,930s-38.79-7-55-19.35c-20.63-15.66-33.19-37-41.47-61-10.71-31-13.67-63.06-11.41-95.76,2.12-30.6,8.41-60.13,21.51-87.94,17.8-37.75,45.73-63.46,88-70.43,17.58-2.9,34.88-.75,50.42,9.14,16.17,10.3,22.79,25.75,18.34,42.56-2.44,9.21-9.53,14.51-16.69,19.77-3.13,2.29-8,4.17-7,8.71,1.08,4.83,6.52,4.62,10.44,5.06a474,474,0,0,0,51.78,3.28c13.79,0,14.34-.61,9.7-13.8-9.36-26.53-24.57-48.92-46.91-66.24-31.13-24.16-65.31-30.9-102.57-16.81C294.5,597.9,272.45,617,254.57,640.84c-34.89,46.59-49.95,98.94-43.33,156.92,3.51,30.74,15,58.77,33.08,83.92,13.44,18.65,28.89,35.78,48.59,47.6,23.75,14.26,50.16,19.11,77.75,14.48,28-4.7,52.62-16.46,72.45-37,16.5-17.1,26.57-38,33.89-60.38,2.32-7.11,4.48-14.26,4-21.9-.27-4-1.65-6.37-6.24-6.71C467.71,817.24,460.74,817.6,451.06,817.86Zm946-143.41c1,3.32,3.27,5.09,5.93,6.63,7.91,4.59,16.1,8.86,22.83,15.13,13.15,12.25,16.62,28.37,17,45.39,1,47,.69,93.95,0,140.93a51,51,0,0,1-3.46,18.5c-6.4,15.91-17.68,26.65-33.56,32.82-3.08,1.2-6.28,2.29-8.8,4.55-2.7,2.42-2.37,4.34,1.09,5.23a40.42,40.42,0,0,0,11.87,1.26c24.28-1,48.57-1.79,72.84-3a97.43,97.43,0,0,0,63.32-27.06c25.12-23.66,34.32-54.68,37.64-87.8,2.21-22.07-1-43.76-7-65.07-11.66-42.08-37.13-71.06-79.73-83.52-23.68-6.94-48-8.72-72.55-8C1415.39,670.64,1406.21,671.34,1397.06,674.45Zm193.5,149.09a176.42,176.42,0,0,0,3.34,35.66c6,29.72,19.86,54.67,45.53,71.69,24.24,16.08,50,19.5,77.06,6.88,27.63-12.86,46.21-34.28,58.44-61.56,14.25-31.75,18-65,13-99.36-3.49-23.73-11.79-45.39-26.33-64.76-24.35-32.46-72-41.4-104.56-24.86-21.36,10.83-35.81,28.33-46.45,49.25C1596.66,763.8,1590.57,793,1590.56,823.54Z"/><path class="cls-2" d="M791.92,1037.94H922.39c6.71,0,8.35,1,10.56,7.44,4,11.62,2.1,22.23-5.6,31.83q-50,62.32-100,124.66c-33.3,41.35-66.81,82.53-100.09,123.9-15,18.68-29.72,37.61-44.5,56.47-1.18,1.51-3.46,3.17-2.58,5s3.57,1.16,5.45,1.26c11.32.6,22.65.38,34,0,26.46-.9,52.94-1.51,79.39-2.74,20.58-1,41.19-1.64,61.63-4.88,20.22-3.2,34.7-14.67,46.83-30.34,7.29-9.43,12-20.28,18.29-30.28a61.93,61.93,0,0,1,4.31-6.09c.91-1.12,2.13-2.43,3.76-1.85s1.82,2.1,2.14,3.66c1.66,8.1,1.25,16.31.7,24.4-1.12,16.49-.5,33-.85,49.47-.08,3.83-.51,7.67-.32,11.48.24,4.81-2.35,6.23-6.49,6.41-16.47.68-32.93,1.56-49.41,2.06-37.46,1.15-74.93,1.8-112.38,3.25-36.79,1.42-73.56,3.16-110.38,2.77-10.3-.1-10.17-.11-12.14-10.23-.9-4.61-.87-9.27-1.25-13.9-.56-6.67,2.44-12,6.45-17.23,55.06-71.45,111.32-142,167-212.92,23.52-30,46.73-60.22,71.2-89.45a74.9,74.9,0,0,0,7.21-10.77c2.46-4.26,1.83-5-3.27-5.44a253.82,253.82,0,0,0-35.95-.7c-26.83,1.7-53.64-.56-80.45-.22-20.3.26-40.52,1.66-60.26,7.07-24.15,6.61-42.36,20.89-55.08,42.35-1,1.72-2.24,3.32-3.18,5.08a4.09,4.09,0,0,1-4.93,2.35c-2.46-.54-2.89-2.51-3-4.56a31.57,31.57,0,0,1,.12-3.5c.57-15,1.1-30,1.73-44.92.19-4.66.6-9.3,1-13.94s3.07-6,7.46-6.15c36.15-1.25,72.31-.61,108.46-.72,8,0,16,0,24,0Z"/><path class="cls-2" d="M1521.78,1249.06c.77-46.31,10.48-90.29,35.06-130.15,16.24-26.31,37.51-47,67.51-57.22,26.66-9,53.07-6.6,79.06,2.74,28.12,10.1,47,30.71,61.36,55.92,13,22.8,20,47.56,23.18,73.55,5.13,42,.12,82.61-16.14,121.63-14.68,35.23-37.08,64.19-71.08,82.88-16.91,9.29-34.72,16.06-54.52,15.16-33-1.51-59.87-15.89-82.32-39.56-22.62-23.83-33.67-52.94-39-84.67A212.94,212.94,0,0,1,1521.78,1249.06Zm233.31-21.69c.15-32.31-5.3-63.53-18.31-93.21-7.76-17.71-17.79-34.11-33.3-46-28.43-21.88-55.38-24.83-83.09.54a168.62,168.62,0,0,0-48.47,76.65c-10.18,33.63-12.88,68.09-10.31,103.07,1.72,23.34,6,46.1,15.36,67.63,9.55,22,23,40.79,46.29,49.8,19.17,7.4,38.35,8.3,57.16-2.3,21.37-12,37.53-29,49.38-50.22C1748.19,1300.39,1755,1264.67,1755.09,1227.37Z"/><path class="cls-2" d="M1237.3,1224.54c-.37,42.51-9.41,82.11-31.23,118.18-21.58,35.67-51.73,60.6-92.87,70.28-20.77,4.89-41.21,1.11-60.26-7.77-37.77-17.6-61.85-47.38-74-86.92-11.11-36.12-12.15-72.87-6.21-110,5.22-32.69,15.43-63.56,33.57-91.41,16.5-25.33,37.72-45.19,67.22-54.58,24.84-7.9,49.44-5.72,73.93,2.07,24.27,7.71,42.12,23.65,56.44,43.89,17.64,24.91,26.83,53.09,31.09,83.12C1236.56,1202.63,1236.9,1213.91,1237.3,1224.54Zm-229.48,22.38c.33,9.57.92,20,1.95,30.47,2.33,23.68,7.61,46.54,18.42,67.84,9,17.77,21.31,32.65,40.1,40.83,15.88,6.92,32.66,9.32,49.06,3.33,19.8-7.25,35.59-20.59,48.36-37.37,22.81-30,32.54-64.67,36.09-101.43a241.75,241.75,0,0,0-5-76.36c-6-27.07-15.92-52.45-34.33-73.79-13.67-15.85-30.61-25.8-51.61-28.44-13.17-1.65-24.11,3.83-34.28,11-22.53,15.92-37.73,38-49.22,62.45C1012.48,1177.21,1009,1211.43,1007.82,1246.92Z"/><path class="cls-3" d="M772.08,943.81c-34,2.71-67.46,2.08-100.92,1.85-2.48,0-6.21.71-7.12-1.93-1.19-3.4,2.33-5.18,4.87-6.63,12.15-6.93,20.61-16.72,23.55-30.61,2.27-10.72.22-21.22-2.83-31.48-7.24-24.31-19.07-46.68-29.81-69.5-2.09-4.44-6.36-6.2-11.07-6.56-6.14-.46-12.3-.87-18.46-1-21-.41-42,.11-62.93,1.24-6.3.34-12.65-.31-19-.26-7.91,0-10.13,1.73-12.61,9.2-8.06,24.37-16.36,48.66-23.23,73.4-2.06,7.41-2.07,15.05-1.14,22.74,2,16.76,14.24,25.52,26.48,34.31,2.52,1.81,5.64,2.8,7.91,5.71-2.2,1.59-4.53,1.38-6.71,1.41-29.48.38-59-.17-88.39-1.83-1.28-.07-3.11.29-3.34-1.37-.27-1.91,1.45-2.81,3-3.51a78.59,78.59,0,0,0,30.71-24.86C491,901,496.7,885.67,502.3,870.35c13.57-37.09,26.48-74.39,37-112.47Q555,701.36,570.24,644.74c3.32-12.41,4.5-25-3.41-36.49a47.24,47.24,0,0,0-22.56-17.38c-3.65-1.4-8.59-2.43-7.44-7.65,1.06-4.82,5.92-3.26,9.33-3.26,28.32-.06,56.64,0,85,0,3.52,0,7,.3,10.09,2.17,4.12,2.52,4.13,5.4-.06,7.79a82.41,82.41,0,0,1-8.63,3.85c-12.78,5.39-17.21,15.47-13.87,29.09,6.21,25.33,17.39,48.72,27.51,72.53,25.13,59.12,51.19,117.85,73.92,178A204.75,204.75,0,0,0,737,908.91c6.89,11.12,16.37,19.61,26.44,27.61C766.4,938.86,769.21,941.37,772.08,943.81ZM585.44,636.11c-2.13,1.73-2.48,3.58-3,5.26A1283.3,1283.3,0,0,0,546.78,770.7c-1.56,7.1-.6,8,6.67,8.24,11.65.33,23.29.93,34.94,1.12,16.8.27,33.6.57,50.31-2,4-.62,5.08-2.35,4-5.95-1-3.33-2-6.68-3.12-10-10.16-28.65-22.08-56.59-34.34-84.39C599.06,663.79,592.87,649.84,585.44,636.11Z"/><path class="cls-3" d="M981.9,690.94c-8.37,0-14.7-.06-21,0-3.15,0-6.27-.13-7.56-3.48-1.22-3.17,1.12-5.39,3.09-7.35A87.06,87.06,0,0,0,968.65,665c10-15.71,8.14-32.33-5.36-45.21-11.85-11.31-26.42-17.77-41.91-22.2-16.37-4.68-33-7.9-50.15-5.9-20.69,2.41-38.89,10.85-55.21,23.48-13.41,10.38-23,23.58-27,40.21-8.13,33.29,11.92,67.74,45.46,78.44,12.11,3.87,24.68,4.94,37.25,6.06,22.64,2,45.59,1.53,67.67,8,22.74,6.69,42.52,18,56.6,37.73,12.77,17.88,15.88,37.93,13.24,59.31-2.39,19.44-8.41,37.54-19.82,53.59-17.47,24.57-41.83,38.66-70.84,44.63-44.91,9.24-87,2.13-125-24.39-18.9-13.22-31.69-31.08-36.08-54.24a46.39,46.39,0,0,1-.55-15.85c1.19-7.67,7.09-11.81,17.84-12.78,14.5-1.3,28.93-.09,43.36,1.14,3.6.31,4.74,1.82,3,5.25a18.57,18.57,0,0,1-5.2,6.58c-12.75,9.65-21.88,35.66-18.07,51.14,2.42,9.87,8.82,16.6,17,21.86,10,6.41,21.28,9.43,32.86,10.82,27.3,3.26,53.57-.83,78.88-11.71,29.61-12.73,43.14-36.85,47.17-67.14,5-37.31-14.35-61.61-44.78-79.14-22.44-12.93-47.08-19.64-72.21-24.9-16.08-3.37-32.59-4.38-48.44-9C793,736.46,778.64,729.84,768,717.38c-16.48-19.3-17.5-41.21-8.16-63.59,14.63-35.08,41.7-55.89,78.27-64.8a210.38,210.38,0,0,1,62.81-5.9c29.73,1.82,57.93,8.69,81,29.12,17.7,15.68,26.52,35.79,28,59.24.26,4.16.56,8.31.71,12.47.12,3.62-1.18,5.73-5.32,6.29C996.83,691.36,988.34,690.52,981.9,690.94Z"/><path class="cls-2" d="M1391.59,1220.18c1,29.22-.15,57.69-.8,86.17-.33,14.47-2.45,28.87-1.91,43.38a102.81,102.81,0,0,0,2.67,20.21c4.8,19.89,19.47,29.17,37.47,34.9,3.79,1.21,7.54,2.55,11.2,4.09,1.24.53,3.12,1.33,2.71,3.13-.34,1.5-2.09,2.16-3.47,2.51a20.44,20.44,0,0,1-5,.3c-33-.32-66-.73-98.94-1-11.81-.08-23.6,1.95-35.41.1-1.71-.27-4.33.42-4.73-1.7s1.83-3.46,3.66-4.26c8.47-3.68,15.66-9.41,23.28-14.45,15.07-9.95,22.36-24.35,24.56-42,6-47.55,5.16-95.33,5.29-143.09.08-31.65,2-63.24,3.45-94.83.58-12.14-.39-24.32,1-36.44.38-3.31-1.9-5-4.91-5-29.15.48-57.37,4.11-78.8,26.85-6.94,7.37-12.1,16.25-17.73,24.69-.56.83-.93,1.78-1.5,2.59-1.35,2-3,4.18-5.5,3.59-2.18-.52-2-3.37-2.15-5.18-1.76-19.25-2.28-38.5.76-57.71.63-4,2.48-6,6.73-6.56,10.32-1.37,20.59.32,30.91,0,36.8-1.29,73.63.31,110.44-.19,18.65-.25,37.3-.83,56-.95,13.48-.09,27,.3,40.46.53,4.58.08,6.83,2.66,7.55,7.06s.26,9,0,13.45c-1,14.77-1,29.6-3,44.29-.25,1.8.08,4.23-1.71,4.85-2,.68-3.8-1.06-5.05-2.56a63.65,63.65,0,0,1-5.2-7.31,188.25,188.25,0,0,0-12-17.14c-17.2-22-40.52-30-67.49-30-4.67,0-6.12,2.25-6.5,6.17-1,10.43-2.52,20.83-2.9,31.28C1393.65,1147,1392.68,1184,1391.59,1220.18Z"/><path class="cls-3" d="M1300.68,944.73c-1.59,1.53-3.17.94-4.58.95q-46.47.17-92.94.21c-3.53,0-8.7,1.06-9.81-2.46-1.33-4.27,4-6,7.05-7.84,13.73-8.35,22.29-20.15,25.06-36,1.52-8.72.2-17.26-2-25.65-5.72-21.33-14.85-41.51-21.52-62.51-2.83-8.91-9.25-10-16.89-10.52a543,543,0,0,0-59.43-.22c-13.14.57-26.32-.2-39.44,1.23-2.2.24-4.2,0-5.25,2.7-9.54,23.89-19.42,47.65-28.62,71.67-3.86,10.06-6.18,20.6-4.62,31.7a35.35,35.35,0,0,0,13.91,23.84c4.45,3.48,9.07,6.75,13.6,10.13.77.57,1.85,1.09,1.6,2.27s-1.59,1.09-2.45,1.23a37.06,37.06,0,0,1-6,.43c-25.81-.21-51.63.08-77.43-1a18.17,18.17,0,0,1-4.42-.59c-1.77-.53-4.75.32-5-2-.16-1.83,2.47-3,4.19-3.87,13.77-7.37,26.38-16,35.77-28.93,8.33-11.45,13.13-24.56,18.82-37.29,23.72-53.09,44.38-107.39,63-162.44,7.6-22.44,16-44.63,23-67.27,5.65-18.36,1.15-31.81-13.22-42.91a40.19,40.19,0,0,0-6-3.5c-1.32-.69-2.77-1.12-4.14-1.72-3.43-1.51-6.51-4.23-6.29-7.68.2-3.1,4.52-2.43,7.08-3.21a17.34,17.34,0,0,1,5-.42q37.48,0,75,0a45.4,45.4,0,0,1,14.24,2.08c2.1.68,4,1.72,4.12,4.4s-1.85,3.63-3.9,4.51c-3.51,1.49-7.06,2.91-10.48,4.6-9.75,4.82-13.65,12.69-13.11,23.56.82,16.66,5.79,32.32,10.92,47.89,7.43,22.53,15.87,44.73,23.44,67.22,15.39,45.72,30.85,91.43,45,137.57a184.83,184.83,0,0,0,14.73,35.86c5.23,9.41,13,17.16,21.22,24.24C1293.47,938.08,1297.84,940.54,1300.68,944.73ZM1140.61,638.1c-1.75,1.2-2.07,2.95-2.69,4.43-18,42.89-32.33,87.09-46,131.49-1.68,5.42-1,6.57,4.66,6.81,26.46,1.14,52.93,2.23,79.39.07,10.44-.85,11-1.58,8.45-11.68-8.34-33.69-19.59-66.48-31.14-99.16C1149.43,659.29,1145.8,648.43,1140.61,638.1Z"/><path class="cls-3" d="M451.06,817.86c9.68-.26,16.65-.62,23.66-.11,4.59.34,6,2.74,6.24,6.71.52,7.64-1.64,14.79-4,21.9-7.32,22.36-17.39,43.28-33.89,60.38-19.83,20.56-44.47,32.32-72.45,37-27.59,4.63-54-.22-77.75-14.48-19.7-11.82-35.15-28.95-48.59-47.6-18.11-25.15-29.57-53.18-33.08-83.92-6.62-58,8.44-110.33,43.33-156.92,17.88-23.87,39.93-42.94,68.15-53.62C360,573.13,394.16,579.87,425.29,604c22.34,17.32,37.55,39.71,46.91,66.24,4.64,13.19,4.09,13.82-9.7,13.8a474,474,0,0,1-51.78-3.28c-3.92-.44-9.36-.23-10.44-5.06-1-4.54,3.86-6.42,7-8.71,7.16-5.26,14.25-10.56,16.69-19.77,4.45-16.81-2.17-32.26-18.34-42.56-15.54-9.89-32.84-12-50.42-9.14-42.29,7-70.22,32.68-88,70.43-13.1,27.81-19.39,57.34-21.51,87.94-2.26,32.7.7,64.71,11.41,95.76,8.28,24,20.84,45.32,41.47,61,16.24,12.33,34.67,18.56,55,19.35s39.95-2.24,57.19-13.77,28.76-26.81,29.08-48.36c.21-13.64-6.67-24-17.39-32-3.33-2.48-6.83-4.73-10.11-7.27-1.69-1.31-3.42-3.06-2.63-5.46.84-2.57,3.28-3,5.68-3.23A315.86,315.86,0,0,1,451.06,817.86Z"/><path class="cls-4" d="M1397.06,674.45c9.15-3.11,18.33-3.81,27.41-4.07,24.52-.69,48.87,1.09,72.55,8,42.6,12.46,68.07,41.44,79.73,83.52,5.91,21.31,9.17,43,7,65.07-3.32,33.12-12.52,64.14-37.64,87.8a97.43,97.43,0,0,1-63.32,27.06c-24.27,1.24-48.56,2-72.84,3a40.42,40.42,0,0,1-11.87-1.26c-3.46-.89-3.79-2.81-1.09-5.23,2.52-2.26,5.72-3.35,8.8-4.55,15.88-6.17,27.16-16.91,33.56-32.82a51,51,0,0,0,3.46-18.5c.72-47,1-94,0-140.93-.36-17-3.83-33.14-17-45.39-6.73-6.27-14.92-10.54-22.83-15.13C1400.33,679.54,1398.05,677.77,1397.06,674.45Zm73.33,130.14h.09c.79,34.62,1.62,69.24,2.28,103.87.06,3.13.63,5.06,4,5.38,27.9,2.55,51.2-5.73,67.92-29.11,19.57-27.37,26.29-58.41,25.11-91.43-.73-20.34-7.3-38.74-20.88-54.24-10.89-12.42-24.11-21.83-38.71-29.4a136,136,0,0,0-37.09-12.61c-4.05-.78-5.89.2-5.3,4.7a104.11,104.11,0,0,1,.65,11.46Q1469.48,758.9,1470.39,804.59Z"/><path class="cls-3" d="M1590.56,823.54c0-30.55,6.1-59.74,20-87.06,10.64-20.92,25.09-38.42,46.45-49.25,32.59-16.54,80.21-7.6,104.56,24.86,14.54,19.37,22.84,41,26.33,64.76,5,34.35,1.28,67.61-13,99.36-12.23,27.28-30.81,48.7-58.44,61.56-27.1,12.62-52.82,9.2-77.06-6.88-25.67-17-39.52-42-45.53-71.69A176.42,176.42,0,0,1,1590.56,823.54Zm29,3.65c-.24,7.37,1.19,21.75,4.37,35.92,4.2,18.72,10.93,36.27,24.8,50.28,14.19,14.31,41.71,21.49,62.45,8.19a101,101,0,0,0,36.6-40.64c12.08-24.15,16.62-49.93,16.28-76.77-.3-23.54-4.28-46.28-14.06-67.8-7.28-16-16.93-30.21-32.67-39.19-17.11-9.76-33.65-10-49.54,3-14.33,11.71-25,26.21-33,42.72C1623.07,767.23,1619.82,793.35,1619.52,827.19Z"/><path class="cls-5" d="M1755.09,1227.37c-.09,37.3-6.9,73-25.29,105.92-11.85,21.21-28,38.19-49.38,50.22-18.81,10.6-38,9.7-57.16,2.3-23.31-9-36.74-27.85-46.29-49.8-9.37-21.53-13.64-44.29-15.36-67.63-2.57-35,.13-69.44,10.31-103.07a168.62,168.62,0,0,1,48.47-76.65c27.71-25.37,54.66-22.42,83.09-.54,15.51,11.93,25.54,28.33,33.3,46C1749.79,1163.84,1755.24,1195.06,1755.09,1227.37Z"/><path class="cls-5" d="M1007.82,1246.92c1.13-35.49,4.66-69.71,19.56-101.46,11.49-24.48,26.69-46.53,49.22-62.45,10.17-7.18,21.11-12.66,34.28-11,21,2.64,37.94,12.59,51.61,28.44,18.41,21.34,28.29,46.72,34.33,73.79a241.75,241.75,0,0,1,5,76.36c-3.55,36.76-13.28,71.47-36.09,101.43-12.77,16.78-28.56,30.12-48.36,37.37-16.4,6-33.18,3.59-49.06-3.33-18.79-8.18-31.08-23.06-40.1-40.83-10.81-21.3-16.09-44.16-18.42-67.84C1008.74,1267,1008.15,1256.49,1007.82,1246.92Z"/><path class="cls-6" d="M585.44,636.11c7.43,13.73,13.62,27.68,19.78,41.64,12.26,27.8,24.18,55.74,34.34,84.39,1.16,3.28,2.1,6.63,3.12,10,1.1,3.6.07,5.33-4,5.95-16.71,2.58-33.51,2.28-50.31,2-11.65-.19-23.29-.79-34.94-1.12-7.27-.2-8.23-1.14-6.67-8.24A1283.3,1283.3,0,0,1,582.4,641.37C583,639.69,583.31,637.84,585.44,636.11Z"/><path class="cls-6" d="M1140.61,638.1c5.19,10.33,8.82,21.19,12.63,32,11.55,32.68,22.8,65.47,31.14,99.16,2.5,10.1,2,10.83-8.45,11.68-26.46,2.16-52.93,1.07-79.39-.07-5.66-.24-6.34-1.39-4.66-6.81,13.71-44.4,28-88.6,46-131.49C1138.54,641.05,1138.86,639.3,1140.61,638.1Z"/><path class="cls-5" d="M1470.39,804.59q-.95-45.69-1.9-91.38a104.11,104.11,0,0,0-.65-11.46c-.59-4.5,1.25-5.48,5.3-4.7a136,136,0,0,1,37.09,12.61c14.6,7.57,27.82,17,38.71,29.4,13.58,15.5,20.15,33.9,20.88,54.24,1.18,33-5.54,64.06-25.11,91.43-16.72,23.38-40,31.66-67.92,29.11-3.4-.32-4-2.25-4-5.38-.66-34.63-1.49-69.25-2.28-103.87Z"/><path class="cls-5" d="M1619.52,827.19c.3-33.84,3.55-60,15.25-84.31,7.93-16.51,18.65-31,33-42.72,15.89-13,32.43-12.74,49.54-3,15.74,9,25.39,23.16,32.67,39.19,9.78,21.52,13.76,44.26,14.06,67.8.34,26.84-4.2,52.62-16.28,76.77a101,101,0,0,1-36.6,40.64c-20.74,13.3-48.26,6.12-62.45-8.19-13.87-14-20.6-31.56-24.8-50.28C1620.71,848.94,1619.28,834.56,1619.52,827.19Z"/></svg>